<?xml version="1.0" encoding="UTF-8"?>
<svg id="Calque_1" xmlns="http://www.w3.org/2000/svg" version="1.1" viewBox="0 0 1000 1000">
  <defs>
    <style>
      .st0 {
        fill: #fff218;
      }
    </style>
  </defs>
  <g id="Stickers_7">
    <rect class="st0" width="1000" height="1000"/>
  </g>
  <g>
    <path d="M282.8,302.7c38.5,16.2,51.6,53.3,33.1,97.3l-40.8,97.2-216.9-91.2,38.9-92.6c16.7-39.7,48.5-58,83-43.5,26.9,11.3,35.2,37.8,28.7,63.5,15.7-29.7,43.5-43.6,74-30.7ZM92.6,390l69.7,29.3,28-66.6c11-26.3,2.8-45.9-18.6-54.9-21.4-9-40-.6-51,25.6l-28,66.6ZM271.5,329.6c-24.4-10.3-45.6.6-57.6,29.3l-29.3,69.7,77.9,32.8,29.9-71.2c11.8-28.1,4.1-50-20.9-60.6Z"/>
    <path d="M484.5,207.2c15.9,38.6-1,74.2-45.1,92.4l-97.5,40.1-89.6-217.6,92.9-38.2c39.8-16.4,75.3-7,89.5,27.6,11.1,27-1.7,51.6-24.4,65.2,32.1-10,61.5-.3,74.2,30.4ZM288.1,135l28.8,69.9,66.8-27.5c26.4-10.9,34.3-30.6,25.5-52.1-8.8-21.5-27.9-28.6-54.3-17.8l-66.8,27.5ZM457.5,218.3c-10.1-24.5-32.8-31.7-61.6-19.8l-69.9,28.8,32.2,78.1,71.4-29.4c28.2-11.6,38.2-32.6,27.8-57.7Z"/>
    <path d="M694.8,281.6c-15.9,38.6-53,52-97.1,33.8l-97.4-40.2,89.8-217.5,92.8,38.3c39.8,16.4,58.3,48.1,44,82.7-11.1,27-37.6,35.4-63.3,29.1,29.8,15.5,43.8,43.2,31.2,73.8ZM667.8,270.4c10.1-24.5-.9-45.6-29.7-57.5l-69.9-28.8-32.3,78.1,71.4,29.5c28.2,11.6,50.1,3.8,60.4-21.3ZM606.3,91.9l-28.8,69.9,66.8,27.6c26.3,10.9,46,2.5,54.8-19,8.9-21.4.4-40-26-50.9l-66.8-27.6Z"/>
    <path d="M791.5,482.7c-38.5,16.1-74.2-.6-92.6-44.7l-40.6-97.3,217.2-90.6,38.7,92.7c16.6,39.8,7.3,75.2-27.2,89.7-26.9,11.2-51.6-1.5-65.4-24.1,10.1,32,.5,61.5-30.1,74.3ZM780.2,455.8c24.5-10.2,31.5-32.9,19.5-61.7l-29.1-69.7-78,32.5,29.7,71.3c11.7,28.1,32.8,38,57.8,27.6ZM862.7,286l-69.7,29.1,27.8,66.7c11,26.3,30.8,34.2,52.2,25.3,21.4-8.9,28.5-28.1,17.5-54.4l-27.8-66.7Z"/>
    <path d="M718.3,693.4c-38.7-15.8-52.2-52.8-34.2-97l39.8-97.6,217.9,88.8-37.9,93c-16.3,39.9-47.8,58.5-82.5,44.4-27-11-35.6-37.4-29.4-63.2-15.4,29.9-43,44-73.7,31.5ZM729.4,666.4c24.6,10,45.6-1.1,57.3-30l28.5-70-78.3-31.9-29.2,71.5c-11.5,28.2-3.6,50.1,21.6,60.3ZM907.6,604.1l-70-28.5-27.3,66.9c-10.8,26.4-2.3,46,19.2,54.7,21.5,8.8,40,.2,50.8-26.2l27.3-66.9Z"/>
    <path d="M518.1,791.5c-16.4-38.4,0-74.2,43.9-93l96.9-41.4,92.4,216.4-92.4,39.4c-39.6,16.9-75.2,7.9-89.9-26.5-11.4-26.8,1-51.6,23.6-65.5-32,10.4-61.5,1-74.5-29.4ZM544.9,780.1c10.4,24.4,33.2,31.3,61.8,19l69.5-29.7-33.2-77.7-71,30.3c-28,12-37.8,33.1-27.1,58.1ZM715.4,861.2l-29.7-69.5-66.5,28.4c-26.2,11.2-33.9,31.1-24.8,52.4,9.1,21.3,28.3,28.3,54.5,17.1l66.5-28.4Z"/>
    <path d="M306.8,719.8c15.4-38.8,52.4-52.6,96.7-35l97.9,39-87,218.6-93.3-37.1c-40-15.9-58.9-47.4-45.1-82.2,10.8-27.1,37.1-35.9,62.9-29.9-30-15.2-44.4-42.6-32.1-73.4ZM397.6,908.3l28-70.2-67.1-26.7c-26.5-10.5-46-1.9-54.6,19.7-8.6,21.6.1,40,26.6,50.5l67.1,26.7ZM333.9,730.6c-9.8,24.6,1.5,45.5,30.4,57.1l70.2,28,31.3-78.5-71.7-28.6c-28.3-11.3-50.1-3.2-60.2,22.1Z"/>
    <path d="M207.5,520c38.3-16.6,74.2-.4,93.2,43.3l42,96.7-215.8,93.7-40-92.1c-17.2-39.5-8.4-75.1,26-90,26.8-11.6,51.6.7,65.7,23.2-10.6-31.9-1.4-61.5,29-74.7ZM139,717.7l69.3-30.1-28.8-66.3c-11.3-26.1-31.3-33.8-52.6-24.5-21.3,9.2-28.1,28.5-16.8,54.6l28.8,66.3ZM219.1,546.7c-24.3,10.6-31,33.3-18.6,61.9l30.1,69.3,77.5-33.7-30.8-70.8c-12.1-28-33.3-37.6-58.2-26.8Z"/>
  </g>
</svg>
