<svg width="308" height="307" viewBox="0 0 308 307" fill="none" xmlns="http://www.w3.org/2000/svg">
<path d="M5.448 4.488C6.66 4.596 7.512 5.328 7.512 6.528C7.512 8.04 6.456 9 4.728 9H0.912V0.48H4.548C6.108 0.48 7.164 1.284 7.164 2.64C7.164 3.696 6.396 4.344 5.448 4.488ZM4.548 1.404H1.932V4.14H4.548C5.58 4.14 6.12 3.588 6.12 2.748C6.12 1.908 5.58 1.404 4.548 1.404ZM4.728 8.076C5.832 8.076 6.456 7.512 6.456 6.528C6.456 5.568 5.796 5.016 4.668 5.016H1.932V8.076H4.728ZM9.21675 8.064H14.5328V9H8.00475V8.064L13.2008 1.416H8.24475V0.48H14.4128V1.416L9.21675 8.064ZM18.962 9.144C16.478 9.144 14.918 7.26 14.918 4.74C14.918 2.22 16.478 0.335999 18.962 0.335999C21.446 0.335999 23.006 2.22 23.006 4.74C23.006 7.26 21.446 9.144 18.962 9.144ZM18.962 8.22C20.882 8.22 21.95 6.708 21.95 4.74C21.95 2.772 20.882 1.26 18.962 1.26C17.042 1.26 15.974 2.772 15.974 4.74C15.974 6.708 17.042 8.22 18.962 8.22ZM25.1768 0.48V9H24.1568V0.48H25.1768ZM32.6085 0.48H33.6285V9H32.2845L27.7845 1.728V9H26.7645V0.48H28.1085L32.6085 7.752V0.48ZM38.7001 9.144C36.2881 9.144 34.7761 7.26 34.7761 4.74C34.7761 2.22 36.3361 0.335999 38.8201 0.335999C40.8001 0.335999 42.0121 1.524 42.3721 3.06H41.3161C41.0401 2.004 40.1401 1.26 38.8201 1.26C36.9001 1.26 35.8321 2.772 35.8321 4.74C35.8321 6.708 36.9001 8.22 38.8201 8.22C40.4161 8.22 41.3641 7.14 41.3641 5.76V5.4H38.5801V4.5H42.3841V9H41.4241V7.536C41.0161 8.508 40.0321 9.144 38.7001 9.144Z" fill="black"/>
<path d="M5.448 48.488C6.66 48.596 7.512 49.328 7.512 50.528C7.512 52.04 6.456 53 4.728 53H0.912V44.48H4.548C6.108 44.48 7.164 45.284 7.164 46.64C7.164 47.696 6.396 48.344 5.448 48.488ZM4.548 45.404H1.932V48.14H4.548C5.58 48.14 6.12 47.588 6.12 46.748C6.12 45.908 5.58 45.404 4.548 45.404ZM4.728 52.076C5.832 52.076 6.456 51.512 6.456 50.528C6.456 49.568 5.796 49.016 4.668 49.016H1.932V52.076H4.728ZM9.21675 52.064H14.5328V53H8.00475V52.064L13.2008 45.416H8.24475V44.48H14.4128V45.416L9.21675 52.064ZM18.962 53.144C16.478 53.144 14.918 51.26 14.918 48.74C14.918 46.22 16.478 44.336 18.962 44.336C21.446 44.336 23.006 46.22 23.006 48.74C23.006 51.26 21.446 53.144 18.962 53.144ZM18.962 52.22C20.882 52.22 21.95 50.708 21.95 48.74C21.95 46.772 20.882 45.26 18.962 45.26C17.042 45.26 15.974 46.772 15.974 48.74C15.974 50.708 17.042 52.22 18.962 52.22ZM25.1768 44.48V53H24.1568V44.48H25.1768ZM32.6085 44.48H33.6285V53H32.2845L27.7845 45.728V53H26.7645V44.48H28.1085L32.6085 51.752V44.48ZM38.7001 53.144C36.2881 53.144 34.7761 51.26 34.7761 48.74C34.7761 46.22 36.3361 44.336 38.8201 44.336C40.8001 44.336 42.0121 45.524 42.3721 47.06H41.3161C41.0401 46.004 40.1401 45.26 38.8201 45.26C36.9001 45.26 35.8321 46.772 35.8321 48.74C35.8321 50.708 36.9001 52.22 38.8201 52.22C40.4161 52.22 41.3641 51.14 41.3641 49.76V49.4H38.5801V48.5H42.3841V53H41.4241V51.536C41.0161 52.508 40.0321 53.144 38.7001 53.144Z" fill="black"/>
<path d="M4.056 55.48C6.636 55.48 7.872 57.22 7.872 59.74C7.872 62.26 6.636 64 4.056 64H0.912V55.48H4.056ZM3.936 63.076C5.916 63.076 6.816 61.72 6.816 59.74C6.816 57.76 5.916 56.404 3.936 56.404H1.932V63.076H3.936ZM10.1069 63.076H15.0509V64H9.05091V55.48H14.9909V56.404H10.1069V59.116H14.5109V60.016H10.1069V63.076Z" fill="black"/>
<path d="M4.404 31.144C1.992 31.144 0.48 29.26 0.48 26.74C0.48 24.22 2.04 22.336 4.524 22.336C6.504 22.336 7.716 23.524 8.076 25.06H7.02C6.744 24.004 5.844 23.26 4.524 23.26C2.604 23.26 1.536 24.772 1.536 26.74C1.536 28.708 2.604 30.22 4.524 30.22C6.12 30.22 7.068 29.14 7.068 27.76V27.4H4.284V26.5H8.088V31H7.128V29.536C6.72 30.508 5.736 31.144 4.404 31.144ZM13.0597 22.48C14.7157 22.48 15.8077 23.368 15.8077 24.724C15.8077 25.864 15.0757 26.632 13.9237 26.812C15.0277 26.98 15.4237 27.652 15.5437 28.948C15.6397 30.028 15.8917 30.592 16.1317 31H14.9797C14.8117 30.604 14.6077 30.124 14.4997 28.912C14.3917 27.664 13.9597 27.244 12.6637 27.244H10.5397V31H9.51966V22.48H13.0597ZM12.7837 26.356C14.0797 26.356 14.7637 25.852 14.7637 24.88C14.7637 23.896 14.0797 23.404 12.7837 23.404H10.5397V26.356H12.7837ZM22.8067 31L21.9787 28.636H18.2467L17.4067 31H16.3507L19.4707 22.48H20.7907L23.9107 31H22.8067ZM18.5467 27.76H21.6667L20.1067 23.344L18.5467 27.76ZM28.2239 22.48C29.8079 22.48 30.8159 23.464 30.8159 24.904C30.8159 26.344 29.8079 27.328 28.2239 27.328H25.7159V31H24.6959V22.48H28.2239ZM28.0439 26.404C29.1239 26.404 29.7719 25.9 29.7719 24.904C29.7719 23.908 29.1239 23.404 28.0439 23.404H25.7159V26.404H28.0439ZM37.3004 22.48H38.3204V31H37.3004V27.016H32.7884V31H31.7684V22.48H32.7884V26.116H37.3004V22.48ZM40.9273 22.48V31H39.9073V22.48H40.9273ZM50.651 31H49.379L48.623 30.328C47.963 30.844 47.123 31.144 46.127 31.144C43.643 31.144 42.083 29.26 42.083 26.74C42.083 24.22 43.643 22.336 46.127 22.336C48.611 22.336 50.171 24.22 50.171 26.74C50.171 27.916 49.835 28.96 49.211 29.728L50.651 31ZM46.127 30.22C46.823 30.22 47.411 30.016 47.879 29.668L45.971 27.976H47.243L48.467 29.056C48.887 28.444 49.115 27.64 49.115 26.74C49.115 24.772 48.047 23.26 46.127 23.26C44.207 23.26 43.139 24.772 43.139 26.74C43.139 28.708 44.207 30.22 46.127 30.22ZM54.5253 31.144C52.6893 31.144 51.2733 30.196 51.2733 28.144V22.48H52.2933V28.036C52.2933 29.476 53.1693 30.22 54.5253 30.22C55.8813 30.22 56.7573 29.476 56.7573 28.036V22.48H57.7773V28.144C57.7773 30.196 56.3613 31.144 54.5253 31.144ZM60.341 30.076H65.285V31H59.285V22.48H65.225V23.404H60.341V26.116H64.745V27.016H60.341V30.076Z" fill="black"/>
<path d="M137.523 11.48C140.103 11.48 141.339 13.22 141.339 15.74C141.339 18.26 140.103 20 137.523 20H134.379V11.48H137.523ZM137.403 19.076C139.383 19.076 140.283 17.72 140.283 15.74C140.283 13.76 139.383 12.404 137.403 12.404H135.399V19.076H137.403ZM143.573 19.076H148.517V20H142.517V11.48H148.457V12.404H143.573V15.116H147.977V16.016H143.573V19.076Z" fill="black"/>
<path d="M87.6365 75.144C85.2245 75.144 83.7125 73.26 83.7125 70.74C83.7125 68.22 85.2725 66.336 87.7565 66.336C89.7365 66.336 90.9485 67.524 91.3085 69.06H90.2525C89.9765 68.004 89.0765 67.26 87.7565 67.26C85.8365 67.26 84.7685 68.772 84.7685 70.74C84.7685 72.708 85.8365 74.22 87.7565 74.22C89.3525 74.22 90.3005 73.14 90.3005 71.76V71.4H87.5165V70.5H91.3205V75H90.3605V73.536C89.9525 74.508 88.9685 75.144 87.6365 75.144ZM96.2922 66.48C97.9482 66.48 99.0402 67.368 99.0402 68.724C99.0402 69.864 98.3082 70.632 97.1562 70.812C98.2602 70.98 98.6562 71.652 98.7762 72.948C98.8722 74.028 99.1242 74.592 99.3642 75H98.2122C98.0442 74.604 97.8402 74.124 97.7322 72.912C97.6242 71.664 97.1922 71.244 95.8962 71.244H93.7722V75H92.7522V66.48H96.2922ZM96.0162 70.356C97.3122 70.356 97.9962 69.852 97.9962 68.88C97.9962 67.896 97.3122 67.404 96.0162 67.404H93.7722V70.356H96.0162ZM106.039 75L105.211 72.636H101.479L100.639 75H99.5832L102.703 66.48H104.023L107.143 75H106.039ZM101.779 71.76H104.899L103.339 67.344L101.779 71.76ZM111.456 66.48C113.04 66.48 114.048 67.464 114.048 68.904C114.048 70.344 113.04 71.328 111.456 71.328H108.948V75H107.928V66.48H111.456ZM111.276 70.404C112.356 70.404 113.004 69.9 113.004 68.904C113.004 67.908 112.356 67.404 111.276 67.404H108.948V70.404H111.276ZM120.533 66.48H121.553V75H120.533V71.016H116.021V75H115.001V66.48H116.021V70.116H120.533V66.48ZM124.16 66.48V75H123.14V66.48H124.16ZM133.883 75H132.611L131.855 74.328C131.195 74.844 130.355 75.144 129.359 75.144C126.875 75.144 125.315 73.26 125.315 70.74C125.315 68.22 126.875 66.336 129.359 66.336C131.843 66.336 133.403 68.22 133.403 70.74C133.403 71.916 133.067 72.96 132.443 73.728L133.883 75ZM129.359 74.22C130.055 74.22 130.643 74.016 131.111 73.668L129.203 71.976H130.475L131.699 73.056C132.119 72.444 132.347 71.64 132.347 70.74C132.347 68.772 131.279 67.26 129.359 67.26C127.439 67.26 126.371 68.772 126.371 70.74C126.371 72.708 127.439 74.22 129.359 74.22ZM137.758 75.144C135.922 75.144 134.506 74.196 134.506 72.144V66.48H135.526V72.036C135.526 73.476 136.402 74.22 137.758 74.22C139.114 74.22 139.99 73.476 139.99 72.036V66.48H141.01V72.144C141.01 74.196 139.594 75.144 137.758 75.144ZM143.573 74.076H148.517V75H142.517V66.48H148.457V67.404H143.573V70.116H147.977V71.016H143.573V74.076Z" fill="black"/>
<path d="M163.056 11.48C165.636 11.48 166.872 13.22 166.872 15.74C166.872 18.26 165.636 20 163.056 20H159.912V11.48H163.056ZM162.936 19.076C164.916 19.076 165.816 17.72 165.816 15.74C165.816 13.76 164.916 12.404 162.936 12.404H160.932V19.076H162.936ZM169.107 19.076H174.051V20H168.051V11.48H173.991V12.404H169.107V15.116H173.511V16.016H169.107V19.076ZM178.241 20.144C175.925 20.144 174.785 18.908 174.641 17.264H175.685C175.853 18.644 176.741 19.232 178.277 19.232C179.477 19.232 180.329 18.716 180.329 17.66C180.329 16.484 179.297 16.34 177.761 15.896C176.261 15.464 174.941 15.14 174.941 13.568C174.941 12.236 176.201 11.336 177.893 11.336C179.897 11.336 181.001 12.344 181.241 13.808H180.233C180.053 12.716 179.165 12.248 177.893 12.248C176.777 12.248 175.985 12.728 175.985 13.544C175.985 14.456 176.921 14.696 178.205 15.044C179.861 15.5 181.373 15.86 181.373 17.66C181.373 19.208 180.065 20.144 178.241 20.144ZM183.497 11.48V20H182.477V11.48H183.497ZM188.577 20.144C186.165 20.144 184.653 18.26 184.653 15.74C184.653 13.22 186.213 11.336 188.697 11.336C190.677 11.336 191.889 12.524 192.249 14.06H191.193C190.917 13.004 190.017 12.26 188.697 12.26C186.777 12.26 185.709 13.772 185.709 15.74C185.709 17.708 186.777 19.22 188.697 19.22C190.293 19.22 191.241 18.14 191.241 16.76V16.4H188.457V15.5H192.261V20H191.301V18.536C190.893 19.508 189.909 20.144 188.577 20.144ZM199.536 11.48H200.556V20H199.212L194.712 12.728V20H193.692V11.48H195.036L199.536 18.752V11.48Z" fill="black"/>
<path d="M168.384 66.48V75H167.364V67.56L164.652 75H163.644L160.932 67.56V75H159.912V66.48H161.532L164.148 73.74L166.764 66.48H168.384ZM173.585 75.144C171.101 75.144 169.541 73.26 169.541 70.74C169.541 68.22 171.101 66.336 173.585 66.336C176.069 66.336 177.629 68.22 177.629 70.74C177.629 73.26 176.069 75.144 173.585 75.144ZM173.585 74.22C175.505 74.22 176.573 72.708 176.573 70.74C176.573 68.772 175.505 67.26 173.585 67.26C171.665 67.26 170.597 68.772 170.597 70.74C170.597 72.708 171.665 74.22 173.585 74.22ZM184.624 66.48H185.644V75H184.3L179.8 67.728V75H178.78V66.48H180.124L184.624 73.752V66.48ZM193.271 66.48V67.416H190.415V75H189.395V67.416H186.527V66.48H193.271ZM197.695 66.48C199.351 66.48 200.443 67.368 200.443 68.724C200.443 69.864 199.711 70.632 198.559 70.812C199.663 70.98 200.059 71.652 200.179 72.948C200.275 74.028 200.527 74.592 200.767 75H199.615C199.447 74.604 199.243 74.124 199.135 72.912C199.027 71.664 198.595 71.244 197.299 71.244H195.175V75H194.155V66.48H197.695ZM197.419 70.356C198.715 70.356 199.399 69.852 199.399 68.88C199.399 67.896 198.715 67.404 197.419 67.404H195.175V70.356H197.419ZM207.106 64.56L205.306 65.94H204.346L205.606 64.56H207.106ZM202.846 74.076H207.79V75H201.79V66.48H207.73V67.404H202.846V70.116H207.25V71.016H202.846V74.076ZM214.538 75L213.71 72.636H209.978L209.138 75H208.082L211.202 66.48H212.522L215.642 75H214.538ZM210.278 71.76H213.398L211.838 67.344L210.278 71.76ZM217.447 74.064H222.067V75H216.427V66.48H217.447V74.064ZM228.613 75L227.785 72.636H224.053L223.213 75H222.157L225.277 66.48H226.597L229.717 75H228.613ZM224.353 71.76H227.473L225.913 67.344L224.353 71.76ZM231.522 66.48V75H230.502V66.48H231.522ZM236.146 75.144C233.83 75.144 232.69 73.908 232.546 72.264H233.59C233.758 73.644 234.646 74.232 236.182 74.232C237.382 74.232 238.234 73.716 238.234 72.66C238.234 71.484 237.202 71.34 235.666 70.896C234.166 70.464 232.846 70.14 232.846 68.568C232.846 67.236 234.106 66.336 235.798 66.336C237.802 66.336 238.906 67.344 239.146 68.808H238.138C237.958 67.716 237.07 67.248 235.798 67.248C234.682 67.248 233.89 67.728 233.89 68.544C233.89 69.456 234.826 69.696 236.11 70.044C237.766 70.5 239.278 70.86 239.278 72.66C239.278 74.208 237.97 75.144 236.146 75.144Z" fill="black"/>
<path d="M270.41 9.144C268.094 9.144 266.954 7.908 266.81 6.264H267.854C268.022 7.644 268.91 8.232 270.446 8.232C271.646 8.232 272.498 7.716 272.498 6.66C272.498 5.484 271.466 5.34 269.93 4.896C268.43 4.464 267.11 4.14 267.11 2.568C267.11 1.236 268.37 0.335999 270.062 0.335999C272.066 0.335999 273.17 1.344 273.41 2.808H272.402C272.222 1.716 271.334 1.248 270.062 1.248C268.946 1.248 268.154 1.728 268.154 2.544C268.154 3.456 269.09 3.696 270.374 4.044C272.03 4.5 273.542 4.86 273.542 6.66C273.542 8.208 272.234 9.144 270.41 9.144ZM280.295 0.48V1.416H277.439V9H276.419V1.416H273.551V0.48H280.295ZM284.359 9.144C282.523 9.144 281.107 8.196 281.107 6.144V0.48H282.127V6.036C282.127 7.476 283.003 8.22 284.359 8.22C285.715 8.22 286.591 7.476 286.591 6.036V0.48H287.611V6.144C287.611 8.196 286.195 9.144 284.359 9.144ZM292.263 0.48C294.843 0.48 296.079 2.22 296.079 4.74C296.079 7.26 294.843 9 292.263 9H289.119V0.48H292.263ZM292.143 8.076C294.123 8.076 295.023 6.72 295.023 4.74C295.023 2.76 294.123 1.404 292.143 1.404H290.139V8.076H292.143ZM298.277 0.48V9H297.257V0.48H298.277ZM303.477 9.144C300.993 9.144 299.433 7.26 299.433 4.74C299.433 2.22 300.993 0.335999 303.477 0.335999C305.961 0.335999 307.521 2.22 307.521 4.74C307.521 7.26 305.961 9.144 303.477 9.144ZM303.477 8.22C305.397 8.22 306.465 6.708 306.465 4.74C306.465 2.772 305.397 1.26 303.477 1.26C301.557 1.26 300.489 2.772 300.489 4.74C300.489 6.708 301.557 8.22 303.477 8.22Z" fill="black"/>
<path d="M270.41 53.144C268.094 53.144 266.954 51.908 266.81 50.264H267.854C268.022 51.644 268.91 52.232 270.446 52.232C271.646 52.232 272.498 51.716 272.498 50.66C272.498 49.484 271.466 49.34 269.93 48.896C268.43 48.464 267.11 48.14 267.11 46.568C267.11 45.236 268.37 44.336 270.062 44.336C272.066 44.336 273.17 45.344 273.41 46.808H272.402C272.222 45.716 271.334 45.248 270.062 45.248C268.946 45.248 268.154 45.728 268.154 46.544C268.154 47.456 269.09 47.696 270.374 48.044C272.03 48.5 273.542 48.86 273.542 50.66C273.542 52.208 272.234 53.144 270.41 53.144ZM280.295 44.48V45.416H277.439V53H276.419V45.416H273.551V44.48H280.295ZM284.359 53.144C282.523 53.144 281.107 52.196 281.107 50.144V44.48H282.127V50.036C282.127 51.476 283.003 52.22 284.359 52.22C285.715 52.22 286.591 51.476 286.591 50.036V44.48H287.611V50.144C287.611 52.196 286.195 53.144 284.359 53.144ZM292.263 44.48C294.843 44.48 296.079 46.22 296.079 48.74C296.079 51.26 294.843 53 292.263 53H289.119V44.48H292.263ZM292.143 52.076C294.123 52.076 295.023 50.72 295.023 48.74C295.023 46.76 294.123 45.404 292.143 45.404H290.139V52.076H292.143ZM298.277 44.48V53H297.257V44.48H298.277ZM303.477 53.144C300.993 53.144 299.433 51.26 299.433 48.74C299.433 46.22 300.993 44.336 303.477 44.336C305.961 44.336 307.521 46.22 307.521 48.74C307.521 51.26 305.961 53.144 303.477 53.144ZM303.477 52.22C305.397 52.22 306.465 50.708 306.465 48.74C306.465 46.772 305.397 45.26 303.477 45.26C301.557 45.26 300.489 46.772 300.489 48.74C300.489 50.708 301.557 52.22 303.477 52.22Z" fill="black"/>
<path d="M269.592 55.48C272.172 55.48 273.408 57.22 273.408 59.74C273.408 62.26 272.172 64 269.592 64H266.448V55.48H269.592ZM269.472 63.076C271.452 63.076 272.352 61.72 272.352 59.74C272.352 57.76 271.452 56.404 269.472 56.404H267.468V63.076H269.472ZM275.643 63.076H280.587V64H274.587V55.48H280.527V56.404H275.643V59.116H280.047V60.016H275.643V63.076ZM284.777 64.144C282.461 64.144 281.321 62.908 281.177 61.264H282.221C282.389 62.644 283.277 63.232 284.813 63.232C286.013 63.232 286.865 62.716 286.865 61.66C286.865 60.484 285.833 60.34 284.297 59.896C282.797 59.464 281.477 59.14 281.477 57.568C281.477 56.236 282.737 55.336 284.429 55.336C286.433 55.336 287.537 56.344 287.777 57.808H286.769C286.589 56.716 285.701 56.248 284.429 56.248C283.313 56.248 282.521 56.728 282.521 57.544C282.521 58.456 283.457 58.696 284.741 59.044C286.397 59.5 287.909 59.86 287.909 61.66C287.909 63.208 286.601 64.144 284.777 64.144ZM290.033 55.48V64H289.013V55.48H290.033ZM295.113 64.144C292.701 64.144 291.189 62.26 291.189 59.74C291.189 57.22 292.749 55.336 295.233 55.336C297.213 55.336 298.425 56.524 298.785 58.06H297.729C297.453 57.004 296.553 56.26 295.233 56.26C293.313 56.26 292.245 57.772 292.245 59.74C292.245 61.708 293.313 63.22 295.233 63.22C296.829 63.22 297.777 62.14 297.777 60.76V60.4H294.993V59.5H298.797V64H297.837V62.536C297.429 63.508 296.445 64.144 295.113 64.144ZM306.072 55.48H307.092V64H305.748L301.248 56.728V64H300.228V55.48H301.572L306.072 62.752V55.48Z" fill="black"/>
<path d="M236.675 33.48V42H235.655V34.56L232.943 42H231.935L229.223 34.56V42H228.203V33.48H229.823L232.439 40.74L235.055 33.48H236.675ZM241.875 42.144C239.391 42.144 237.831 40.26 237.831 37.74C237.831 35.22 239.391 33.336 241.875 33.336C244.359 33.336 245.919 35.22 245.919 37.74C245.919 40.26 244.359 42.144 241.875 42.144ZM241.875 41.22C243.795 41.22 244.863 39.708 244.863 37.74C244.863 35.772 243.795 34.26 241.875 34.26C239.955 34.26 238.887 35.772 238.887 37.74C238.887 39.708 239.955 41.22 241.875 41.22ZM252.914 33.48H253.934V42H252.59L248.09 34.728V42H247.07V33.48H248.414L252.914 40.752V33.48ZM261.562 33.48V34.416H258.706V42H257.686V34.416H254.818V33.48H261.562ZM265.986 33.48C267.642 33.48 268.734 34.368 268.734 35.724C268.734 36.864 268.002 37.632 266.85 37.812C267.954 37.98 268.35 38.652 268.47 39.948C268.566 41.028 268.818 41.592 269.058 42H267.906C267.738 41.604 267.534 41.124 267.426 39.912C267.318 38.664 266.886 38.244 265.59 38.244H263.466V42H262.446V33.48H265.986ZM265.71 37.356C267.006 37.356 267.69 36.852 267.69 35.88C267.69 34.896 267.006 34.404 265.71 34.404H263.466V37.356H265.71ZM275.397 31.56L273.597 32.94H272.637L273.897 31.56H275.397ZM271.137 41.076H276.081V42H270.081V33.48H276.021V34.404H271.137V37.116H275.541V38.016H271.137V41.076ZM282.829 42L282.001 39.636H278.269L277.429 42H276.373L279.493 33.48H280.813L283.933 42H282.829ZM278.569 38.76H281.689L280.129 34.344L278.569 38.76ZM285.738 41.064H290.358V42H284.718V33.48H285.738V41.064ZM296.903 42L296.075 39.636H292.343L291.503 42H290.447L293.567 33.48H294.887L298.007 42H296.903ZM292.643 38.76H295.763L294.203 34.344L292.643 38.76ZM299.813 33.48V42H298.793V33.48H299.813ZM304.436 42.144C302.12 42.144 300.98 40.908 300.836 39.264H301.88C302.048 40.644 302.936 41.232 304.472 41.232C305.672 41.232 306.524 40.716 306.524 39.66C306.524 38.484 305.492 38.34 303.956 37.896C302.456 37.464 301.136 37.14 301.136 35.568C301.136 34.236 302.396 33.336 304.088 33.336C306.092 33.336 307.196 34.344 307.436 35.808H306.428C306.248 34.716 305.36 34.248 304.088 34.248C302.972 34.248 302.18 34.728 302.18 35.544C302.18 36.456 303.116 36.696 304.4 37.044C306.056 37.5 307.568 37.86 307.568 39.66C307.568 41.208 306.26 42.144 304.436 42.144Z" fill="black"/>
<path d="M5.448 158.488C6.66 158.596 7.512 159.328 7.512 160.528C7.512 162.04 6.456 163 4.728 163H0.912V154.48H4.548C6.108 154.48 7.164 155.284 7.164 156.64C7.164 157.696 6.396 158.344 5.448 158.488ZM4.548 155.404H1.932V158.14H4.548C5.58 158.14 6.12 157.588 6.12 156.748C6.12 155.908 5.58 155.404 4.548 155.404ZM4.728 162.076C5.832 162.076 6.456 161.512 6.456 160.528C6.456 159.568 5.796 159.016 4.668 159.016H1.932V162.076H4.728ZM9.21675 162.064H14.5328V163H8.00475V162.064L13.2008 155.416H8.24475V154.48H14.4128V155.416L9.21675 162.064ZM18.962 163.144C16.478 163.144 14.918 161.26 14.918 158.74C14.918 156.22 16.478 154.336 18.962 154.336C21.446 154.336 23.006 156.22 23.006 158.74C23.006 161.26 21.446 163.144 18.962 163.144ZM18.962 162.22C20.882 162.22 21.95 160.708 21.95 158.74C21.95 156.772 20.882 155.26 18.962 155.26C17.042 155.26 15.974 156.772 15.974 158.74C15.974 160.708 17.042 162.22 18.962 162.22ZM25.1768 154.48V163H24.1568V154.48H25.1768ZM32.6085 154.48H33.6285V163H32.2845L27.7845 155.728V163H26.7645V154.48H28.1085L32.6085 161.752V154.48ZM38.7001 163.144C36.2881 163.144 34.7761 161.26 34.7761 158.74C34.7761 156.22 36.3361 154.336 38.8201 154.336C40.8001 154.336 42.0121 155.524 42.3721 157.06H41.3161C41.0401 156.004 40.1401 155.26 38.8201 155.26C36.9001 155.26 35.8321 156.772 35.8321 158.74C35.8321 160.708 36.9001 162.22 38.8201 162.22C40.4161 162.22 41.3641 161.14 41.3641 159.76V159.4H38.5801V158.5H42.3841V163H41.4241V161.536C41.0161 162.508 40.0321 163.144 38.7001 163.144Z" fill="black"/>
<path d="M5.448 202.488C6.66 202.596 7.512 203.328 7.512 204.528C7.512 206.04 6.456 207 4.728 207H0.912V198.48H4.548C6.108 198.48 7.164 199.284 7.164 200.64C7.164 201.696 6.396 202.344 5.448 202.488ZM4.548 199.404H1.932V202.14H4.548C5.58 202.14 6.12 201.588 6.12 200.748C6.12 199.908 5.58 199.404 4.548 199.404ZM4.728 206.076C5.832 206.076 6.456 205.512 6.456 204.528C6.456 203.568 5.796 203.016 4.668 203.016H1.932V206.076H4.728ZM9.21675 206.064H14.5328V207H8.00475V206.064L13.2008 199.416H8.24475V198.48H14.4128V199.416L9.21675 206.064ZM18.962 207.144C16.478 207.144 14.918 205.26 14.918 202.74C14.918 200.22 16.478 198.336 18.962 198.336C21.446 198.336 23.006 200.22 23.006 202.74C23.006 205.26 21.446 207.144 18.962 207.144ZM18.962 206.22C20.882 206.22 21.95 204.708 21.95 202.74C21.95 200.772 20.882 199.26 18.962 199.26C17.042 199.26 15.974 200.772 15.974 202.74C15.974 204.708 17.042 206.22 18.962 206.22ZM25.1768 198.48V207H24.1568V198.48H25.1768ZM32.6085 198.48H33.6285V207H32.2845L27.7845 199.728V207H26.7645V198.48H28.1085L32.6085 205.752V198.48ZM38.7001 207.144C36.2881 207.144 34.7761 205.26 34.7761 202.74C34.7761 200.22 36.3361 198.336 38.8201 198.336C40.8001 198.336 42.0121 199.524 42.3721 201.06H41.3161C41.0401 200.004 40.1401 199.26 38.8201 199.26C36.9001 199.26 35.8321 200.772 35.8321 202.74C35.8321 204.708 36.9001 206.22 38.8201 206.22C40.4161 206.22 41.3641 205.14 41.3641 203.76V203.4H38.5801V202.5H42.3841V207H41.4241V205.536C41.0161 206.508 40.0321 207.144 38.7001 207.144Z" fill="black"/>
<path d="M4.056 209.48C6.636 209.48 7.872 211.22 7.872 213.74C7.872 216.26 6.636 218 4.056 218H0.912V209.48H4.056ZM3.936 217.076C5.916 217.076 6.816 215.72 6.816 213.74C6.816 211.76 5.916 210.404 3.936 210.404H1.932V217.076H3.936ZM10.1069 217.076H15.0509V218H9.05091V209.48H14.9909V210.404H10.1069V213.116H14.5109V214.016H10.1069V217.076Z" fill="black"/>
<path d="M4.404 185.144C1.992 185.144 0.48 183.26 0.48 180.74C0.48 178.22 2.04 176.336 4.524 176.336C6.504 176.336 7.716 177.524 8.076 179.06H7.02C6.744 178.004 5.844 177.26 4.524 177.26C2.604 177.26 1.536 178.772 1.536 180.74C1.536 182.708 2.604 184.22 4.524 184.22C6.12 184.22 7.068 183.14 7.068 181.76V181.4H4.284V180.5H8.088V185H7.128V183.536C6.72 184.508 5.736 185.144 4.404 185.144ZM13.0597 176.48C14.7157 176.48 15.8077 177.368 15.8077 178.724C15.8077 179.864 15.0757 180.632 13.9237 180.812C15.0277 180.98 15.4237 181.652 15.5437 182.948C15.6397 184.028 15.8917 184.592 16.1317 185H14.9797C14.8117 184.604 14.6077 184.124 14.4997 182.912C14.3917 181.664 13.9597 181.244 12.6637 181.244H10.5397V185H9.51966V176.48H13.0597ZM12.7837 180.356C14.0797 180.356 14.7637 179.852 14.7637 178.88C14.7637 177.896 14.0797 177.404 12.7837 177.404H10.5397V180.356H12.7837ZM22.8067 185L21.9787 182.636H18.2467L17.4067 185H16.3507L19.4707 176.48H20.7907L23.9107 185H22.8067ZM18.5467 181.76H21.6667L20.1067 177.344L18.5467 181.76ZM28.2239 176.48C29.8079 176.48 30.8159 177.464 30.8159 178.904C30.8159 180.344 29.8079 181.328 28.2239 181.328H25.7159V185H24.6959V176.48H28.2239ZM28.0439 180.404C29.1239 180.404 29.7719 179.9 29.7719 178.904C29.7719 177.908 29.1239 177.404 28.0439 177.404H25.7159V180.404H28.0439ZM37.3004 176.48H38.3204V185H37.3004V181.016H32.7884V185H31.7684V176.48H32.7884V180.116H37.3004V176.48ZM40.9273 176.48V185H39.9073V176.48H40.9273ZM50.651 185H49.379L48.623 184.328C47.963 184.844 47.123 185.144 46.127 185.144C43.643 185.144 42.083 183.26 42.083 180.74C42.083 178.22 43.643 176.336 46.127 176.336C48.611 176.336 50.171 178.22 50.171 180.74C50.171 181.916 49.835 182.96 49.211 183.728L50.651 185ZM46.127 184.22C46.823 184.22 47.411 184.016 47.879 183.668L45.971 181.976H47.243L48.467 183.056C48.887 182.444 49.115 181.64 49.115 180.74C49.115 178.772 48.047 177.26 46.127 177.26C44.207 177.26 43.139 178.772 43.139 180.74C43.139 182.708 44.207 184.22 46.127 184.22ZM54.5253 185.144C52.6893 185.144 51.2733 184.196 51.2733 182.144V176.48H52.2933V182.036C52.2933 183.476 53.1693 184.22 54.5253 184.22C55.8813 184.22 56.7573 183.476 56.7573 182.036V176.48H57.7773V182.144C57.7773 184.196 56.3613 185.144 54.5253 185.144ZM60.341 184.076H65.285V185H59.285V176.48H65.225V177.404H60.341V180.116H64.745V181.016H60.341V184.076Z" fill="black"/>
<path d="M137.523 165.48C140.103 165.48 141.339 167.22 141.339 169.74C141.339 172.26 140.103 174 137.523 174H134.379V165.48H137.523ZM137.403 173.076C139.383 173.076 140.283 171.72 140.283 169.74C140.283 167.76 139.383 166.404 137.403 166.404H135.399V173.076H137.403ZM143.573 173.076H148.517V174H142.517V165.48H148.457V166.404H143.573V169.116H147.977V170.016H143.573V173.076Z" fill="black"/>
<path d="M87.6365 229.144C85.2245 229.144 83.7125 227.26 83.7125 224.74C83.7125 222.22 85.2725 220.336 87.7565 220.336C89.7365 220.336 90.9485 221.524 91.3085 223.06H90.2525C89.9765 222.004 89.0765 221.26 87.7565 221.26C85.8365 221.26 84.7685 222.772 84.7685 224.74C84.7685 226.708 85.8365 228.22 87.7565 228.22C89.3525 228.22 90.3005 227.14 90.3005 225.76V225.4H87.5165V224.5H91.3205V229H90.3605V227.536C89.9525 228.508 88.9685 229.144 87.6365 229.144ZM96.2922 220.48C97.9482 220.48 99.0402 221.368 99.0402 222.724C99.0402 223.864 98.3082 224.632 97.1562 224.812C98.2602 224.98 98.6562 225.652 98.7762 226.948C98.8722 228.028 99.1242 228.592 99.3642 229H98.2122C98.0442 228.604 97.8402 228.124 97.7322 226.912C97.6242 225.664 97.1922 225.244 95.8962 225.244H93.7722V229H92.7522V220.48H96.2922ZM96.0162 224.356C97.3122 224.356 97.9962 223.852 97.9962 222.88C97.9962 221.896 97.3122 221.404 96.0162 221.404H93.7722V224.356H96.0162ZM106.039 229L105.211 226.636H101.479L100.639 229H99.5832L102.703 220.48H104.023L107.143 229H106.039ZM101.779 225.76H104.899L103.339 221.344L101.779 225.76ZM111.456 220.48C113.04 220.48 114.048 221.464 114.048 222.904C114.048 224.344 113.04 225.328 111.456 225.328H108.948V229H107.928V220.48H111.456ZM111.276 224.404C112.356 224.404 113.004 223.9 113.004 222.904C113.004 221.908 112.356 221.404 111.276 221.404H108.948V224.404H111.276ZM120.533 220.48H121.553V229H120.533V225.016H116.021V229H115.001V220.48H116.021V224.116H120.533V220.48ZM124.16 220.48V229H123.14V220.48H124.16ZM133.883 229H132.611L131.855 228.328C131.195 228.844 130.355 229.144 129.359 229.144C126.875 229.144 125.315 227.26 125.315 224.74C125.315 222.22 126.875 220.336 129.359 220.336C131.843 220.336 133.403 222.22 133.403 224.74C133.403 225.916 133.067 226.96 132.443 227.728L133.883 229ZM129.359 228.22C130.055 228.22 130.643 228.016 131.111 227.668L129.203 225.976H130.475L131.699 227.056C132.119 226.444 132.347 225.64 132.347 224.74C132.347 222.772 131.279 221.26 129.359 221.26C127.439 221.26 126.371 222.772 126.371 224.74C126.371 226.708 127.439 228.22 129.359 228.22ZM137.758 229.144C135.922 229.144 134.506 228.196 134.506 226.144V220.48H135.526V226.036C135.526 227.476 136.402 228.22 137.758 228.22C139.114 228.22 139.99 227.476 139.99 226.036V220.48H141.01V226.144C141.01 228.196 139.594 229.144 137.758 229.144ZM143.573 228.076H148.517V229H142.517V220.48H148.457V221.404H143.573V224.116H147.977V225.016H143.573V228.076Z" fill="black"/>
<path d="M163.056 165.48C165.636 165.48 166.872 167.22 166.872 169.74C166.872 172.26 165.636 174 163.056 174H159.912V165.48H163.056ZM162.936 173.076C164.916 173.076 165.816 171.72 165.816 169.74C165.816 167.76 164.916 166.404 162.936 166.404H160.932V173.076H162.936ZM169.107 173.076H174.051V174H168.051V165.48H173.991V166.404H169.107V169.116H173.511V170.016H169.107V173.076ZM178.241 174.144C175.925 174.144 174.785 172.908 174.641 171.264H175.685C175.853 172.644 176.741 173.232 178.277 173.232C179.477 173.232 180.329 172.716 180.329 171.66C180.329 170.484 179.297 170.34 177.761 169.896C176.261 169.464 174.941 169.14 174.941 167.568C174.941 166.236 176.201 165.336 177.893 165.336C179.897 165.336 181.001 166.344 181.241 167.808H180.233C180.053 166.716 179.165 166.248 177.893 166.248C176.777 166.248 175.985 166.728 175.985 167.544C175.985 168.456 176.921 168.696 178.205 169.044C179.861 169.5 181.373 169.86 181.373 171.66C181.373 173.208 180.065 174.144 178.241 174.144ZM183.497 165.48V174H182.477V165.48H183.497ZM188.577 174.144C186.165 174.144 184.653 172.26 184.653 169.74C184.653 167.22 186.213 165.336 188.697 165.336C190.677 165.336 191.889 166.524 192.249 168.06H191.193C190.917 167.004 190.017 166.26 188.697 166.26C186.777 166.26 185.709 167.772 185.709 169.74C185.709 171.708 186.777 173.22 188.697 173.22C190.293 173.22 191.241 172.14 191.241 170.76V170.4H188.457V169.5H192.261V174H191.301V172.536C190.893 173.508 189.909 174.144 188.577 174.144ZM199.536 165.48H200.556V174H199.212L194.712 166.728V174H193.692V165.48H195.036L199.536 172.752V165.48Z" fill="black"/>
<path d="M168.384 220.48V229H167.364V221.56L164.652 229H163.644L160.932 221.56V229H159.912V220.48H161.532L164.148 227.74L166.764 220.48H168.384ZM173.585 229.144C171.101 229.144 169.541 227.26 169.541 224.74C169.541 222.22 171.101 220.336 173.585 220.336C176.069 220.336 177.629 222.22 177.629 224.74C177.629 227.26 176.069 229.144 173.585 229.144ZM173.585 228.22C175.505 228.22 176.573 226.708 176.573 224.74C176.573 222.772 175.505 221.26 173.585 221.26C171.665 221.26 170.597 222.772 170.597 224.74C170.597 226.708 171.665 228.22 173.585 228.22ZM184.624 220.48H185.644V229H184.3L179.8 221.728V229H178.78V220.48H180.124L184.624 227.752V220.48ZM193.271 220.48V221.416H190.415V229H189.395V221.416H186.527V220.48H193.271ZM197.695 220.48C199.351 220.48 200.443 221.368 200.443 222.724C200.443 223.864 199.711 224.632 198.559 224.812C199.663 224.98 200.059 225.652 200.179 226.948C200.275 228.028 200.527 228.592 200.767 229H199.615C199.447 228.604 199.243 228.124 199.135 226.912C199.027 225.664 198.595 225.244 197.299 225.244H195.175V229H194.155V220.48H197.695ZM197.419 224.356C198.715 224.356 199.399 223.852 199.399 222.88C199.399 221.896 198.715 221.404 197.419 221.404H195.175V224.356H197.419ZM207.106 218.56L205.306 219.94H204.346L205.606 218.56H207.106ZM202.846 228.076H207.79V229H201.79V220.48H207.73V221.404H202.846V224.116H207.25V225.016H202.846V228.076ZM214.538 229L213.71 226.636H209.978L209.138 229H208.082L211.202 220.48H212.522L215.642 229H214.538ZM210.278 225.76H213.398L211.838 221.344L210.278 225.76ZM217.447 228.064H222.067V229H216.427V220.48H217.447V228.064ZM228.613 229L227.785 226.636H224.053L223.213 229H222.157L225.277 220.48H226.597L229.717 229H228.613ZM224.353 225.76H227.473L225.913 221.344L224.353 225.76ZM231.522 220.48V229H230.502V220.48H231.522ZM236.146 229.144C233.83 229.144 232.69 227.908 232.546 226.264H233.59C233.758 227.644 234.646 228.232 236.182 228.232C237.382 228.232 238.234 227.716 238.234 226.66C238.234 225.484 237.202 225.34 235.666 224.896C234.166 224.464 232.846 224.14 232.846 222.568C232.846 221.236 234.106 220.336 235.798 220.336C237.802 220.336 238.906 221.344 239.146 222.808H238.138C237.958 221.716 237.07 221.248 235.798 221.248C234.682 221.248 233.89 221.728 233.89 222.544C233.89 223.456 234.826 223.696 236.11 224.044C237.766 224.5 239.278 224.86 239.278 226.66C239.278 228.208 237.97 229.144 236.146 229.144Z" fill="black"/>
<path d="M270.41 163.144C268.094 163.144 266.954 161.908 266.81 160.264H267.854C268.022 161.644 268.91 162.232 270.446 162.232C271.646 162.232 272.498 161.716 272.498 160.66C272.498 159.484 271.466 159.34 269.93 158.896C268.43 158.464 267.11 158.14 267.11 156.568C267.11 155.236 268.37 154.336 270.062 154.336C272.066 154.336 273.17 155.344 273.41 156.808H272.402C272.222 155.716 271.334 155.248 270.062 155.248C268.946 155.248 268.154 155.728 268.154 156.544C268.154 157.456 269.09 157.696 270.374 158.044C272.03 158.5 273.542 158.86 273.542 160.66C273.542 162.208 272.234 163.144 270.41 163.144ZM280.295 154.48V155.416H277.439V163H276.419V155.416H273.551V154.48H280.295ZM284.359 163.144C282.523 163.144 281.107 162.196 281.107 160.144V154.48H282.127V160.036C282.127 161.476 283.003 162.22 284.359 162.22C285.715 162.22 286.591 161.476 286.591 160.036V154.48H287.611V160.144C287.611 162.196 286.195 163.144 284.359 163.144ZM292.263 154.48C294.843 154.48 296.079 156.22 296.079 158.74C296.079 161.26 294.843 163 292.263 163H289.119V154.48H292.263ZM292.143 162.076C294.123 162.076 295.023 160.72 295.023 158.74C295.023 156.76 294.123 155.404 292.143 155.404H290.139V162.076H292.143ZM298.277 154.48V163H297.257V154.48H298.277ZM303.477 163.144C300.993 163.144 299.433 161.26 299.433 158.74C299.433 156.22 300.993 154.336 303.477 154.336C305.961 154.336 307.521 156.22 307.521 158.74C307.521 161.26 305.961 163.144 303.477 163.144ZM303.477 162.22C305.397 162.22 306.465 160.708 306.465 158.74C306.465 156.772 305.397 155.26 303.477 155.26C301.557 155.26 300.489 156.772 300.489 158.74C300.489 160.708 301.557 162.22 303.477 162.22Z" fill="black"/>
<path d="M270.41 207.144C268.094 207.144 266.954 205.908 266.81 204.264H267.854C268.022 205.644 268.91 206.232 270.446 206.232C271.646 206.232 272.498 205.716 272.498 204.66C272.498 203.484 271.466 203.34 269.93 202.896C268.43 202.464 267.11 202.14 267.11 200.568C267.11 199.236 268.37 198.336 270.062 198.336C272.066 198.336 273.17 199.344 273.41 200.808H272.402C272.222 199.716 271.334 199.248 270.062 199.248C268.946 199.248 268.154 199.728 268.154 200.544C268.154 201.456 269.09 201.696 270.374 202.044C272.03 202.5 273.542 202.86 273.542 204.66C273.542 206.208 272.234 207.144 270.41 207.144ZM280.295 198.48V199.416H277.439V207H276.419V199.416H273.551V198.48H280.295ZM284.359 207.144C282.523 207.144 281.107 206.196 281.107 204.144V198.48H282.127V204.036C282.127 205.476 283.003 206.22 284.359 206.22C285.715 206.22 286.591 205.476 286.591 204.036V198.48H287.611V204.144C287.611 206.196 286.195 207.144 284.359 207.144ZM292.263 198.48C294.843 198.48 296.079 200.22 296.079 202.74C296.079 205.26 294.843 207 292.263 207H289.119V198.48H292.263ZM292.143 206.076C294.123 206.076 295.023 204.72 295.023 202.74C295.023 200.76 294.123 199.404 292.143 199.404H290.139V206.076H292.143ZM298.277 198.48V207H297.257V198.48H298.277ZM303.477 207.144C300.993 207.144 299.433 205.26 299.433 202.74C299.433 200.22 300.993 198.336 303.477 198.336C305.961 198.336 307.521 200.22 307.521 202.74C307.521 205.26 305.961 207.144 303.477 207.144ZM303.477 206.22C305.397 206.22 306.465 204.708 306.465 202.74C306.465 200.772 305.397 199.26 303.477 199.26C301.557 199.26 300.489 200.772 300.489 202.74C300.489 204.708 301.557 206.22 303.477 206.22Z" fill="black"/>
<path d="M269.592 209.48C272.172 209.48 273.408 211.22 273.408 213.74C273.408 216.26 272.172 218 269.592 218H266.448V209.48H269.592ZM269.472 217.076C271.452 217.076 272.352 215.72 272.352 213.74C272.352 211.76 271.452 210.404 269.472 210.404H267.468V217.076H269.472ZM275.643 217.076H280.587V218H274.587V209.48H280.527V210.404H275.643V213.116H280.047V214.016H275.643V217.076ZM284.777 218.144C282.461 218.144 281.321 216.908 281.177 215.264H282.221C282.389 216.644 283.277 217.232 284.813 217.232C286.013 217.232 286.865 216.716 286.865 215.66C286.865 214.484 285.833 214.34 284.297 213.896C282.797 213.464 281.477 213.14 281.477 211.568C281.477 210.236 282.737 209.336 284.429 209.336C286.433 209.336 287.537 210.344 287.777 211.808H286.769C286.589 210.716 285.701 210.248 284.429 210.248C283.313 210.248 282.521 210.728 282.521 211.544C282.521 212.456 283.457 212.696 284.741 213.044C286.397 213.5 287.909 213.86 287.909 215.66C287.909 217.208 286.601 218.144 284.777 218.144ZM290.033 209.48V218H289.013V209.48H290.033ZM295.113 218.144C292.701 218.144 291.189 216.26 291.189 213.74C291.189 211.22 292.749 209.336 295.233 209.336C297.213 209.336 298.425 210.524 298.785 212.06H297.729C297.453 211.004 296.553 210.26 295.233 210.26C293.313 210.26 292.245 211.772 292.245 213.74C292.245 215.708 293.313 217.22 295.233 217.22C296.829 217.22 297.777 216.14 297.777 214.76V214.4H294.993V213.5H298.797V218H297.837V216.536C297.429 217.508 296.445 218.144 295.113 218.144ZM306.072 209.48H307.092V218H305.748L301.248 210.728V218H300.228V209.48H301.572L306.072 216.752V209.48Z" fill="black"/>
<path d="M236.675 187.48V196H235.655V188.56L232.943 196H231.935L229.223 188.56V196H228.203V187.48H229.823L232.439 194.74L235.055 187.48H236.675ZM241.875 196.144C239.391 196.144 237.831 194.26 237.831 191.74C237.831 189.22 239.391 187.336 241.875 187.336C244.359 187.336 245.919 189.22 245.919 191.74C245.919 194.26 244.359 196.144 241.875 196.144ZM241.875 195.22C243.795 195.22 244.863 193.708 244.863 191.74C244.863 189.772 243.795 188.26 241.875 188.26C239.955 188.26 238.887 189.772 238.887 191.74C238.887 193.708 239.955 195.22 241.875 195.22ZM252.914 187.48H253.934V196H252.59L248.09 188.728V196H247.07V187.48H248.414L252.914 194.752V187.48ZM261.562 187.48V188.416H258.706V196H257.686V188.416H254.818V187.48H261.562ZM265.986 187.48C267.642 187.48 268.734 188.368 268.734 189.724C268.734 190.864 268.002 191.632 266.85 191.812C267.954 191.98 268.35 192.652 268.47 193.948C268.566 195.028 268.818 195.592 269.058 196H267.906C267.738 195.604 267.534 195.124 267.426 193.912C267.318 192.664 266.886 192.244 265.59 192.244H263.466V196H262.446V187.48H265.986ZM265.71 191.356C267.006 191.356 267.69 190.852 267.69 189.88C267.69 188.896 267.006 188.404 265.71 188.404H263.466V191.356H265.71ZM275.397 185.56L273.597 186.94H272.637L273.897 185.56H275.397ZM271.137 195.076H276.081V196H270.081V187.48H276.021V188.404H271.137V191.116H275.541V192.016H271.137V195.076ZM282.829 196L282.001 193.636H278.269L277.429 196H276.373L279.493 187.48H280.813L283.933 196H282.829ZM278.569 192.76H281.689L280.129 188.344L278.569 192.76ZM285.738 195.064H290.358V196H284.718V187.48H285.738V195.064ZM296.903 196L296.075 193.636H292.343L291.503 196H290.447L293.567 187.48H294.887L298.007 196H296.903ZM292.643 192.76H295.763L294.203 188.344L292.643 192.76ZM299.813 187.48V196H298.793V187.48H299.813ZM304.436 196.144C302.12 196.144 300.98 194.908 300.836 193.264H301.88C302.048 194.644 302.936 195.232 304.472 195.232C305.672 195.232 306.524 194.716 306.524 193.66C306.524 192.484 305.492 192.34 303.956 191.896C302.456 191.464 301.136 191.14 301.136 189.568C301.136 188.236 302.396 187.336 304.088 187.336C306.092 187.336 307.196 188.344 307.436 189.808H306.428C306.248 188.716 305.36 188.248 304.088 188.248C302.972 188.248 302.18 188.728 302.18 189.544C302.18 190.456 303.116 190.696 304.4 191.044C306.056 191.5 307.568 191.86 307.568 193.66C307.568 195.208 306.26 196.144 304.436 196.144Z" fill="black"/>
<path d="M5.448 235.488C6.66 235.596 7.512 236.328 7.512 237.528C7.512 239.04 6.456 240 4.728 240H0.912V231.48H4.548C6.108 231.48 7.164 232.284 7.164 233.64C7.164 234.696 6.396 235.344 5.448 235.488ZM4.548 232.404H1.932V235.14H4.548C5.58 235.14 6.12 234.588 6.12 233.748C6.12 232.908 5.58 232.404 4.548 232.404ZM4.728 239.076C5.832 239.076 6.456 238.512 6.456 237.528C6.456 236.568 5.796 236.016 4.668 236.016H1.932V239.076H4.728ZM9.21675 239.064H14.5328V240H8.00475V239.064L13.2008 232.416H8.24475V231.48H14.4128V232.416L9.21675 239.064ZM18.962 240.144C16.478 240.144 14.918 238.26 14.918 235.74C14.918 233.22 16.478 231.336 18.962 231.336C21.446 231.336 23.006 233.22 23.006 235.74C23.006 238.26 21.446 240.144 18.962 240.144ZM18.962 239.22C20.882 239.22 21.95 237.708 21.95 235.74C21.95 233.772 20.882 232.26 18.962 232.26C17.042 232.26 15.974 233.772 15.974 235.74C15.974 237.708 17.042 239.22 18.962 239.22ZM25.1768 231.48V240H24.1568V231.48H25.1768ZM32.6085 231.48H33.6285V240H32.2845L27.7845 232.728V240H26.7645V231.48H28.1085L32.6085 238.752V231.48ZM38.7001 240.144C36.2881 240.144 34.7761 238.26 34.7761 235.74C34.7761 233.22 36.3361 231.336 38.8201 231.336C40.8001 231.336 42.0121 232.524 42.3721 234.06H41.3161C41.0401 233.004 40.1401 232.26 38.8201 232.26C36.9001 232.26 35.8321 233.772 35.8321 235.74C35.8321 237.708 36.9001 239.22 38.8201 239.22C40.4161 239.22 41.3641 238.14 41.3641 236.76V236.4H38.5801V235.5H42.3841V240H41.4241V238.536C41.0161 239.508 40.0321 240.144 38.7001 240.144Z" fill="black"/>
<path d="M5.448 279.488C6.66 279.596 7.512 280.328 7.512 281.528C7.512 283.04 6.456 284 4.728 284H0.912V275.48H4.548C6.108 275.48 7.164 276.284 7.164 277.64C7.164 278.696 6.396 279.344 5.448 279.488ZM4.548 276.404H1.932V279.14H4.548C5.58 279.14 6.12 278.588 6.12 277.748C6.12 276.908 5.58 276.404 4.548 276.404ZM4.728 283.076C5.832 283.076 6.456 282.512 6.456 281.528C6.456 280.568 5.796 280.016 4.668 280.016H1.932V283.076H4.728ZM9.21675 283.064H14.5328V284H8.00475V283.064L13.2008 276.416H8.24475V275.48H14.4128V276.416L9.21675 283.064ZM18.962 284.144C16.478 284.144 14.918 282.26 14.918 279.74C14.918 277.22 16.478 275.336 18.962 275.336C21.446 275.336 23.006 277.22 23.006 279.74C23.006 282.26 21.446 284.144 18.962 284.144ZM18.962 283.22C20.882 283.22 21.95 281.708 21.95 279.74C21.95 277.772 20.882 276.26 18.962 276.26C17.042 276.26 15.974 277.772 15.974 279.74C15.974 281.708 17.042 283.22 18.962 283.22ZM25.1768 275.48V284H24.1568V275.48H25.1768ZM32.6085 275.48H33.6285V284H32.2845L27.7845 276.728V284H26.7645V275.48H28.1085L32.6085 282.752V275.48ZM38.7001 284.144C36.2881 284.144 34.7761 282.26 34.7761 279.74C34.7761 277.22 36.3361 275.336 38.8201 275.336C40.8001 275.336 42.0121 276.524 42.3721 278.06H41.3161C41.0401 277.004 40.1401 276.26 38.8201 276.26C36.9001 276.26 35.8321 277.772 35.8321 279.74C35.8321 281.708 36.9001 283.22 38.8201 283.22C40.4161 283.22 41.3641 282.14 41.3641 280.76V280.4H38.5801V279.5H42.3841V284H41.4241V282.536C41.0161 283.508 40.0321 284.144 38.7001 284.144Z" fill="black"/>
<path d="M4.056 286.48C6.636 286.48 7.872 288.22 7.872 290.74C7.872 293.26 6.636 295 4.056 295H0.912V286.48H4.056ZM3.936 294.076C5.916 294.076 6.816 292.72 6.816 290.74C6.816 288.76 5.916 287.404 3.936 287.404H1.932V294.076H3.936ZM10.1069 294.076H15.0509V295H9.05091V286.48H14.9909V287.404H10.1069V290.116H14.5109V291.016H10.1069V294.076Z" fill="black"/>
<path d="M4.404 262.144C1.992 262.144 0.48 260.26 0.48 257.74C0.48 255.22 2.04 253.336 4.524 253.336C6.504 253.336 7.716 254.524 8.076 256.06H7.02C6.744 255.004 5.844 254.26 4.524 254.26C2.604 254.26 1.536 255.772 1.536 257.74C1.536 259.708 2.604 261.22 4.524 261.22C6.12 261.22 7.068 260.14 7.068 258.76V258.4H4.284V257.5H8.088V262H7.128V260.536C6.72 261.508 5.736 262.144 4.404 262.144ZM13.0597 253.48C14.7157 253.48 15.8077 254.368 15.8077 255.724C15.8077 256.864 15.0757 257.632 13.9237 257.812C15.0277 257.98 15.4237 258.652 15.5437 259.948C15.6397 261.028 15.8917 261.592 16.1317 262H14.9797C14.8117 261.604 14.6077 261.124 14.4997 259.912C14.3917 258.664 13.9597 258.244 12.6637 258.244H10.5397V262H9.51966V253.48H13.0597ZM12.7837 257.356C14.0797 257.356 14.7637 256.852 14.7637 255.88C14.7637 254.896 14.0797 254.404 12.7837 254.404H10.5397V257.356H12.7837ZM22.8067 262L21.9787 259.636H18.2467L17.4067 262H16.3507L19.4707 253.48H20.7907L23.9107 262H22.8067ZM18.5467 258.76H21.6667L20.1067 254.344L18.5467 258.76ZM28.2239 253.48C29.8079 253.48 30.8159 254.464 30.8159 255.904C30.8159 257.344 29.8079 258.328 28.2239 258.328H25.7159V262H24.6959V253.48H28.2239ZM28.0439 257.404C29.1239 257.404 29.7719 256.9 29.7719 255.904C29.7719 254.908 29.1239 254.404 28.0439 254.404H25.7159V257.404H28.0439ZM37.3004 253.48H38.3204V262H37.3004V258.016H32.7884V262H31.7684V253.48H32.7884V257.116H37.3004V253.48ZM40.9273 253.48V262H39.9073V253.48H40.9273ZM50.651 262H49.379L48.623 261.328C47.963 261.844 47.123 262.144 46.127 262.144C43.643 262.144 42.083 260.26 42.083 257.74C42.083 255.22 43.643 253.336 46.127 253.336C48.611 253.336 50.171 255.22 50.171 257.74C50.171 258.916 49.835 259.96 49.211 260.728L50.651 262ZM46.127 261.22C46.823 261.22 47.411 261.016 47.879 260.668L45.971 258.976H47.243L48.467 260.056C48.887 259.444 49.115 258.64 49.115 257.74C49.115 255.772 48.047 254.26 46.127 254.26C44.207 254.26 43.139 255.772 43.139 257.74C43.139 259.708 44.207 261.22 46.127 261.22ZM54.5253 262.144C52.6893 262.144 51.2733 261.196 51.2733 259.144V253.48H52.2933V259.036C52.2933 260.476 53.1693 261.22 54.5253 261.22C55.8813 261.22 56.7573 260.476 56.7573 259.036V253.48H57.7773V259.144C57.7773 261.196 56.3613 262.144 54.5253 262.144ZM60.341 261.076H65.285V262H59.285V253.48H65.225V254.404H60.341V257.116H64.745V258.016H60.341V261.076Z" fill="black"/>
<path d="M137.523 242.48C140.103 242.48 141.339 244.22 141.339 246.74C141.339 249.26 140.103 251 137.523 251H134.379V242.48H137.523ZM137.403 250.076C139.383 250.076 140.283 248.72 140.283 246.74C140.283 244.76 139.383 243.404 137.403 243.404H135.399V250.076H137.403ZM143.573 250.076H148.517V251H142.517V242.48H148.457V243.404H143.573V246.116H147.977V247.016H143.573V250.076Z" fill="black"/>
<path d="M87.6365 306.144C85.2245 306.144 83.7125 304.26 83.7125 301.74C83.7125 299.22 85.2725 297.336 87.7565 297.336C89.7365 297.336 90.9485 298.524 91.3085 300.06H90.2525C89.9765 299.004 89.0765 298.26 87.7565 298.26C85.8365 298.26 84.7685 299.772 84.7685 301.74C84.7685 303.708 85.8365 305.22 87.7565 305.22C89.3525 305.22 90.3005 304.14 90.3005 302.76V302.4H87.5165V301.5H91.3205V306H90.3605V304.536C89.9525 305.508 88.9685 306.144 87.6365 306.144ZM96.2922 297.48C97.9482 297.48 99.0402 298.368 99.0402 299.724C99.0402 300.864 98.3082 301.632 97.1562 301.812C98.2602 301.98 98.6562 302.652 98.7762 303.948C98.8722 305.028 99.1242 305.592 99.3642 306H98.2122C98.0442 305.604 97.8402 305.124 97.7322 303.912C97.6242 302.664 97.1922 302.244 95.8962 302.244H93.7722V306H92.7522V297.48H96.2922ZM96.0162 301.356C97.3122 301.356 97.9962 300.852 97.9962 299.88C97.9962 298.896 97.3122 298.404 96.0162 298.404H93.7722V301.356H96.0162ZM106.039 306L105.211 303.636H101.479L100.639 306H99.5832L102.703 297.48H104.023L107.143 306H106.039ZM101.779 302.76H104.899L103.339 298.344L101.779 302.76ZM111.456 297.48C113.04 297.48 114.048 298.464 114.048 299.904C114.048 301.344 113.04 302.328 111.456 302.328H108.948V306H107.928V297.48H111.456ZM111.276 301.404C112.356 301.404 113.004 300.9 113.004 299.904C113.004 298.908 112.356 298.404 111.276 298.404H108.948V301.404H111.276ZM120.533 297.48H121.553V306H120.533V302.016H116.021V306H115.001V297.48H116.021V301.116H120.533V297.48ZM124.16 297.48V306H123.14V297.48H124.16ZM133.883 306H132.611L131.855 305.328C131.195 305.844 130.355 306.144 129.359 306.144C126.875 306.144 125.315 304.26 125.315 301.74C125.315 299.22 126.875 297.336 129.359 297.336C131.843 297.336 133.403 299.22 133.403 301.74C133.403 302.916 133.067 303.96 132.443 304.728L133.883 306ZM129.359 305.22C130.055 305.22 130.643 305.016 131.111 304.668L129.203 302.976H130.475L131.699 304.056C132.119 303.444 132.347 302.64 132.347 301.74C132.347 299.772 131.279 298.26 129.359 298.26C127.439 298.26 126.371 299.772 126.371 301.74C126.371 303.708 127.439 305.22 129.359 305.22ZM137.758 306.144C135.922 306.144 134.506 305.196 134.506 303.144V297.48H135.526V303.036C135.526 304.476 136.402 305.22 137.758 305.22C139.114 305.22 139.99 304.476 139.99 303.036V297.48H141.01V303.144C141.01 305.196 139.594 306.144 137.758 306.144ZM143.573 305.076H148.517V306H142.517V297.48H148.457V298.404H143.573V301.116H147.977V302.016H143.573V305.076Z" fill="black"/>
<path d="M163.056 242.48C165.636 242.48 166.872 244.22 166.872 246.74C166.872 249.26 165.636 251 163.056 251H159.912V242.48H163.056ZM162.936 250.076C164.916 250.076 165.816 248.72 165.816 246.74C165.816 244.76 164.916 243.404 162.936 243.404H160.932V250.076H162.936ZM169.107 250.076H174.051V251H168.051V242.48H173.991V243.404H169.107V246.116H173.511V247.016H169.107V250.076ZM178.241 251.144C175.925 251.144 174.785 249.908 174.641 248.264H175.685C175.853 249.644 176.741 250.232 178.277 250.232C179.477 250.232 180.329 249.716 180.329 248.66C180.329 247.484 179.297 247.34 177.761 246.896C176.261 246.464 174.941 246.14 174.941 244.568C174.941 243.236 176.201 242.336 177.893 242.336C179.897 242.336 181.001 243.344 181.241 244.808H180.233C180.053 243.716 179.165 243.248 177.893 243.248C176.777 243.248 175.985 243.728 175.985 244.544C175.985 245.456 176.921 245.696 178.205 246.044C179.861 246.5 181.373 246.86 181.373 248.66C181.373 250.208 180.065 251.144 178.241 251.144ZM183.497 242.48V251H182.477V242.48H183.497ZM188.577 251.144C186.165 251.144 184.653 249.26 184.653 246.74C184.653 244.22 186.213 242.336 188.697 242.336C190.677 242.336 191.889 243.524 192.249 245.06H191.193C190.917 244.004 190.017 243.26 188.697 243.26C186.777 243.26 185.709 244.772 185.709 246.74C185.709 248.708 186.777 250.22 188.697 250.22C190.293 250.22 191.241 249.14 191.241 247.76V247.4H188.457V246.5H192.261V251H191.301V249.536C190.893 250.508 189.909 251.144 188.577 251.144ZM199.536 242.48H200.556V251H199.212L194.712 243.728V251H193.692V242.48H195.036L199.536 249.752V242.48Z" fill="black"/>
<path d="M168.384 297.48V306H167.364V298.56L164.652 306H163.644L160.932 298.56V306H159.912V297.48H161.532L164.148 304.74L166.764 297.48H168.384ZM173.585 306.144C171.101 306.144 169.541 304.26 169.541 301.74C169.541 299.22 171.101 297.336 173.585 297.336C176.069 297.336 177.629 299.22 177.629 301.74C177.629 304.26 176.069 306.144 173.585 306.144ZM173.585 305.22C175.505 305.22 176.573 303.708 176.573 301.74C176.573 299.772 175.505 298.26 173.585 298.26C171.665 298.26 170.597 299.772 170.597 301.74C170.597 303.708 171.665 305.22 173.585 305.22ZM184.624 297.48H185.644V306H184.3L179.8 298.728V306H178.78V297.48H180.124L184.624 304.752V297.48ZM193.271 297.48V298.416H190.415V306H189.395V298.416H186.527V297.48H193.271ZM197.695 297.48C199.351 297.48 200.443 298.368 200.443 299.724C200.443 300.864 199.711 301.632 198.559 301.812C199.663 301.98 200.059 302.652 200.179 303.948C200.275 305.028 200.527 305.592 200.767 306H199.615C199.447 305.604 199.243 305.124 199.135 303.912C199.027 302.664 198.595 302.244 197.299 302.244H195.175V306H194.155V297.48H197.695ZM197.419 301.356C198.715 301.356 199.399 300.852 199.399 299.88C199.399 298.896 198.715 298.404 197.419 298.404H195.175V301.356H197.419ZM207.106 295.56L205.306 296.94H204.346L205.606 295.56H207.106ZM202.846 305.076H207.79V306H201.79V297.48H207.73V298.404H202.846V301.116H207.25V302.016H202.846V305.076ZM214.538 306L213.71 303.636H209.978L209.138 306H208.082L211.202 297.48H212.522L215.642 306H214.538ZM210.278 302.76H213.398L211.838 298.344L210.278 302.76ZM217.447 305.064H222.067V306H216.427V297.48H217.447V305.064ZM228.613 306L227.785 303.636H224.053L223.213 306H222.157L225.277 297.48H226.597L229.717 306H228.613ZM224.353 302.76H227.473L225.913 298.344L224.353 302.76ZM231.522 297.48V306H230.502V297.48H231.522ZM236.146 306.144C233.83 306.144 232.69 304.908 232.546 303.264H233.59C233.758 304.644 234.646 305.232 236.182 305.232C237.382 305.232 238.234 304.716 238.234 303.66C238.234 302.484 237.202 302.34 235.666 301.896C234.166 301.464 232.846 301.14 232.846 299.568C232.846 298.236 234.106 297.336 235.798 297.336C237.802 297.336 238.906 298.344 239.146 299.808H238.138C237.958 298.716 237.07 298.248 235.798 298.248C234.682 298.248 233.89 298.728 233.89 299.544C233.89 300.456 234.826 300.696 236.11 301.044C237.766 301.5 239.278 301.86 239.278 303.66C239.278 305.208 237.97 306.144 236.146 306.144Z" fill="black"/>
<path d="M270.41 240.144C268.094 240.144 266.954 238.908 266.81 237.264H267.854C268.022 238.644 268.91 239.232 270.446 239.232C271.646 239.232 272.498 238.716 272.498 237.66C272.498 236.484 271.466 236.34 269.93 235.896C268.43 235.464 267.11 235.14 267.11 233.568C267.11 232.236 268.37 231.336 270.062 231.336C272.066 231.336 273.17 232.344 273.41 233.808H272.402C272.222 232.716 271.334 232.248 270.062 232.248C268.946 232.248 268.154 232.728 268.154 233.544C268.154 234.456 269.09 234.696 270.374 235.044C272.03 235.5 273.542 235.86 273.542 237.66C273.542 239.208 272.234 240.144 270.41 240.144ZM280.295 231.48V232.416H277.439V240H276.419V232.416H273.551V231.48H280.295ZM284.359 240.144C282.523 240.144 281.107 239.196 281.107 237.144V231.48H282.127V237.036C282.127 238.476 283.003 239.22 284.359 239.22C285.715 239.22 286.591 238.476 286.591 237.036V231.48H287.611V237.144C287.611 239.196 286.195 240.144 284.359 240.144ZM292.263 231.48C294.843 231.48 296.079 233.22 296.079 235.74C296.079 238.26 294.843 240 292.263 240H289.119V231.48H292.263ZM292.143 239.076C294.123 239.076 295.023 237.72 295.023 235.74C295.023 233.76 294.123 232.404 292.143 232.404H290.139V239.076H292.143ZM298.277 231.48V240H297.257V231.48H298.277ZM303.477 240.144C300.993 240.144 299.433 238.26 299.433 235.74C299.433 233.22 300.993 231.336 303.477 231.336C305.961 231.336 307.521 233.22 307.521 235.74C307.521 238.26 305.961 240.144 303.477 240.144ZM303.477 239.22C305.397 239.22 306.465 237.708 306.465 235.74C306.465 233.772 305.397 232.26 303.477 232.26C301.557 232.26 300.489 233.772 300.489 235.74C300.489 237.708 301.557 239.22 303.477 239.22Z" fill="black"/>
<path d="M270.41 284.144C268.094 284.144 266.954 282.908 266.81 281.264H267.854C268.022 282.644 268.91 283.232 270.446 283.232C271.646 283.232 272.498 282.716 272.498 281.66C272.498 280.484 271.466 280.34 269.93 279.896C268.43 279.464 267.11 279.14 267.11 277.568C267.11 276.236 268.37 275.336 270.062 275.336C272.066 275.336 273.17 276.344 273.41 277.808H272.402C272.222 276.716 271.334 276.248 270.062 276.248C268.946 276.248 268.154 276.728 268.154 277.544C268.154 278.456 269.09 278.696 270.374 279.044C272.03 279.5 273.542 279.86 273.542 281.66C273.542 283.208 272.234 284.144 270.41 284.144ZM280.295 275.48V276.416H277.439V284H276.419V276.416H273.551V275.48H280.295ZM284.359 284.144C282.523 284.144 281.107 283.196 281.107 281.144V275.48H282.127V281.036C282.127 282.476 283.003 283.22 284.359 283.22C285.715 283.22 286.591 282.476 286.591 281.036V275.48H287.611V281.144C287.611 283.196 286.195 284.144 284.359 284.144ZM292.263 275.48C294.843 275.48 296.079 277.22 296.079 279.74C296.079 282.26 294.843 284 292.263 284H289.119V275.48H292.263ZM292.143 283.076C294.123 283.076 295.023 281.72 295.023 279.74C295.023 277.76 294.123 276.404 292.143 276.404H290.139V283.076H292.143ZM298.277 275.48V284H297.257V275.48H298.277ZM303.477 284.144C300.993 284.144 299.433 282.26 299.433 279.74C299.433 277.22 300.993 275.336 303.477 275.336C305.961 275.336 307.521 277.22 307.521 279.74C307.521 282.26 305.961 284.144 303.477 284.144ZM303.477 283.22C305.397 283.22 306.465 281.708 306.465 279.74C306.465 277.772 305.397 276.26 303.477 276.26C301.557 276.26 300.489 277.772 300.489 279.74C300.489 281.708 301.557 283.22 303.477 283.22Z" fill="black"/>
<path d="M269.592 286.48C272.172 286.48 273.408 288.22 273.408 290.74C273.408 293.26 272.172 295 269.592 295H266.448V286.48H269.592ZM269.472 294.076C271.452 294.076 272.352 292.72 272.352 290.74C272.352 288.76 271.452 287.404 269.472 287.404H267.468V294.076H269.472ZM275.643 294.076H280.587V295H274.587V286.48H280.527V287.404H275.643V290.116H280.047V291.016H275.643V294.076ZM284.777 295.144C282.461 295.144 281.321 293.908 281.177 292.264H282.221C282.389 293.644 283.277 294.232 284.813 294.232C286.013 294.232 286.865 293.716 286.865 292.66C286.865 291.484 285.833 291.34 284.297 290.896C282.797 290.464 281.477 290.14 281.477 288.568C281.477 287.236 282.737 286.336 284.429 286.336C286.433 286.336 287.537 287.344 287.777 288.808H286.769C286.589 287.716 285.701 287.248 284.429 287.248C283.313 287.248 282.521 287.728 282.521 288.544C282.521 289.456 283.457 289.696 284.741 290.044C286.397 290.5 287.909 290.86 287.909 292.66C287.909 294.208 286.601 295.144 284.777 295.144ZM290.033 286.48V295H289.013V286.48H290.033ZM295.113 295.144C292.701 295.144 291.189 293.26 291.189 290.74C291.189 288.22 292.749 286.336 295.233 286.336C297.213 286.336 298.425 287.524 298.785 289.06H297.729C297.453 288.004 296.553 287.26 295.233 287.26C293.313 287.26 292.245 288.772 292.245 290.74C292.245 292.708 293.313 294.22 295.233 294.22C296.829 294.22 297.777 293.14 297.777 291.76V291.4H294.993V290.5H298.797V295H297.837V293.536C297.429 294.508 296.445 295.144 295.113 295.144ZM306.072 286.48H307.092V295H305.748L301.248 287.728V295H300.228V286.48H301.572L306.072 293.752V286.48Z" fill="black"/>
<path d="M236.675 264.48V273H235.655V265.56L232.943 273H231.935L229.223 265.56V273H228.203V264.48H229.823L232.439 271.74L235.055 264.48H236.675ZM241.875 273.144C239.391 273.144 237.831 271.26 237.831 268.74C237.831 266.22 239.391 264.336 241.875 264.336C244.359 264.336 245.919 266.22 245.919 268.74C245.919 271.26 244.359 273.144 241.875 273.144ZM241.875 272.22C243.795 272.22 244.863 270.708 244.863 268.74C244.863 266.772 243.795 265.26 241.875 265.26C239.955 265.26 238.887 266.772 238.887 268.74C238.887 270.708 239.955 272.22 241.875 272.22ZM252.914 264.48H253.934V273H252.59L248.09 265.728V273H247.07V264.48H248.414L252.914 271.752V264.48ZM261.562 264.48V265.416H258.706V273H257.686V265.416H254.818V264.48H261.562ZM265.986 264.48C267.642 264.48 268.734 265.368 268.734 266.724C268.734 267.864 268.002 268.632 266.85 268.812C267.954 268.98 268.35 269.652 268.47 270.948C268.566 272.028 268.818 272.592 269.058 273H267.906C267.738 272.604 267.534 272.124 267.426 270.912C267.318 269.664 266.886 269.244 265.59 269.244H263.466V273H262.446V264.48H265.986ZM265.71 268.356C267.006 268.356 267.69 267.852 267.69 266.88C267.69 265.896 267.006 265.404 265.71 265.404H263.466V268.356H265.71ZM275.397 262.56L273.597 263.94H272.637L273.897 262.56H275.397ZM271.137 272.076H276.081V273H270.081V264.48H276.021V265.404H271.137V268.116H275.541V269.016H271.137V272.076ZM282.829 273L282.001 270.636H278.269L277.429 273H276.373L279.493 264.48H280.813L283.933 273H282.829ZM278.569 269.76H281.689L280.129 265.344L278.569 269.76ZM285.738 272.064H290.358V273H284.718V264.48H285.738V272.064ZM296.903 273L296.075 270.636H292.343L291.503 273H290.447L293.567 264.48H294.887L298.007 273H296.903ZM292.643 269.76H295.763L294.203 265.344L292.643 269.76ZM299.813 264.48V273H298.793V264.48H299.813ZM304.436 273.144C302.12 273.144 300.98 271.908 300.836 270.264H301.88C302.048 271.644 302.936 272.232 304.472 272.232C305.672 272.232 306.524 271.716 306.524 270.66C306.524 269.484 305.492 269.34 303.956 268.896C302.456 268.464 301.136 268.14 301.136 266.568C301.136 265.236 302.396 264.336 304.088 264.336C306.092 264.336 307.196 265.344 307.436 266.808H306.428C306.248 265.716 305.36 265.248 304.088 265.248C302.972 265.248 302.18 265.728 302.18 266.544C302.18 267.456 303.116 267.696 304.4 268.044C306.056 268.5 307.568 268.86 307.568 270.66C307.568 272.208 306.26 273.144 304.436 273.144Z" fill="black"/>
</svg>
