<svg width="308" height="384" viewBox="0 0 308 384" fill="none" xmlns="http://www.w3.org/2000/svg">
<path d="M5.448 4.488C6.66 4.596 7.512 5.328 7.512 6.528C7.512 8.04 6.456 9 4.728 9H0.912V0.48H4.548C6.108 0.48 7.164 1.284 7.164 2.64C7.164 3.696 6.396 4.344 5.448 4.488ZM4.548 1.404H1.932V4.14H4.548C5.58 4.14 6.12 3.588 6.12 2.748C6.12 1.908 5.58 1.404 4.548 1.404ZM4.728 8.076C5.832 8.076 6.456 7.512 6.456 6.528C6.456 5.568 5.796 5.016 4.668 5.016H1.932V8.076H4.728ZM9.21675 8.064H14.5328V9H8.00475V8.064L13.2008 1.416H8.24475V0.48H14.4128V1.416L9.21675 8.064ZM18.962 9.144C16.478 9.144 14.918 7.26 14.918 4.74C14.918 2.22 16.478 0.335999 18.962 0.335999C21.446 0.335999 23.006 2.22 23.006 4.74C23.006 7.26 21.446 9.144 18.962 9.144ZM18.962 8.22C20.882 8.22 21.95 6.708 21.95 4.74C21.95 2.772 20.882 1.26 18.962 1.26C17.042 1.26 15.974 2.772 15.974 4.74C15.974 6.708 17.042 8.22 18.962 8.22ZM25.1768 0.48V9H24.1568V0.48H25.1768ZM32.6085 0.48H33.6285V9H32.2845L27.7845 1.728V9H26.7645V0.48H28.1085L32.6085 7.752V0.48ZM38.7001 9.144C36.2881 9.144 34.7761 7.26 34.7761 4.74C34.7761 2.22 36.3361 0.335999 38.8201 0.335999C40.8001 0.335999 42.0121 1.524 42.3721 3.06H41.3161C41.0401 2.004 40.1401 1.26 38.8201 1.26C36.9001 1.26 35.8321 2.772 35.8321 4.74C35.8321 6.708 36.9001 8.22 38.8201 8.22C40.4161 8.22 41.3641 7.14 41.3641 5.76V5.4H38.5801V4.5H42.3841V9H41.4241V7.536C41.0161 8.508 40.0321 9.144 38.7001 9.144Z" fill="black"/>
<path d="M5.448 48.488C6.66 48.596 7.512 49.328 7.512 50.528C7.512 52.04 6.456 53 4.728 53H0.912V44.48H4.548C6.108 44.48 7.164 45.284 7.164 46.64C7.164 47.696 6.396 48.344 5.448 48.488ZM4.548 45.404H1.932V48.14H4.548C5.58 48.14 6.12 47.588 6.12 46.748C6.12 45.908 5.58 45.404 4.548 45.404ZM4.728 52.076C5.832 52.076 6.456 51.512 6.456 50.528C6.456 49.568 5.796 49.016 4.668 49.016H1.932V52.076H4.728ZM9.21675 52.064H14.5328V53H8.00475V52.064L13.2008 45.416H8.24475V44.48H14.4128V45.416L9.21675 52.064ZM18.962 53.144C16.478 53.144 14.918 51.26 14.918 48.74C14.918 46.22 16.478 44.336 18.962 44.336C21.446 44.336 23.006 46.22 23.006 48.74C23.006 51.26 21.446 53.144 18.962 53.144ZM18.962 52.22C20.882 52.22 21.95 50.708 21.95 48.74C21.95 46.772 20.882 45.26 18.962 45.26C17.042 45.26 15.974 46.772 15.974 48.74C15.974 50.708 17.042 52.22 18.962 52.22ZM25.1768 44.48V53H24.1568V44.48H25.1768ZM32.6085 44.48H33.6285V53H32.2845L27.7845 45.728V53H26.7645V44.48H28.1085L32.6085 51.752V44.48ZM38.7001 53.144C36.2881 53.144 34.7761 51.26 34.7761 48.74C34.7761 46.22 36.3361 44.336 38.8201 44.336C40.8001 44.336 42.0121 45.524 42.3721 47.06H41.3161C41.0401 46.004 40.1401 45.26 38.8201 45.26C36.9001 45.26 35.8321 46.772 35.8321 48.74C35.8321 50.708 36.9001 52.22 38.8201 52.22C40.4161 52.22 41.3641 51.14 41.3641 49.76V49.4H38.5801V48.5H42.3841V53H41.4241V51.536C41.0161 52.508 40.0321 53.144 38.7001 53.144Z" fill="black"/>
<path d="M4.056 55.48C6.636 55.48 7.872 57.22 7.872 59.74C7.872 62.26 6.636 64 4.056 64H0.912V55.48H4.056ZM3.936 63.076C5.916 63.076 6.816 61.72 6.816 59.74C6.816 57.76 5.916 56.404 3.936 56.404H1.932V63.076H3.936ZM10.1069 63.076H15.0509V64H9.05091V55.48H14.9909V56.404H10.1069V59.116H14.5109V60.016H10.1069V63.076Z" fill="black"/>
<path d="M4.404 31.144C1.992 31.144 0.48 29.26 0.48 26.74C0.48 24.22 2.04 22.336 4.524 22.336C6.504 22.336 7.716 23.524 8.076 25.06H7.02C6.744 24.004 5.844 23.26 4.524 23.26C2.604 23.26 1.536 24.772 1.536 26.74C1.536 28.708 2.604 30.22 4.524 30.22C6.12 30.22 7.068 29.14 7.068 27.76V27.4H4.284V26.5H8.088V31H7.128V29.536C6.72 30.508 5.736 31.144 4.404 31.144ZM13.0597 22.48C14.7157 22.48 15.8077 23.368 15.8077 24.724C15.8077 25.864 15.0757 26.632 13.9237 26.812C15.0277 26.98 15.4237 27.652 15.5437 28.948C15.6397 30.028 15.8917 30.592 16.1317 31H14.9797C14.8117 30.604 14.6077 30.124 14.4997 28.912C14.3917 27.664 13.9597 27.244 12.6637 27.244H10.5397V31H9.51966V22.48H13.0597ZM12.7837 26.356C14.0797 26.356 14.7637 25.852 14.7637 24.88C14.7637 23.896 14.0797 23.404 12.7837 23.404H10.5397V26.356H12.7837ZM22.8067 31L21.9787 28.636H18.2467L17.4067 31H16.3507L19.4707 22.48H20.7907L23.9107 31H22.8067ZM18.5467 27.76H21.6667L20.1067 23.344L18.5467 27.76ZM28.2239 22.48C29.8079 22.48 30.8159 23.464 30.8159 24.904C30.8159 26.344 29.8079 27.328 28.2239 27.328H25.7159V31H24.6959V22.48H28.2239ZM28.0439 26.404C29.1239 26.404 29.7719 25.9 29.7719 24.904C29.7719 23.908 29.1239 23.404 28.0439 23.404H25.7159V26.404H28.0439ZM37.3004 22.48H38.3204V31H37.3004V27.016H32.7884V31H31.7684V22.48H32.7884V26.116H37.3004V22.48ZM40.9273 22.48V31H39.9073V22.48H40.9273ZM50.651 31H49.379L48.623 30.328C47.963 30.844 47.123 31.144 46.127 31.144C43.643 31.144 42.083 29.26 42.083 26.74C42.083 24.22 43.643 22.336 46.127 22.336C48.611 22.336 50.171 24.22 50.171 26.74C50.171 27.916 49.835 28.96 49.211 29.728L50.651 31ZM46.127 30.22C46.823 30.22 47.411 30.016 47.879 29.668L45.971 27.976H47.243L48.467 29.056C48.887 28.444 49.115 27.64 49.115 26.74C49.115 24.772 48.047 23.26 46.127 23.26C44.207 23.26 43.139 24.772 43.139 26.74C43.139 28.708 44.207 30.22 46.127 30.22ZM54.5253 31.144C52.6893 31.144 51.2733 30.196 51.2733 28.144V22.48H52.2933V28.036C52.2933 29.476 53.1693 30.22 54.5253 30.22C55.8813 30.22 56.7573 29.476 56.7573 28.036V22.48H57.7773V28.144C57.7773 30.196 56.3613 31.144 54.5253 31.144ZM60.341 30.076H65.285V31H59.285V22.48H65.225V23.404H60.341V26.116H64.745V27.016H60.341V30.076Z" fill="black"/>
<path d="M137.523 11.48C140.103 11.48 141.339 13.22 141.339 15.74C141.339 18.26 140.103 20 137.523 20H134.379V11.48H137.523ZM137.403 19.076C139.383 19.076 140.283 17.72 140.283 15.74C140.283 13.76 139.383 12.404 137.403 12.404H135.399V19.076H137.403ZM143.573 19.076H148.517V20H142.517V11.48H148.457V12.404H143.573V15.116H147.977V16.016H143.573V19.076Z" fill="black"/>
<path d="M87.6365 75.144C85.2245 75.144 83.7125 73.26 83.7125 70.74C83.7125 68.22 85.2725 66.336 87.7565 66.336C89.7365 66.336 90.9485 67.524 91.3085 69.06H90.2525C89.9765 68.004 89.0765 67.26 87.7565 67.26C85.8365 67.26 84.7685 68.772 84.7685 70.74C84.7685 72.708 85.8365 74.22 87.7565 74.22C89.3525 74.22 90.3005 73.14 90.3005 71.76V71.4H87.5165V70.5H91.3205V75H90.3605V73.536C89.9525 74.508 88.9685 75.144 87.6365 75.144ZM96.2922 66.48C97.9482 66.48 99.0402 67.368 99.0402 68.724C99.0402 69.864 98.3082 70.632 97.1562 70.812C98.2602 70.98 98.6562 71.652 98.7762 72.948C98.8722 74.028 99.1242 74.592 99.3642 75H98.2122C98.0442 74.604 97.8402 74.124 97.7322 72.912C97.6242 71.664 97.1922 71.244 95.8962 71.244H93.7722V75H92.7522V66.48H96.2922ZM96.0162 70.356C97.3122 70.356 97.9962 69.852 97.9962 68.88C97.9962 67.896 97.3122 67.404 96.0162 67.404H93.7722V70.356H96.0162ZM106.039 75L105.211 72.636H101.479L100.639 75H99.5832L102.703 66.48H104.023L107.143 75H106.039ZM101.779 71.76H104.899L103.339 67.344L101.779 71.76ZM111.456 66.48C113.04 66.48 114.048 67.464 114.048 68.904C114.048 70.344 113.04 71.328 111.456 71.328H108.948V75H107.928V66.48H111.456ZM111.276 70.404C112.356 70.404 113.004 69.9 113.004 68.904C113.004 67.908 112.356 67.404 111.276 67.404H108.948V70.404H111.276ZM120.533 66.48H121.553V75H120.533V71.016H116.021V75H115.001V66.48H116.021V70.116H120.533V66.48ZM124.16 66.48V75H123.14V66.48H124.16ZM133.883 75H132.611L131.855 74.328C131.195 74.844 130.355 75.144 129.359 75.144C126.875 75.144 125.315 73.26 125.315 70.74C125.315 68.22 126.875 66.336 129.359 66.336C131.843 66.336 133.403 68.22 133.403 70.74C133.403 71.916 133.067 72.96 132.443 73.728L133.883 75ZM129.359 74.22C130.055 74.22 130.643 74.016 131.111 73.668L129.203 71.976H130.475L131.699 73.056C132.119 72.444 132.347 71.64 132.347 70.74C132.347 68.772 131.279 67.26 129.359 67.26C127.439 67.26 126.371 68.772 126.371 70.74C126.371 72.708 127.439 74.22 129.359 74.22ZM137.758 75.144C135.922 75.144 134.506 74.196 134.506 72.144V66.48H135.526V72.036C135.526 73.476 136.402 74.22 137.758 74.22C139.114 74.22 139.99 73.476 139.99 72.036V66.48H141.01V72.144C141.01 74.196 139.594 75.144 137.758 75.144ZM143.573 74.076H148.517V75H142.517V66.48H148.457V67.404H143.573V70.116H147.977V71.016H143.573V74.076Z" fill="black"/>
<path d="M163.056 11.48C165.636 11.48 166.872 13.22 166.872 15.74C166.872 18.26 165.636 20 163.056 20H159.912V11.48H163.056ZM162.936 19.076C164.916 19.076 165.816 17.72 165.816 15.74C165.816 13.76 164.916 12.404 162.936 12.404H160.932V19.076H162.936ZM169.107 19.076H174.051V20H168.051V11.48H173.991V12.404H169.107V15.116H173.511V16.016H169.107V19.076ZM178.241 20.144C175.925 20.144 174.785 18.908 174.641 17.264H175.685C175.853 18.644 176.741 19.232 178.277 19.232C179.477 19.232 180.329 18.716 180.329 17.66C180.329 16.484 179.297 16.34 177.761 15.896C176.261 15.464 174.941 15.14 174.941 13.568C174.941 12.236 176.201 11.336 177.893 11.336C179.897 11.336 181.001 12.344 181.241 13.808H180.233C180.053 12.716 179.165 12.248 177.893 12.248C176.777 12.248 175.985 12.728 175.985 13.544C175.985 14.456 176.921 14.696 178.205 15.044C179.861 15.5 181.373 15.86 181.373 17.66C181.373 19.208 180.065 20.144 178.241 20.144ZM183.497 11.48V20H182.477V11.48H183.497ZM188.577 20.144C186.165 20.144 184.653 18.26 184.653 15.74C184.653 13.22 186.213 11.336 188.697 11.336C190.677 11.336 191.889 12.524 192.249 14.06H191.193C190.917 13.004 190.017 12.26 188.697 12.26C186.777 12.26 185.709 13.772 185.709 15.74C185.709 17.708 186.777 19.22 188.697 19.22C190.293 19.22 191.241 18.14 191.241 16.76V16.4H188.457V15.5H192.261V20H191.301V18.536C190.893 19.508 189.909 20.144 188.577 20.144ZM199.536 11.48H200.556V20H199.212L194.712 12.728V20H193.692V11.48H195.036L199.536 18.752V11.48Z" fill="black"/>
<path d="M168.384 66.48V75H167.364V67.56L164.652 75H163.644L160.932 67.56V75H159.912V66.48H161.532L164.148 73.74L166.764 66.48H168.384ZM173.585 75.144C171.101 75.144 169.541 73.26 169.541 70.74C169.541 68.22 171.101 66.336 173.585 66.336C176.069 66.336 177.629 68.22 177.629 70.74C177.629 73.26 176.069 75.144 173.585 75.144ZM173.585 74.22C175.505 74.22 176.573 72.708 176.573 70.74C176.573 68.772 175.505 67.26 173.585 67.26C171.665 67.26 170.597 68.772 170.597 70.74C170.597 72.708 171.665 74.22 173.585 74.22ZM184.624 66.48H185.644V75H184.3L179.8 67.728V75H178.78V66.48H180.124L184.624 73.752V66.48ZM193.271 66.48V67.416H190.415V75H189.395V67.416H186.527V66.48H193.271ZM197.695 66.48C199.351 66.48 200.443 67.368 200.443 68.724C200.443 69.864 199.711 70.632 198.559 70.812C199.663 70.98 200.059 71.652 200.179 72.948C200.275 74.028 200.527 74.592 200.767 75H199.615C199.447 74.604 199.243 74.124 199.135 72.912C199.027 71.664 198.595 71.244 197.299 71.244H195.175V75H194.155V66.48H197.695ZM197.419 70.356C198.715 70.356 199.399 69.852 199.399 68.88C199.399 67.896 198.715 67.404 197.419 67.404H195.175V70.356H197.419ZM207.106 64.56L205.306 65.94H204.346L205.606 64.56H207.106ZM202.846 74.076H207.79V75H201.79V66.48H207.73V67.404H202.846V70.116H207.25V71.016H202.846V74.076ZM214.538 75L213.71 72.636H209.978L209.138 75H208.082L211.202 66.48H212.522L215.642 75H214.538ZM210.278 71.76H213.398L211.838 67.344L210.278 71.76ZM217.447 74.064H222.067V75H216.427V66.48H217.447V74.064ZM228.613 75L227.785 72.636H224.053L223.213 75H222.157L225.277 66.48H226.597L229.717 75H228.613ZM224.353 71.76H227.473L225.913 67.344L224.353 71.76ZM231.522 66.48V75H230.502V66.48H231.522ZM236.146 75.144C233.83 75.144 232.69 73.908 232.546 72.264H233.59C233.758 73.644 234.646 74.232 236.182 74.232C237.382 74.232 238.234 73.716 238.234 72.66C238.234 71.484 237.202 71.34 235.666 70.896C234.166 70.464 232.846 70.14 232.846 68.568C232.846 67.236 234.106 66.336 235.798 66.336C237.802 66.336 238.906 67.344 239.146 68.808H238.138C237.958 67.716 237.07 67.248 235.798 67.248C234.682 67.248 233.89 67.728 233.89 68.544C233.89 69.456 234.826 69.696 236.11 70.044C237.766 70.5 239.278 70.86 239.278 72.66C239.278 74.208 237.97 75.144 236.146 75.144Z" fill="black"/>
<path d="M270.41 9.144C268.094 9.144 266.954 7.908 266.81 6.264H267.854C268.022 7.644 268.91 8.232 270.446 8.232C271.646 8.232 272.498 7.716 272.498 6.66C272.498 5.484 271.466 5.34 269.93 4.896C268.43 4.464 267.11 4.14 267.11 2.568C267.11 1.236 268.37 0.335999 270.062 0.335999C272.066 0.335999 273.17 1.344 273.41 2.808H272.402C272.222 1.716 271.334 1.248 270.062 1.248C268.946 1.248 268.154 1.728 268.154 2.544C268.154 3.456 269.09 3.696 270.374 4.044C272.03 4.5 273.542 4.86 273.542 6.66C273.542 8.208 272.234 9.144 270.41 9.144ZM280.295 0.48V1.416H277.439V9H276.419V1.416H273.551V0.48H280.295ZM284.359 9.144C282.523 9.144 281.107 8.196 281.107 6.144V0.48H282.127V6.036C282.127 7.476 283.003 8.22 284.359 8.22C285.715 8.22 286.591 7.476 286.591 6.036V0.48H287.611V6.144C287.611 8.196 286.195 9.144 284.359 9.144ZM292.263 0.48C294.843 0.48 296.079 2.22 296.079 4.74C296.079 7.26 294.843 9 292.263 9H289.119V0.48H292.263ZM292.143 8.076C294.123 8.076 295.023 6.72 295.023 4.74C295.023 2.76 294.123 1.404 292.143 1.404H290.139V8.076H292.143ZM298.277 0.48V9H297.257V0.48H298.277ZM303.477 9.144C300.993 9.144 299.433 7.26 299.433 4.74C299.433 2.22 300.993 0.335999 303.477 0.335999C305.961 0.335999 307.521 2.22 307.521 4.74C307.521 7.26 305.961 9.144 303.477 9.144ZM303.477 8.22C305.397 8.22 306.465 6.708 306.465 4.74C306.465 2.772 305.397 1.26 303.477 1.26C301.557 1.26 300.489 2.772 300.489 4.74C300.489 6.708 301.557 8.22 303.477 8.22Z" fill="black"/>
<path d="M270.41 53.144C268.094 53.144 266.954 51.908 266.81 50.264H267.854C268.022 51.644 268.91 52.232 270.446 52.232C271.646 52.232 272.498 51.716 272.498 50.66C272.498 49.484 271.466 49.34 269.93 48.896C268.43 48.464 267.11 48.14 267.11 46.568C267.11 45.236 268.37 44.336 270.062 44.336C272.066 44.336 273.17 45.344 273.41 46.808H272.402C272.222 45.716 271.334 45.248 270.062 45.248C268.946 45.248 268.154 45.728 268.154 46.544C268.154 47.456 269.09 47.696 270.374 48.044C272.03 48.5 273.542 48.86 273.542 50.66C273.542 52.208 272.234 53.144 270.41 53.144ZM280.295 44.48V45.416H277.439V53H276.419V45.416H273.551V44.48H280.295ZM284.359 53.144C282.523 53.144 281.107 52.196 281.107 50.144V44.48H282.127V50.036C282.127 51.476 283.003 52.22 284.359 52.22C285.715 52.22 286.591 51.476 286.591 50.036V44.48H287.611V50.144C287.611 52.196 286.195 53.144 284.359 53.144ZM292.263 44.48C294.843 44.48 296.079 46.22 296.079 48.74C296.079 51.26 294.843 53 292.263 53H289.119V44.48H292.263ZM292.143 52.076C294.123 52.076 295.023 50.72 295.023 48.74C295.023 46.76 294.123 45.404 292.143 45.404H290.139V52.076H292.143ZM298.277 44.48V53H297.257V44.48H298.277ZM303.477 53.144C300.993 53.144 299.433 51.26 299.433 48.74C299.433 46.22 300.993 44.336 303.477 44.336C305.961 44.336 307.521 46.22 307.521 48.74C307.521 51.26 305.961 53.144 303.477 53.144ZM303.477 52.22C305.397 52.22 306.465 50.708 306.465 48.74C306.465 46.772 305.397 45.26 303.477 45.26C301.557 45.26 300.489 46.772 300.489 48.74C300.489 50.708 301.557 52.22 303.477 52.22Z" fill="black"/>
<path d="M269.592 55.48C272.172 55.48 273.408 57.22 273.408 59.74C273.408 62.26 272.172 64 269.592 64H266.448V55.48H269.592ZM269.472 63.076C271.452 63.076 272.352 61.72 272.352 59.74C272.352 57.76 271.452 56.404 269.472 56.404H267.468V63.076H269.472ZM275.643 63.076H280.587V64H274.587V55.48H280.527V56.404H275.643V59.116H280.047V60.016H275.643V63.076ZM284.777 64.144C282.461 64.144 281.321 62.908 281.177 61.264H282.221C282.389 62.644 283.277 63.232 284.813 63.232C286.013 63.232 286.865 62.716 286.865 61.66C286.865 60.484 285.833 60.34 284.297 59.896C282.797 59.464 281.477 59.14 281.477 57.568C281.477 56.236 282.737 55.336 284.429 55.336C286.433 55.336 287.537 56.344 287.777 57.808H286.769C286.589 56.716 285.701 56.248 284.429 56.248C283.313 56.248 282.521 56.728 282.521 57.544C282.521 58.456 283.457 58.696 284.741 59.044C286.397 59.5 287.909 59.86 287.909 61.66C287.909 63.208 286.601 64.144 284.777 64.144ZM290.033 55.48V64H289.013V55.48H290.033ZM295.113 64.144C292.701 64.144 291.189 62.26 291.189 59.74C291.189 57.22 292.749 55.336 295.233 55.336C297.213 55.336 298.425 56.524 298.785 58.06H297.729C297.453 57.004 296.553 56.26 295.233 56.26C293.313 56.26 292.245 57.772 292.245 59.74C292.245 61.708 293.313 63.22 295.233 63.22C296.829 63.22 297.777 62.14 297.777 60.76V60.4H294.993V59.5H298.797V64H297.837V62.536C297.429 63.508 296.445 64.144 295.113 64.144ZM306.072 55.48H307.092V64H305.748L301.248 56.728V64H300.228V55.48H301.572L306.072 62.752V55.48Z" fill="black"/>
<path d="M236.675 33.48V42H235.655V34.56L232.943 42H231.935L229.223 34.56V42H228.203V33.48H229.823L232.439 40.74L235.055 33.48H236.675ZM241.875 42.144C239.391 42.144 237.831 40.26 237.831 37.74C237.831 35.22 239.391 33.336 241.875 33.336C244.359 33.336 245.919 35.22 245.919 37.74C245.919 40.26 244.359 42.144 241.875 42.144ZM241.875 41.22C243.795 41.22 244.863 39.708 244.863 37.74C244.863 35.772 243.795 34.26 241.875 34.26C239.955 34.26 238.887 35.772 238.887 37.74C238.887 39.708 239.955 41.22 241.875 41.22ZM252.914 33.48H253.934V42H252.59L248.09 34.728V42H247.07V33.48H248.414L252.914 40.752V33.48ZM261.562 33.48V34.416H258.706V42H257.686V34.416H254.818V33.48H261.562ZM265.986 33.48C267.642 33.48 268.734 34.368 268.734 35.724C268.734 36.864 268.002 37.632 266.85 37.812C267.954 37.98 268.35 38.652 268.47 39.948C268.566 41.028 268.818 41.592 269.058 42H267.906C267.738 41.604 267.534 41.124 267.426 39.912C267.318 38.664 266.886 38.244 265.59 38.244H263.466V42H262.446V33.48H265.986ZM265.71 37.356C267.006 37.356 267.69 36.852 267.69 35.88C267.69 34.896 267.006 34.404 265.71 34.404H263.466V37.356H265.71ZM275.397 31.56L273.597 32.94H272.637L273.897 31.56H275.397ZM271.137 41.076H276.081V42H270.081V33.48H276.021V34.404H271.137V37.116H275.541V38.016H271.137V41.076ZM282.829 42L282.001 39.636H278.269L277.429 42H276.373L279.493 33.48H280.813L283.933 42H282.829ZM278.569 38.76H281.689L280.129 34.344L278.569 38.76ZM285.738 41.064H290.358V42H284.718V33.48H285.738V41.064ZM296.903 42L296.075 39.636H292.343L291.503 42H290.447L293.567 33.48H294.887L298.007 42H296.903ZM292.643 38.76H295.763L294.203 34.344L292.643 38.76ZM299.813 33.48V42H298.793V33.48H299.813ZM304.436 42.144C302.12 42.144 300.98 40.908 300.836 39.264H301.88C302.048 40.644 302.936 41.232 304.472 41.232C305.672 41.232 306.524 40.716 306.524 39.66C306.524 38.484 305.492 38.34 303.956 37.896C302.456 37.464 301.136 37.14 301.136 35.568C301.136 34.236 302.396 33.336 304.088 33.336C306.092 33.336 307.196 34.344 307.436 35.808H306.428C306.248 34.716 305.36 34.248 304.088 34.248C302.972 34.248 302.18 34.728 302.18 35.544C302.18 36.456 303.116 36.696 304.4 37.044C306.056 37.5 307.568 37.86 307.568 39.66C307.568 41.208 306.26 42.144 304.436 42.144Z" fill="black"/>
<path d="M5.448 312.488C6.66 312.596 7.512 313.328 7.512 314.528C7.512 316.04 6.456 317 4.728 317H0.912V308.48H4.548C6.108 308.48 7.164 309.284 7.164 310.64C7.164 311.696 6.396 312.344 5.448 312.488ZM4.548 309.404H1.932V312.14H4.548C5.58 312.14 6.12 311.588 6.12 310.748C6.12 309.908 5.58 309.404 4.548 309.404ZM4.728 316.076C5.832 316.076 6.456 315.512 6.456 314.528C6.456 313.568 5.796 313.016 4.668 313.016H1.932V316.076H4.728ZM9.21675 316.064H14.5328V317H8.00475V316.064L13.2008 309.416H8.24475V308.48H14.4128V309.416L9.21675 316.064ZM18.962 317.144C16.478 317.144 14.918 315.26 14.918 312.74C14.918 310.22 16.478 308.336 18.962 308.336C21.446 308.336 23.006 310.22 23.006 312.74C23.006 315.26 21.446 317.144 18.962 317.144ZM18.962 316.22C20.882 316.22 21.95 314.708 21.95 312.74C21.95 310.772 20.882 309.26 18.962 309.26C17.042 309.26 15.974 310.772 15.974 312.74C15.974 314.708 17.042 316.22 18.962 316.22ZM25.1768 308.48V317H24.1568V308.48H25.1768ZM32.6085 308.48H33.6285V317H32.2845L27.7845 309.728V317H26.7645V308.48H28.1085L32.6085 315.752V308.48ZM38.7001 317.144C36.2881 317.144 34.7761 315.26 34.7761 312.74C34.7761 310.22 36.3361 308.336 38.8201 308.336C40.8001 308.336 42.0121 309.524 42.3721 311.06H41.3161C41.0401 310.004 40.1401 309.26 38.8201 309.26C36.9001 309.26 35.8321 310.772 35.8321 312.74C35.8321 314.708 36.9001 316.22 38.8201 316.22C40.4161 316.22 41.3641 315.14 41.3641 313.76V313.4H38.5801V312.5H42.3841V317H41.4241V315.536C41.0161 316.508 40.0321 317.144 38.7001 317.144Z" fill="black"/>
<path d="M5.448 356.488C6.66 356.596 7.512 357.328 7.512 358.528C7.512 360.04 6.456 361 4.728 361H0.912V352.48H4.548C6.108 352.48 7.164 353.284 7.164 354.64C7.164 355.696 6.396 356.344 5.448 356.488ZM4.548 353.404H1.932V356.14H4.548C5.58 356.14 6.12 355.588 6.12 354.748C6.12 353.908 5.58 353.404 4.548 353.404ZM4.728 360.076C5.832 360.076 6.456 359.512 6.456 358.528C6.456 357.568 5.796 357.016 4.668 357.016H1.932V360.076H4.728ZM9.21675 360.064H14.5328V361H8.00475V360.064L13.2008 353.416H8.24475V352.48H14.4128V353.416L9.21675 360.064ZM18.962 361.144C16.478 361.144 14.918 359.26 14.918 356.74C14.918 354.22 16.478 352.336 18.962 352.336C21.446 352.336 23.006 354.22 23.006 356.74C23.006 359.26 21.446 361.144 18.962 361.144ZM18.962 360.22C20.882 360.22 21.95 358.708 21.95 356.74C21.95 354.772 20.882 353.26 18.962 353.26C17.042 353.26 15.974 354.772 15.974 356.74C15.974 358.708 17.042 360.22 18.962 360.22ZM25.1768 352.48V361H24.1568V352.48H25.1768ZM32.6085 352.48H33.6285V361H32.2845L27.7845 353.728V361H26.7645V352.48H28.1085L32.6085 359.752V352.48ZM38.7001 361.144C36.2881 361.144 34.7761 359.26 34.7761 356.74C34.7761 354.22 36.3361 352.336 38.8201 352.336C40.8001 352.336 42.0121 353.524 42.3721 355.06H41.3161C41.0401 354.004 40.1401 353.26 38.8201 353.26C36.9001 353.26 35.8321 354.772 35.8321 356.74C35.8321 358.708 36.9001 360.22 38.8201 360.22C40.4161 360.22 41.3641 359.14 41.3641 357.76V357.4H38.5801V356.5H42.3841V361H41.4241V359.536C41.0161 360.508 40.0321 361.144 38.7001 361.144Z" fill="black"/>
<path d="M4.056 363.48C6.636 363.48 7.872 365.22 7.872 367.74C7.872 370.26 6.636 372 4.056 372H0.912V363.48H4.056ZM3.936 371.076C5.916 371.076 6.816 369.72 6.816 367.74C6.816 365.76 5.916 364.404 3.936 364.404H1.932V371.076H3.936ZM10.1069 371.076H15.0509V372H9.05091V363.48H14.9909V364.404H10.1069V367.116H14.5109V368.016H10.1069V371.076Z" fill="black"/>
<path d="M4.404 339.144C1.992 339.144 0.48 337.26 0.48 334.74C0.48 332.22 2.04 330.336 4.524 330.336C6.504 330.336 7.716 331.524 8.076 333.06H7.02C6.744 332.004 5.844 331.26 4.524 331.26C2.604 331.26 1.536 332.772 1.536 334.74C1.536 336.708 2.604 338.22 4.524 338.22C6.12 338.22 7.068 337.14 7.068 335.76V335.4H4.284V334.5H8.088V339H7.128V337.536C6.72 338.508 5.736 339.144 4.404 339.144ZM13.0597 330.48C14.7157 330.48 15.8077 331.368 15.8077 332.724C15.8077 333.864 15.0757 334.632 13.9237 334.812C15.0277 334.98 15.4237 335.652 15.5437 336.948C15.6397 338.028 15.8917 338.592 16.1317 339H14.9797C14.8117 338.604 14.6077 338.124 14.4997 336.912C14.3917 335.664 13.9597 335.244 12.6637 335.244H10.5397V339H9.51966V330.48H13.0597ZM12.7837 334.356C14.0797 334.356 14.7637 333.852 14.7637 332.88C14.7637 331.896 14.0797 331.404 12.7837 331.404H10.5397V334.356H12.7837ZM22.8067 339L21.9787 336.636H18.2467L17.4067 339H16.3507L19.4707 330.48H20.7907L23.9107 339H22.8067ZM18.5467 335.76H21.6667L20.1067 331.344L18.5467 335.76ZM28.2239 330.48C29.8079 330.48 30.8159 331.464 30.8159 332.904C30.8159 334.344 29.8079 335.328 28.2239 335.328H25.7159V339H24.6959V330.48H28.2239ZM28.0439 334.404C29.1239 334.404 29.7719 333.9 29.7719 332.904C29.7719 331.908 29.1239 331.404 28.0439 331.404H25.7159V334.404H28.0439ZM37.3004 330.48H38.3204V339H37.3004V335.016H32.7884V339H31.7684V330.48H32.7884V334.116H37.3004V330.48ZM40.9273 330.48V339H39.9073V330.48H40.9273ZM50.651 339H49.379L48.623 338.328C47.963 338.844 47.123 339.144 46.127 339.144C43.643 339.144 42.083 337.26 42.083 334.74C42.083 332.22 43.643 330.336 46.127 330.336C48.611 330.336 50.171 332.22 50.171 334.74C50.171 335.916 49.835 336.96 49.211 337.728L50.651 339ZM46.127 338.22C46.823 338.22 47.411 338.016 47.879 337.668L45.971 335.976H47.243L48.467 337.056C48.887 336.444 49.115 335.64 49.115 334.74C49.115 332.772 48.047 331.26 46.127 331.26C44.207 331.26 43.139 332.772 43.139 334.74C43.139 336.708 44.207 338.22 46.127 338.22ZM54.5253 339.144C52.6893 339.144 51.2733 338.196 51.2733 336.144V330.48H52.2933V336.036C52.2933 337.476 53.1693 338.22 54.5253 338.22C55.8813 338.22 56.7573 337.476 56.7573 336.036V330.48H57.7773V336.144C57.7773 338.196 56.3613 339.144 54.5253 339.144ZM60.341 338.076H65.285V339H59.285V330.48H65.225V331.404H60.341V334.116H64.745V335.016H60.341V338.076Z" fill="black"/>
<path d="M137.523 319.48C140.103 319.48 141.339 321.22 141.339 323.74C141.339 326.26 140.103 328 137.523 328H134.379V319.48H137.523ZM137.403 327.076C139.383 327.076 140.283 325.72 140.283 323.74C140.283 321.76 139.383 320.404 137.403 320.404H135.399V327.076H137.403ZM143.573 327.076H148.517V328H142.517V319.48H148.457V320.404H143.573V323.116H147.977V324.016H143.573V327.076Z" fill="black"/>
<path d="M87.6365 383.144C85.2245 383.144 83.7125 381.26 83.7125 378.74C83.7125 376.22 85.2725 374.336 87.7565 374.336C89.7365 374.336 90.9485 375.524 91.3085 377.06H90.2525C89.9765 376.004 89.0765 375.26 87.7565 375.26C85.8365 375.26 84.7685 376.772 84.7685 378.74C84.7685 380.708 85.8365 382.22 87.7565 382.22C89.3525 382.22 90.3005 381.14 90.3005 379.76V379.4H87.5165V378.5H91.3205V383H90.3605V381.536C89.9525 382.508 88.9685 383.144 87.6365 383.144ZM96.2922 374.48C97.9482 374.48 99.0402 375.368 99.0402 376.724C99.0402 377.864 98.3082 378.632 97.1562 378.812C98.2602 378.98 98.6562 379.652 98.7762 380.948C98.8722 382.028 99.1242 382.592 99.3642 383H98.2122C98.0442 382.604 97.8402 382.124 97.7322 380.912C97.6242 379.664 97.1922 379.244 95.8962 379.244H93.7722V383H92.7522V374.48H96.2922ZM96.0162 378.356C97.3122 378.356 97.9962 377.852 97.9962 376.88C97.9962 375.896 97.3122 375.404 96.0162 375.404H93.7722V378.356H96.0162ZM106.039 383L105.211 380.636H101.479L100.639 383H99.5832L102.703 374.48H104.023L107.143 383H106.039ZM101.779 379.76H104.899L103.339 375.344L101.779 379.76ZM111.456 374.48C113.04 374.48 114.048 375.464 114.048 376.904C114.048 378.344 113.04 379.328 111.456 379.328H108.948V383H107.928V374.48H111.456ZM111.276 378.404C112.356 378.404 113.004 377.9 113.004 376.904C113.004 375.908 112.356 375.404 111.276 375.404H108.948V378.404H111.276ZM120.533 374.48H121.553V383H120.533V379.016H116.021V383H115.001V374.48H116.021V378.116H120.533V374.48ZM124.16 374.48V383H123.14V374.48H124.16ZM133.883 383H132.611L131.855 382.328C131.195 382.844 130.355 383.144 129.359 383.144C126.875 383.144 125.315 381.26 125.315 378.74C125.315 376.22 126.875 374.336 129.359 374.336C131.843 374.336 133.403 376.22 133.403 378.74C133.403 379.916 133.067 380.96 132.443 381.728L133.883 383ZM129.359 382.22C130.055 382.22 130.643 382.016 131.111 381.668L129.203 379.976H130.475L131.699 381.056C132.119 380.444 132.347 379.64 132.347 378.74C132.347 376.772 131.279 375.26 129.359 375.26C127.439 375.26 126.371 376.772 126.371 378.74C126.371 380.708 127.439 382.22 129.359 382.22ZM137.758 383.144C135.922 383.144 134.506 382.196 134.506 380.144V374.48H135.526V380.036C135.526 381.476 136.402 382.22 137.758 382.22C139.114 382.22 139.99 381.476 139.99 380.036V374.48H141.01V380.144C141.01 382.196 139.594 383.144 137.758 383.144ZM143.573 382.076H148.517V383H142.517V374.48H148.457V375.404H143.573V378.116H147.977V379.016H143.573V382.076Z" fill="black"/>
<path d="M163.056 319.48C165.636 319.48 166.872 321.22 166.872 323.74C166.872 326.26 165.636 328 163.056 328H159.912V319.48H163.056ZM162.936 327.076C164.916 327.076 165.816 325.72 165.816 323.74C165.816 321.76 164.916 320.404 162.936 320.404H160.932V327.076H162.936ZM169.107 327.076H174.051V328H168.051V319.48H173.991V320.404H169.107V323.116H173.511V324.016H169.107V327.076ZM178.241 328.144C175.925 328.144 174.785 326.908 174.641 325.264H175.685C175.853 326.644 176.741 327.232 178.277 327.232C179.477 327.232 180.329 326.716 180.329 325.66C180.329 324.484 179.297 324.34 177.761 323.896C176.261 323.464 174.941 323.14 174.941 321.568C174.941 320.236 176.201 319.336 177.893 319.336C179.897 319.336 181.001 320.344 181.241 321.808H180.233C180.053 320.716 179.165 320.248 177.893 320.248C176.777 320.248 175.985 320.728 175.985 321.544C175.985 322.456 176.921 322.696 178.205 323.044C179.861 323.5 181.373 323.86 181.373 325.66C181.373 327.208 180.065 328.144 178.241 328.144ZM183.497 319.48V328H182.477V319.48H183.497ZM188.577 328.144C186.165 328.144 184.653 326.26 184.653 323.74C184.653 321.22 186.213 319.336 188.697 319.336C190.677 319.336 191.889 320.524 192.249 322.06H191.193C190.917 321.004 190.017 320.26 188.697 320.26C186.777 320.26 185.709 321.772 185.709 323.74C185.709 325.708 186.777 327.22 188.697 327.22C190.293 327.22 191.241 326.14 191.241 324.76V324.4H188.457V323.5H192.261V328H191.301V326.536C190.893 327.508 189.909 328.144 188.577 328.144ZM199.536 319.48H200.556V328H199.212L194.712 320.728V328H193.692V319.48H195.036L199.536 326.752V319.48Z" fill="black"/>
<path d="M168.384 374.48V383H167.364V375.56L164.652 383H163.644L160.932 375.56V383H159.912V374.48H161.532L164.148 381.74L166.764 374.48H168.384ZM173.585 383.144C171.101 383.144 169.541 381.26 169.541 378.74C169.541 376.22 171.101 374.336 173.585 374.336C176.069 374.336 177.629 376.22 177.629 378.74C177.629 381.26 176.069 383.144 173.585 383.144ZM173.585 382.22C175.505 382.22 176.573 380.708 176.573 378.74C176.573 376.772 175.505 375.26 173.585 375.26C171.665 375.26 170.597 376.772 170.597 378.74C170.597 380.708 171.665 382.22 173.585 382.22ZM184.624 374.48H185.644V383H184.3L179.8 375.728V383H178.78V374.48H180.124L184.624 381.752V374.48ZM193.271 374.48V375.416H190.415V383H189.395V375.416H186.527V374.48H193.271ZM197.695 374.48C199.351 374.48 200.443 375.368 200.443 376.724C200.443 377.864 199.711 378.632 198.559 378.812C199.663 378.98 200.059 379.652 200.179 380.948C200.275 382.028 200.527 382.592 200.767 383H199.615C199.447 382.604 199.243 382.124 199.135 380.912C199.027 379.664 198.595 379.244 197.299 379.244H195.175V383H194.155V374.48H197.695ZM197.419 378.356C198.715 378.356 199.399 377.852 199.399 376.88C199.399 375.896 198.715 375.404 197.419 375.404H195.175V378.356H197.419ZM207.106 372.56L205.306 373.94H204.346L205.606 372.56H207.106ZM202.846 382.076H207.79V383H201.79V374.48H207.73V375.404H202.846V378.116H207.25V379.016H202.846V382.076ZM214.538 383L213.71 380.636H209.978L209.138 383H208.082L211.202 374.48H212.522L215.642 383H214.538ZM210.278 379.76H213.398L211.838 375.344L210.278 379.76ZM217.447 382.064H222.067V383H216.427V374.48H217.447V382.064ZM228.613 383L227.785 380.636H224.053L223.213 383H222.157L225.277 374.48H226.597L229.717 383H228.613ZM224.353 379.76H227.473L225.913 375.344L224.353 379.76ZM231.522 374.48V383H230.502V374.48H231.522ZM236.146 383.144C233.83 383.144 232.69 381.908 232.546 380.264H233.59C233.758 381.644 234.646 382.232 236.182 382.232C237.382 382.232 238.234 381.716 238.234 380.66C238.234 379.484 237.202 379.34 235.666 378.896C234.166 378.464 232.846 378.14 232.846 376.568C232.846 375.236 234.106 374.336 235.798 374.336C237.802 374.336 238.906 375.344 239.146 376.808H238.138C237.958 375.716 237.07 375.248 235.798 375.248C234.682 375.248 233.89 375.728 233.89 376.544C233.89 377.456 234.826 377.696 236.11 378.044C237.766 378.5 239.278 378.86 239.278 380.66C239.278 382.208 237.97 383.144 236.146 383.144Z" fill="black"/>
<path d="M270.41 317.144C268.094 317.144 266.954 315.908 266.81 314.264H267.854C268.022 315.644 268.91 316.232 270.446 316.232C271.646 316.232 272.498 315.716 272.498 314.66C272.498 313.484 271.466 313.34 269.93 312.896C268.43 312.464 267.11 312.14 267.11 310.568C267.11 309.236 268.37 308.336 270.062 308.336C272.066 308.336 273.17 309.344 273.41 310.808H272.402C272.222 309.716 271.334 309.248 270.062 309.248C268.946 309.248 268.154 309.728 268.154 310.544C268.154 311.456 269.09 311.696 270.374 312.044C272.03 312.5 273.542 312.86 273.542 314.66C273.542 316.208 272.234 317.144 270.41 317.144ZM280.295 308.48V309.416H277.439V317H276.419V309.416H273.551V308.48H280.295ZM284.359 317.144C282.523 317.144 281.107 316.196 281.107 314.144V308.48H282.127V314.036C282.127 315.476 283.003 316.22 284.359 316.22C285.715 316.22 286.591 315.476 286.591 314.036V308.48H287.611V314.144C287.611 316.196 286.195 317.144 284.359 317.144ZM292.263 308.48C294.843 308.48 296.079 310.22 296.079 312.74C296.079 315.26 294.843 317 292.263 317H289.119V308.48H292.263ZM292.143 316.076C294.123 316.076 295.023 314.72 295.023 312.74C295.023 310.76 294.123 309.404 292.143 309.404H290.139V316.076H292.143ZM298.277 308.48V317H297.257V308.48H298.277ZM303.477 317.144C300.993 317.144 299.433 315.26 299.433 312.74C299.433 310.22 300.993 308.336 303.477 308.336C305.961 308.336 307.521 310.22 307.521 312.74C307.521 315.26 305.961 317.144 303.477 317.144ZM303.477 316.22C305.397 316.22 306.465 314.708 306.465 312.74C306.465 310.772 305.397 309.26 303.477 309.26C301.557 309.26 300.489 310.772 300.489 312.74C300.489 314.708 301.557 316.22 303.477 316.22Z" fill="black"/>
<path d="M270.41 361.144C268.094 361.144 266.954 359.908 266.81 358.264H267.854C268.022 359.644 268.91 360.232 270.446 360.232C271.646 360.232 272.498 359.716 272.498 358.66C272.498 357.484 271.466 357.34 269.93 356.896C268.43 356.464 267.11 356.14 267.11 354.568C267.11 353.236 268.37 352.336 270.062 352.336C272.066 352.336 273.17 353.344 273.41 354.808H272.402C272.222 353.716 271.334 353.248 270.062 353.248C268.946 353.248 268.154 353.728 268.154 354.544C268.154 355.456 269.09 355.696 270.374 356.044C272.03 356.5 273.542 356.86 273.542 358.66C273.542 360.208 272.234 361.144 270.41 361.144ZM280.295 352.48V353.416H277.439V361H276.419V353.416H273.551V352.48H280.295ZM284.359 361.144C282.523 361.144 281.107 360.196 281.107 358.144V352.48H282.127V358.036C282.127 359.476 283.003 360.22 284.359 360.22C285.715 360.22 286.591 359.476 286.591 358.036V352.48H287.611V358.144C287.611 360.196 286.195 361.144 284.359 361.144ZM292.263 352.48C294.843 352.48 296.079 354.22 296.079 356.74C296.079 359.26 294.843 361 292.263 361H289.119V352.48H292.263ZM292.143 360.076C294.123 360.076 295.023 358.72 295.023 356.74C295.023 354.76 294.123 353.404 292.143 353.404H290.139V360.076H292.143ZM298.277 352.48V361H297.257V352.48H298.277ZM303.477 361.144C300.993 361.144 299.433 359.26 299.433 356.74C299.433 354.22 300.993 352.336 303.477 352.336C305.961 352.336 307.521 354.22 307.521 356.74C307.521 359.26 305.961 361.144 303.477 361.144ZM303.477 360.22C305.397 360.22 306.465 358.708 306.465 356.74C306.465 354.772 305.397 353.26 303.477 353.26C301.557 353.26 300.489 354.772 300.489 356.74C300.489 358.708 301.557 360.22 303.477 360.22Z" fill="black"/>
<path d="M269.592 363.48C272.172 363.48 273.408 365.22 273.408 367.74C273.408 370.26 272.172 372 269.592 372H266.448V363.48H269.592ZM269.472 371.076C271.452 371.076 272.352 369.72 272.352 367.74C272.352 365.76 271.452 364.404 269.472 364.404H267.468V371.076H269.472ZM275.643 371.076H280.587V372H274.587V363.48H280.527V364.404H275.643V367.116H280.047V368.016H275.643V371.076ZM284.777 372.144C282.461 372.144 281.321 370.908 281.177 369.264H282.221C282.389 370.644 283.277 371.232 284.813 371.232C286.013 371.232 286.865 370.716 286.865 369.66C286.865 368.484 285.833 368.34 284.297 367.896C282.797 367.464 281.477 367.14 281.477 365.568C281.477 364.236 282.737 363.336 284.429 363.336C286.433 363.336 287.537 364.344 287.777 365.808H286.769C286.589 364.716 285.701 364.248 284.429 364.248C283.313 364.248 282.521 364.728 282.521 365.544C282.521 366.456 283.457 366.696 284.741 367.044C286.397 367.5 287.909 367.86 287.909 369.66C287.909 371.208 286.601 372.144 284.777 372.144ZM290.033 363.48V372H289.013V363.48H290.033ZM295.113 372.144C292.701 372.144 291.189 370.26 291.189 367.74C291.189 365.22 292.749 363.336 295.233 363.336C297.213 363.336 298.425 364.524 298.785 366.06H297.729C297.453 365.004 296.553 364.26 295.233 364.26C293.313 364.26 292.245 365.772 292.245 367.74C292.245 369.708 293.313 371.22 295.233 371.22C296.829 371.22 297.777 370.14 297.777 368.76V368.4H294.993V367.5H298.797V372H297.837V370.536C297.429 371.508 296.445 372.144 295.113 372.144ZM306.072 363.48H307.092V372H305.748L301.248 364.728V372H300.228V363.48H301.572L306.072 370.752V363.48Z" fill="black"/>
<path d="M236.675 341.48V350H235.655V342.56L232.943 350H231.935L229.223 342.56V350H228.203V341.48H229.823L232.439 348.74L235.055 341.48H236.675ZM241.875 350.144C239.391 350.144 237.831 348.26 237.831 345.74C237.831 343.22 239.391 341.336 241.875 341.336C244.359 341.336 245.919 343.22 245.919 345.74C245.919 348.26 244.359 350.144 241.875 350.144ZM241.875 349.22C243.795 349.22 244.863 347.708 244.863 345.74C244.863 343.772 243.795 342.26 241.875 342.26C239.955 342.26 238.887 343.772 238.887 345.74C238.887 347.708 239.955 349.22 241.875 349.22ZM252.914 341.48H253.934V350H252.59L248.09 342.728V350H247.07V341.48H248.414L252.914 348.752V341.48ZM261.562 341.48V342.416H258.706V350H257.686V342.416H254.818V341.48H261.562ZM265.986 341.48C267.642 341.48 268.734 342.368 268.734 343.724C268.734 344.864 268.002 345.632 266.85 345.812C267.954 345.98 268.35 346.652 268.47 347.948C268.566 349.028 268.818 349.592 269.058 350H267.906C267.738 349.604 267.534 349.124 267.426 347.912C267.318 346.664 266.886 346.244 265.59 346.244H263.466V350H262.446V341.48H265.986ZM265.71 345.356C267.006 345.356 267.69 344.852 267.69 343.88C267.69 342.896 267.006 342.404 265.71 342.404H263.466V345.356H265.71ZM275.397 339.56L273.597 340.94H272.637L273.897 339.56H275.397ZM271.137 349.076H276.081V350H270.081V341.48H276.021V342.404H271.137V345.116H275.541V346.016H271.137V349.076ZM282.829 350L282.001 347.636H278.269L277.429 350H276.373L279.493 341.48H280.813L283.933 350H282.829ZM278.569 346.76H281.689L280.129 342.344L278.569 346.76ZM285.738 349.064H290.358V350H284.718V341.48H285.738V349.064ZM296.903 350L296.075 347.636H292.343L291.503 350H290.447L293.567 341.48H294.887L298.007 350H296.903ZM292.643 346.76H295.763L294.203 342.344L292.643 346.76ZM299.813 341.48V350H298.793V341.48H299.813ZM304.436 350.144C302.12 350.144 300.98 348.908 300.836 347.264H301.88C302.048 348.644 302.936 349.232 304.472 349.232C305.672 349.232 306.524 348.716 306.524 347.66C306.524 346.484 305.492 346.34 303.956 345.896C302.456 345.464 301.136 345.14 301.136 343.568C301.136 342.236 302.396 341.336 304.088 341.336C306.092 341.336 307.196 342.344 307.436 343.808H306.428C306.248 342.716 305.36 342.248 304.088 342.248C302.972 342.248 302.18 342.728 302.18 343.544C302.18 344.456 303.116 344.696 304.4 345.044C306.056 345.5 307.568 345.86 307.568 347.66C307.568 349.208 306.26 350.144 304.436 350.144Z" fill="black"/>
<path d="M5.448 81.488C6.66 81.596 7.512 82.328 7.512 83.528C7.512 85.04 6.456 86 4.728 86H0.912V77.48H4.548C6.108 77.48 7.164 78.284 7.164 79.64C7.164 80.696 6.396 81.344 5.448 81.488ZM4.548 78.404H1.932V81.14H4.548C5.58 81.14 6.12 80.588 6.12 79.748C6.12 78.908 5.58 78.404 4.548 78.404ZM4.728 85.076C5.832 85.076 6.456 84.512 6.456 83.528C6.456 82.568 5.796 82.016 4.668 82.016H1.932V85.076H4.728ZM9.21675 85.064H14.5328V86H8.00475V85.064L13.2008 78.416H8.24475V77.48H14.4128V78.416L9.21675 85.064ZM18.962 86.144C16.478 86.144 14.918 84.26 14.918 81.74C14.918 79.22 16.478 77.336 18.962 77.336C21.446 77.336 23.006 79.22 23.006 81.74C23.006 84.26 21.446 86.144 18.962 86.144ZM18.962 85.22C20.882 85.22 21.95 83.708 21.95 81.74C21.95 79.772 20.882 78.26 18.962 78.26C17.042 78.26 15.974 79.772 15.974 81.74C15.974 83.708 17.042 85.22 18.962 85.22ZM25.1768 77.48V86H24.1568V77.48H25.1768ZM32.6085 77.48H33.6285V86H32.2845L27.7845 78.728V86H26.7645V77.48H28.1085L32.6085 84.752V77.48ZM38.7001 86.144C36.2881 86.144 34.7761 84.26 34.7761 81.74C34.7761 79.22 36.3361 77.336 38.8201 77.336C40.8001 77.336 42.0121 78.524 42.3721 80.06H41.3161C41.0401 79.004 40.1401 78.26 38.8201 78.26C36.9001 78.26 35.8321 79.772 35.8321 81.74C35.8321 83.708 36.9001 85.22 38.8201 85.22C40.4161 85.22 41.3641 84.14 41.3641 82.76V82.4H38.5801V81.5H42.3841V86H41.4241V84.536C41.0161 85.508 40.0321 86.144 38.7001 86.144Z" fill="black"/>
<path d="M5.448 125.488C6.66 125.596 7.512 126.328 7.512 127.528C7.512 129.04 6.456 130 4.728 130H0.912V121.48H4.548C6.108 121.48 7.164 122.284 7.164 123.64C7.164 124.696 6.396 125.344 5.448 125.488ZM4.548 122.404H1.932V125.14H4.548C5.58 125.14 6.12 124.588 6.12 123.748C6.12 122.908 5.58 122.404 4.548 122.404ZM4.728 129.076C5.832 129.076 6.456 128.512 6.456 127.528C6.456 126.568 5.796 126.016 4.668 126.016H1.932V129.076H4.728ZM9.21675 129.064H14.5328V130H8.00475V129.064L13.2008 122.416H8.24475V121.48H14.4128V122.416L9.21675 129.064ZM18.962 130.144C16.478 130.144 14.918 128.26 14.918 125.74C14.918 123.22 16.478 121.336 18.962 121.336C21.446 121.336 23.006 123.22 23.006 125.74C23.006 128.26 21.446 130.144 18.962 130.144ZM18.962 129.22C20.882 129.22 21.95 127.708 21.95 125.74C21.95 123.772 20.882 122.26 18.962 122.26C17.042 122.26 15.974 123.772 15.974 125.74C15.974 127.708 17.042 129.22 18.962 129.22ZM25.1768 121.48V130H24.1568V121.48H25.1768ZM32.6085 121.48H33.6285V130H32.2845L27.7845 122.728V130H26.7645V121.48H28.1085L32.6085 128.752V121.48ZM38.7001 130.144C36.2881 130.144 34.7761 128.26 34.7761 125.74C34.7761 123.22 36.3361 121.336 38.8201 121.336C40.8001 121.336 42.0121 122.524 42.3721 124.06H41.3161C41.0401 123.004 40.1401 122.26 38.8201 122.26C36.9001 122.26 35.8321 123.772 35.8321 125.74C35.8321 127.708 36.9001 129.22 38.8201 129.22C40.4161 129.22 41.3641 128.14 41.3641 126.76V126.4H38.5801V125.5H42.3841V130H41.4241V128.536C41.0161 129.508 40.0321 130.144 38.7001 130.144Z" fill="black"/>
<path d="M4.056 132.48C6.636 132.48 7.872 134.22 7.872 136.74C7.872 139.26 6.636 141 4.056 141H0.912V132.48H4.056ZM3.936 140.076C5.916 140.076 6.816 138.72 6.816 136.74C6.816 134.76 5.916 133.404 3.936 133.404H1.932V140.076H3.936ZM10.1069 140.076H15.0509V141H9.05091V132.48H14.9909V133.404H10.1069V136.116H14.5109V137.016H10.1069V140.076Z" fill="black"/>
<path d="M4.404 108.144C1.992 108.144 0.48 106.26 0.48 103.74C0.48 101.22 2.04 99.336 4.524 99.336C6.504 99.336 7.716 100.524 8.076 102.06H7.02C6.744 101.004 5.844 100.26 4.524 100.26C2.604 100.26 1.536 101.772 1.536 103.74C1.536 105.708 2.604 107.22 4.524 107.22C6.12 107.22 7.068 106.14 7.068 104.76V104.4H4.284V103.5H8.088V108H7.128V106.536C6.72 107.508 5.736 108.144 4.404 108.144ZM13.0597 99.48C14.7157 99.48 15.8077 100.368 15.8077 101.724C15.8077 102.864 15.0757 103.632 13.9237 103.812C15.0277 103.98 15.4237 104.652 15.5437 105.948C15.6397 107.028 15.8917 107.592 16.1317 108H14.9797C14.8117 107.604 14.6077 107.124 14.4997 105.912C14.3917 104.664 13.9597 104.244 12.6637 104.244H10.5397V108H9.51966V99.48H13.0597ZM12.7837 103.356C14.0797 103.356 14.7637 102.852 14.7637 101.88C14.7637 100.896 14.0797 100.404 12.7837 100.404H10.5397V103.356H12.7837ZM22.8067 108L21.9787 105.636H18.2467L17.4067 108H16.3507L19.4707 99.48H20.7907L23.9107 108H22.8067ZM18.5467 104.76H21.6667L20.1067 100.344L18.5467 104.76ZM28.2239 99.48C29.8079 99.48 30.8159 100.464 30.8159 101.904C30.8159 103.344 29.8079 104.328 28.2239 104.328H25.7159V108H24.6959V99.48H28.2239ZM28.0439 103.404C29.1239 103.404 29.7719 102.9 29.7719 101.904C29.7719 100.908 29.1239 100.404 28.0439 100.404H25.7159V103.404H28.0439ZM37.3004 99.48H38.3204V108H37.3004V104.016H32.7884V108H31.7684V99.48H32.7884V103.116H37.3004V99.48ZM40.9273 99.48V108H39.9073V99.48H40.9273ZM50.651 108H49.379L48.623 107.328C47.963 107.844 47.123 108.144 46.127 108.144C43.643 108.144 42.083 106.26 42.083 103.74C42.083 101.22 43.643 99.336 46.127 99.336C48.611 99.336 50.171 101.22 50.171 103.74C50.171 104.916 49.835 105.96 49.211 106.728L50.651 108ZM46.127 107.22C46.823 107.22 47.411 107.016 47.879 106.668L45.971 104.976H47.243L48.467 106.056C48.887 105.444 49.115 104.64 49.115 103.74C49.115 101.772 48.047 100.26 46.127 100.26C44.207 100.26 43.139 101.772 43.139 103.74C43.139 105.708 44.207 107.22 46.127 107.22ZM54.5253 108.144C52.6893 108.144 51.2733 107.196 51.2733 105.144V99.48H52.2933V105.036C52.2933 106.476 53.1693 107.22 54.5253 107.22C55.8813 107.22 56.7573 106.476 56.7573 105.036V99.48H57.7773V105.144C57.7773 107.196 56.3613 108.144 54.5253 108.144ZM60.341 107.076H65.285V108H59.285V99.48H65.225V100.404H60.341V103.116H64.745V104.016H60.341V107.076Z" fill="black"/>
<path d="M137.523 88.48C140.103 88.48 141.339 90.22 141.339 92.74C141.339 95.26 140.103 97 137.523 97H134.379V88.48H137.523ZM137.403 96.076C139.383 96.076 140.283 94.72 140.283 92.74C140.283 90.76 139.383 89.404 137.403 89.404H135.399V96.076H137.403ZM143.573 96.076H148.517V97H142.517V88.48H148.457V89.404H143.573V92.116H147.977V93.016H143.573V96.076Z" fill="black"/>
<path d="M87.6365 152.144C85.2245 152.144 83.7125 150.26 83.7125 147.74C83.7125 145.22 85.2725 143.336 87.7565 143.336C89.7365 143.336 90.9485 144.524 91.3085 146.06H90.2525C89.9765 145.004 89.0765 144.26 87.7565 144.26C85.8365 144.26 84.7685 145.772 84.7685 147.74C84.7685 149.708 85.8365 151.22 87.7565 151.22C89.3525 151.22 90.3005 150.14 90.3005 148.76V148.4H87.5165V147.5H91.3205V152H90.3605V150.536C89.9525 151.508 88.9685 152.144 87.6365 152.144ZM96.2922 143.48C97.9482 143.48 99.0402 144.368 99.0402 145.724C99.0402 146.864 98.3082 147.632 97.1562 147.812C98.2602 147.98 98.6562 148.652 98.7762 149.948C98.8722 151.028 99.1242 151.592 99.3642 152H98.2122C98.0442 151.604 97.8402 151.124 97.7322 149.912C97.6242 148.664 97.1922 148.244 95.8962 148.244H93.7722V152H92.7522V143.48H96.2922ZM96.0162 147.356C97.3122 147.356 97.9962 146.852 97.9962 145.88C97.9962 144.896 97.3122 144.404 96.0162 144.404H93.7722V147.356H96.0162ZM106.039 152L105.211 149.636H101.479L100.639 152H99.5832L102.703 143.48H104.023L107.143 152H106.039ZM101.779 148.76H104.899L103.339 144.344L101.779 148.76ZM111.456 143.48C113.04 143.48 114.048 144.464 114.048 145.904C114.048 147.344 113.04 148.328 111.456 148.328H108.948V152H107.928V143.48H111.456ZM111.276 147.404C112.356 147.404 113.004 146.9 113.004 145.904C113.004 144.908 112.356 144.404 111.276 144.404H108.948V147.404H111.276ZM120.533 143.48H121.553V152H120.533V148.016H116.021V152H115.001V143.48H116.021V147.116H120.533V143.48ZM124.16 143.48V152H123.14V143.48H124.16ZM133.883 152H132.611L131.855 151.328C131.195 151.844 130.355 152.144 129.359 152.144C126.875 152.144 125.315 150.26 125.315 147.74C125.315 145.22 126.875 143.336 129.359 143.336C131.843 143.336 133.403 145.22 133.403 147.74C133.403 148.916 133.067 149.96 132.443 150.728L133.883 152ZM129.359 151.22C130.055 151.22 130.643 151.016 131.111 150.668L129.203 148.976H130.475L131.699 150.056C132.119 149.444 132.347 148.64 132.347 147.74C132.347 145.772 131.279 144.26 129.359 144.26C127.439 144.26 126.371 145.772 126.371 147.74C126.371 149.708 127.439 151.22 129.359 151.22ZM137.758 152.144C135.922 152.144 134.506 151.196 134.506 149.144V143.48H135.526V149.036C135.526 150.476 136.402 151.22 137.758 151.22C139.114 151.22 139.99 150.476 139.99 149.036V143.48H141.01V149.144C141.01 151.196 139.594 152.144 137.758 152.144ZM143.573 151.076H148.517V152H142.517V143.48H148.457V144.404H143.573V147.116H147.977V148.016H143.573V151.076Z" fill="black"/>
<path d="M163.056 88.48C165.636 88.48 166.872 90.22 166.872 92.74C166.872 95.26 165.636 97 163.056 97H159.912V88.48H163.056ZM162.936 96.076C164.916 96.076 165.816 94.72 165.816 92.74C165.816 90.76 164.916 89.404 162.936 89.404H160.932V96.076H162.936ZM169.107 96.076H174.051V97H168.051V88.48H173.991V89.404H169.107V92.116H173.511V93.016H169.107V96.076ZM178.241 97.144C175.925 97.144 174.785 95.908 174.641 94.264H175.685C175.853 95.644 176.741 96.232 178.277 96.232C179.477 96.232 180.329 95.716 180.329 94.66C180.329 93.484 179.297 93.34 177.761 92.896C176.261 92.464 174.941 92.14 174.941 90.568C174.941 89.236 176.201 88.336 177.893 88.336C179.897 88.336 181.001 89.344 181.241 90.808H180.233C180.053 89.716 179.165 89.248 177.893 89.248C176.777 89.248 175.985 89.728 175.985 90.544C175.985 91.456 176.921 91.696 178.205 92.044C179.861 92.5 181.373 92.86 181.373 94.66C181.373 96.208 180.065 97.144 178.241 97.144ZM183.497 88.48V97H182.477V88.48H183.497ZM188.577 97.144C186.165 97.144 184.653 95.26 184.653 92.74C184.653 90.22 186.213 88.336 188.697 88.336C190.677 88.336 191.889 89.524 192.249 91.06H191.193C190.917 90.004 190.017 89.26 188.697 89.26C186.777 89.26 185.709 90.772 185.709 92.74C185.709 94.708 186.777 96.22 188.697 96.22C190.293 96.22 191.241 95.14 191.241 93.76V93.4H188.457V92.5H192.261V97H191.301V95.536C190.893 96.508 189.909 97.144 188.577 97.144ZM199.536 88.48H200.556V97H199.212L194.712 89.728V97H193.692V88.48H195.036L199.536 95.752V88.48Z" fill="black"/>
<path d="M168.384 143.48V152H167.364V144.56L164.652 152H163.644L160.932 144.56V152H159.912V143.48H161.532L164.148 150.74L166.764 143.48H168.384ZM173.585 152.144C171.101 152.144 169.541 150.26 169.541 147.74C169.541 145.22 171.101 143.336 173.585 143.336C176.069 143.336 177.629 145.22 177.629 147.74C177.629 150.26 176.069 152.144 173.585 152.144ZM173.585 151.22C175.505 151.22 176.573 149.708 176.573 147.74C176.573 145.772 175.505 144.26 173.585 144.26C171.665 144.26 170.597 145.772 170.597 147.74C170.597 149.708 171.665 151.22 173.585 151.22ZM184.624 143.48H185.644V152H184.3L179.8 144.728V152H178.78V143.48H180.124L184.624 150.752V143.48ZM193.271 143.48V144.416H190.415V152H189.395V144.416H186.527V143.48H193.271ZM197.695 143.48C199.351 143.48 200.443 144.368 200.443 145.724C200.443 146.864 199.711 147.632 198.559 147.812C199.663 147.98 200.059 148.652 200.179 149.948C200.275 151.028 200.527 151.592 200.767 152H199.615C199.447 151.604 199.243 151.124 199.135 149.912C199.027 148.664 198.595 148.244 197.299 148.244H195.175V152H194.155V143.48H197.695ZM197.419 147.356C198.715 147.356 199.399 146.852 199.399 145.88C199.399 144.896 198.715 144.404 197.419 144.404H195.175V147.356H197.419ZM207.106 141.56L205.306 142.94H204.346L205.606 141.56H207.106ZM202.846 151.076H207.79V152H201.79V143.48H207.73V144.404H202.846V147.116H207.25V148.016H202.846V151.076ZM214.538 152L213.71 149.636H209.978L209.138 152H208.082L211.202 143.48H212.522L215.642 152H214.538ZM210.278 148.76H213.398L211.838 144.344L210.278 148.76ZM217.447 151.064H222.067V152H216.427V143.48H217.447V151.064ZM228.613 152L227.785 149.636H224.053L223.213 152H222.157L225.277 143.48H226.597L229.717 152H228.613ZM224.353 148.76H227.473L225.913 144.344L224.353 148.76ZM231.522 143.48V152H230.502V143.48H231.522ZM236.146 152.144C233.83 152.144 232.69 150.908 232.546 149.264H233.59C233.758 150.644 234.646 151.232 236.182 151.232C237.382 151.232 238.234 150.716 238.234 149.66C238.234 148.484 237.202 148.34 235.666 147.896C234.166 147.464 232.846 147.14 232.846 145.568C232.846 144.236 234.106 143.336 235.798 143.336C237.802 143.336 238.906 144.344 239.146 145.808H238.138C237.958 144.716 237.07 144.248 235.798 144.248C234.682 144.248 233.89 144.728 233.89 145.544C233.89 146.456 234.826 146.696 236.11 147.044C237.766 147.5 239.278 147.86 239.278 149.66C239.278 151.208 237.97 152.144 236.146 152.144Z" fill="black"/>
<path d="M270.41 86.144C268.094 86.144 266.954 84.908 266.81 83.264H267.854C268.022 84.644 268.91 85.232 270.446 85.232C271.646 85.232 272.498 84.716 272.498 83.66C272.498 82.484 271.466 82.34 269.93 81.896C268.43 81.464 267.11 81.14 267.11 79.568C267.11 78.236 268.37 77.336 270.062 77.336C272.066 77.336 273.17 78.344 273.41 79.808H272.402C272.222 78.716 271.334 78.248 270.062 78.248C268.946 78.248 268.154 78.728 268.154 79.544C268.154 80.456 269.09 80.696 270.374 81.044C272.03 81.5 273.542 81.86 273.542 83.66C273.542 85.208 272.234 86.144 270.41 86.144ZM280.295 77.48V78.416H277.439V86H276.419V78.416H273.551V77.48H280.295ZM284.359 86.144C282.523 86.144 281.107 85.196 281.107 83.144V77.48H282.127V83.036C282.127 84.476 283.003 85.22 284.359 85.22C285.715 85.22 286.591 84.476 286.591 83.036V77.48H287.611V83.144C287.611 85.196 286.195 86.144 284.359 86.144ZM292.263 77.48C294.843 77.48 296.079 79.22 296.079 81.74C296.079 84.26 294.843 86 292.263 86H289.119V77.48H292.263ZM292.143 85.076C294.123 85.076 295.023 83.72 295.023 81.74C295.023 79.76 294.123 78.404 292.143 78.404H290.139V85.076H292.143ZM298.277 77.48V86H297.257V77.48H298.277ZM303.477 86.144C300.993 86.144 299.433 84.26 299.433 81.74C299.433 79.22 300.993 77.336 303.477 77.336C305.961 77.336 307.521 79.22 307.521 81.74C307.521 84.26 305.961 86.144 303.477 86.144ZM303.477 85.22C305.397 85.22 306.465 83.708 306.465 81.74C306.465 79.772 305.397 78.26 303.477 78.26C301.557 78.26 300.489 79.772 300.489 81.74C300.489 83.708 301.557 85.22 303.477 85.22Z" fill="black"/>
<path d="M270.41 130.144C268.094 130.144 266.954 128.908 266.81 127.264H267.854C268.022 128.644 268.91 129.232 270.446 129.232C271.646 129.232 272.498 128.716 272.498 127.66C272.498 126.484 271.466 126.34 269.93 125.896C268.43 125.464 267.11 125.14 267.11 123.568C267.11 122.236 268.37 121.336 270.062 121.336C272.066 121.336 273.17 122.344 273.41 123.808H272.402C272.222 122.716 271.334 122.248 270.062 122.248C268.946 122.248 268.154 122.728 268.154 123.544C268.154 124.456 269.09 124.696 270.374 125.044C272.03 125.5 273.542 125.86 273.542 127.66C273.542 129.208 272.234 130.144 270.41 130.144ZM280.295 121.48V122.416H277.439V130H276.419V122.416H273.551V121.48H280.295ZM284.359 130.144C282.523 130.144 281.107 129.196 281.107 127.144V121.48H282.127V127.036C282.127 128.476 283.003 129.22 284.359 129.22C285.715 129.22 286.591 128.476 286.591 127.036V121.48H287.611V127.144C287.611 129.196 286.195 130.144 284.359 130.144ZM292.263 121.48C294.843 121.48 296.079 123.22 296.079 125.74C296.079 128.26 294.843 130 292.263 130H289.119V121.48H292.263ZM292.143 129.076C294.123 129.076 295.023 127.72 295.023 125.74C295.023 123.76 294.123 122.404 292.143 122.404H290.139V129.076H292.143ZM298.277 121.48V130H297.257V121.48H298.277ZM303.477 130.144C300.993 130.144 299.433 128.26 299.433 125.74C299.433 123.22 300.993 121.336 303.477 121.336C305.961 121.336 307.521 123.22 307.521 125.74C307.521 128.26 305.961 130.144 303.477 130.144ZM303.477 129.22C305.397 129.22 306.465 127.708 306.465 125.74C306.465 123.772 305.397 122.26 303.477 122.26C301.557 122.26 300.489 123.772 300.489 125.74C300.489 127.708 301.557 129.22 303.477 129.22Z" fill="black"/>
<path d="M269.592 132.48C272.172 132.48 273.408 134.22 273.408 136.74C273.408 139.26 272.172 141 269.592 141H266.448V132.48H269.592ZM269.472 140.076C271.452 140.076 272.352 138.72 272.352 136.74C272.352 134.76 271.452 133.404 269.472 133.404H267.468V140.076H269.472ZM275.643 140.076H280.587V141H274.587V132.48H280.527V133.404H275.643V136.116H280.047V137.016H275.643V140.076ZM284.777 141.144C282.461 141.144 281.321 139.908 281.177 138.264H282.221C282.389 139.644 283.277 140.232 284.813 140.232C286.013 140.232 286.865 139.716 286.865 138.66C286.865 137.484 285.833 137.34 284.297 136.896C282.797 136.464 281.477 136.14 281.477 134.568C281.477 133.236 282.737 132.336 284.429 132.336C286.433 132.336 287.537 133.344 287.777 134.808H286.769C286.589 133.716 285.701 133.248 284.429 133.248C283.313 133.248 282.521 133.728 282.521 134.544C282.521 135.456 283.457 135.696 284.741 136.044C286.397 136.5 287.909 136.86 287.909 138.66C287.909 140.208 286.601 141.144 284.777 141.144ZM290.033 132.48V141H289.013V132.48H290.033ZM295.113 141.144C292.701 141.144 291.189 139.26 291.189 136.74C291.189 134.22 292.749 132.336 295.233 132.336C297.213 132.336 298.425 133.524 298.785 135.06H297.729C297.453 134.004 296.553 133.26 295.233 133.26C293.313 133.26 292.245 134.772 292.245 136.74C292.245 138.708 293.313 140.22 295.233 140.22C296.829 140.22 297.777 139.14 297.777 137.76V137.4H294.993V136.5H298.797V141H297.837V139.536C297.429 140.508 296.445 141.144 295.113 141.144ZM306.072 132.48H307.092V141H305.748L301.248 133.728V141H300.228V132.48H301.572L306.072 139.752V132.48Z" fill="black"/>
<path d="M236.675 110.48V119H235.655V111.56L232.943 119H231.935L229.223 111.56V119H228.203V110.48H229.823L232.439 117.74L235.055 110.48H236.675ZM241.875 119.144C239.391 119.144 237.831 117.26 237.831 114.74C237.831 112.22 239.391 110.336 241.875 110.336C244.359 110.336 245.919 112.22 245.919 114.74C245.919 117.26 244.359 119.144 241.875 119.144ZM241.875 118.22C243.795 118.22 244.863 116.708 244.863 114.74C244.863 112.772 243.795 111.26 241.875 111.26C239.955 111.26 238.887 112.772 238.887 114.74C238.887 116.708 239.955 118.22 241.875 118.22ZM252.914 110.48H253.934V119H252.59L248.09 111.728V119H247.07V110.48H248.414L252.914 117.752V110.48ZM261.562 110.48V111.416H258.706V119H257.686V111.416H254.818V110.48H261.562ZM265.986 110.48C267.642 110.48 268.734 111.368 268.734 112.724C268.734 113.864 268.002 114.632 266.85 114.812C267.954 114.98 268.35 115.652 268.47 116.948C268.566 118.028 268.818 118.592 269.058 119H267.906C267.738 118.604 267.534 118.124 267.426 116.912C267.318 115.664 266.886 115.244 265.59 115.244H263.466V119H262.446V110.48H265.986ZM265.71 114.356C267.006 114.356 267.69 113.852 267.69 112.88C267.69 111.896 267.006 111.404 265.71 111.404H263.466V114.356H265.71ZM275.397 108.56L273.597 109.94H272.637L273.897 108.56H275.397ZM271.137 118.076H276.081V119H270.081V110.48H276.021V111.404H271.137V114.116H275.541V115.016H271.137V118.076ZM282.829 119L282.001 116.636H278.269L277.429 119H276.373L279.493 110.48H280.813L283.933 119H282.829ZM278.569 115.76H281.689L280.129 111.344L278.569 115.76ZM285.738 118.064H290.358V119H284.718V110.48H285.738V118.064ZM296.903 119L296.075 116.636H292.343L291.503 119H290.447L293.567 110.48H294.887L298.007 119H296.903ZM292.643 115.76H295.763L294.203 111.344L292.643 115.76ZM299.813 110.48V119H298.793V110.48H299.813ZM304.436 119.144C302.12 119.144 300.98 117.908 300.836 116.264H301.88C302.048 117.644 302.936 118.232 304.472 118.232C305.672 118.232 306.524 117.716 306.524 116.66C306.524 115.484 305.492 115.34 303.956 114.896C302.456 114.464 301.136 114.14 301.136 112.568C301.136 111.236 302.396 110.336 304.088 110.336C306.092 110.336 307.196 111.344 307.436 112.808H306.428C306.248 111.716 305.36 111.248 304.088 111.248C302.972 111.248 302.18 111.728 302.18 112.544C302.18 113.456 303.116 113.696 304.4 114.044C306.056 114.5 307.568 114.86 307.568 116.66C307.568 118.208 306.26 119.144 304.436 119.144Z" fill="black"/>
</svg>
