<svg width="308" height="76" viewBox="0 0 308 76" fill="none" xmlns="http://www.w3.org/2000/svg">
<path d="M5.448 4.488C6.66 4.596 7.512 5.328 7.512 6.528C7.512 8.04 6.456 9 4.728 9H0.912V0.48H4.548C6.108 0.48 7.164 1.284 7.164 2.64C7.164 3.696 6.396 4.344 5.448 4.488ZM4.548 1.404H1.932V4.14H4.548C5.58 4.14 6.12 3.588 6.12 2.748C6.12 1.908 5.58 1.404 4.548 1.404ZM4.728 8.076C5.832 8.076 6.456 7.512 6.456 6.528C6.456 5.568 5.796 5.016 4.668 5.016H1.932V8.076H4.728ZM9.21675 8.064H14.5328V9H8.00475V8.064L13.2008 1.416H8.24475V0.48H14.4128V1.416L9.21675 8.064ZM18.962 9.144C16.478 9.144 14.918 7.26 14.918 4.74C14.918 2.22 16.478 0.335999 18.962 0.335999C21.446 0.335999 23.006 2.22 23.006 4.74C23.006 7.26 21.446 9.144 18.962 9.144ZM18.962 8.22C20.882 8.22 21.95 6.708 21.95 4.74C21.95 2.772 20.882 1.26 18.962 1.26C17.042 1.26 15.974 2.772 15.974 4.74C15.974 6.708 17.042 8.22 18.962 8.22ZM25.1768 0.48V9H24.1568V0.48H25.1768ZM32.6085 0.48H33.6285V9H32.2845L27.7845 1.728V9H26.7645V0.48H28.1085L32.6085 7.752V0.48ZM38.7001 9.144C36.2881 9.144 34.7761 7.26 34.7761 4.74C34.7761 2.22 36.3361 0.335999 38.8201 0.335999C40.8001 0.335999 42.0121 1.524 42.3721 3.06H41.3161C41.0401 2.004 40.1401 1.26 38.8201 1.26C36.9001 1.26 35.8321 2.772 35.8321 4.74C35.8321 6.708 36.9001 8.22 38.8201 8.22C40.4161 8.22 41.3641 7.14 41.3641 5.76V5.4H38.5801V4.5H42.3841V9H41.4241V7.536C41.0161 8.508 40.0321 9.144 38.7001 9.144Z" fill="black"/>
<path d="M5.448 48.488C6.66 48.596 7.512 49.328 7.512 50.528C7.512 52.04 6.456 53 4.728 53H0.912V44.48H4.548C6.108 44.48 7.164 45.284 7.164 46.64C7.164 47.696 6.396 48.344 5.448 48.488ZM4.548 45.404H1.932V48.14H4.548C5.58 48.14 6.12 47.588 6.12 46.748C6.12 45.908 5.58 45.404 4.548 45.404ZM4.728 52.076C5.832 52.076 6.456 51.512 6.456 50.528C6.456 49.568 5.796 49.016 4.668 49.016H1.932V52.076H4.728ZM9.21675 52.064H14.5328V53H8.00475V52.064L13.2008 45.416H8.24475V44.48H14.4128V45.416L9.21675 52.064ZM18.962 53.144C16.478 53.144 14.918 51.26 14.918 48.74C14.918 46.22 16.478 44.336 18.962 44.336C21.446 44.336 23.006 46.22 23.006 48.74C23.006 51.26 21.446 53.144 18.962 53.144ZM18.962 52.22C20.882 52.22 21.95 50.708 21.95 48.74C21.95 46.772 20.882 45.26 18.962 45.26C17.042 45.26 15.974 46.772 15.974 48.74C15.974 50.708 17.042 52.22 18.962 52.22ZM25.1768 44.48V53H24.1568V44.48H25.1768ZM32.6085 44.48H33.6285V53H32.2845L27.7845 45.728V53H26.7645V44.48H28.1085L32.6085 51.752V44.48ZM38.7001 53.144C36.2881 53.144 34.7761 51.26 34.7761 48.74C34.7761 46.22 36.3361 44.336 38.8201 44.336C40.8001 44.336 42.0121 45.524 42.3721 47.06H41.3161C41.0401 46.004 40.1401 45.26 38.8201 45.26C36.9001 45.26 35.8321 46.772 35.8321 48.74C35.8321 50.708 36.9001 52.22 38.8201 52.22C40.4161 52.22 41.3641 51.14 41.3641 49.76V49.4H38.5801V48.5H42.3841V53H41.4241V51.536C41.0161 52.508 40.0321 53.144 38.7001 53.144Z" fill="black"/>
<path d="M4.056 55.48C6.636 55.48 7.872 57.22 7.872 59.74C7.872 62.26 6.636 64 4.056 64H0.912V55.48H4.056ZM3.936 63.076C5.916 63.076 6.816 61.72 6.816 59.74C6.816 57.76 5.916 56.404 3.936 56.404H1.932V63.076H3.936ZM10.1069 63.076H15.0509V64H9.05091V55.48H14.9909V56.404H10.1069V59.116H14.5109V60.016H10.1069V63.076Z" fill="black"/>
<path d="M4.404 31.144C1.992 31.144 0.48 29.26 0.48 26.74C0.48 24.22 2.04 22.336 4.524 22.336C6.504 22.336 7.716 23.524 8.076 25.06H7.02C6.744 24.004 5.844 23.26 4.524 23.26C2.604 23.26 1.536 24.772 1.536 26.74C1.536 28.708 2.604 30.22 4.524 30.22C6.12 30.22 7.068 29.14 7.068 27.76V27.4H4.284V26.5H8.088V31H7.128V29.536C6.72 30.508 5.736 31.144 4.404 31.144ZM13.0597 22.48C14.7157 22.48 15.8077 23.368 15.8077 24.724C15.8077 25.864 15.0757 26.632 13.9237 26.812C15.0277 26.98 15.4237 27.652 15.5437 28.948C15.6397 30.028 15.8917 30.592 16.1317 31H14.9797C14.8117 30.604 14.6077 30.124 14.4997 28.912C14.3917 27.664 13.9597 27.244 12.6637 27.244H10.5397V31H9.51966V22.48H13.0597ZM12.7837 26.356C14.0797 26.356 14.7637 25.852 14.7637 24.88C14.7637 23.896 14.0797 23.404 12.7837 23.404H10.5397V26.356H12.7837ZM22.8067 31L21.9787 28.636H18.2467L17.4067 31H16.3507L19.4707 22.48H20.7907L23.9107 31H22.8067ZM18.5467 27.76H21.6667L20.1067 23.344L18.5467 27.76ZM28.2239 22.48C29.8079 22.48 30.8159 23.464 30.8159 24.904C30.8159 26.344 29.8079 27.328 28.2239 27.328H25.7159V31H24.6959V22.48H28.2239ZM28.0439 26.404C29.1239 26.404 29.7719 25.9 29.7719 24.904C29.7719 23.908 29.1239 23.404 28.0439 23.404H25.7159V26.404H28.0439ZM37.3004 22.48H38.3204V31H37.3004V27.016H32.7884V31H31.7684V22.48H32.7884V26.116H37.3004V22.48ZM40.9273 22.48V31H39.9073V22.48H40.9273ZM50.651 31H49.379L48.623 30.328C47.963 30.844 47.123 31.144 46.127 31.144C43.643 31.144 42.083 29.26 42.083 26.74C42.083 24.22 43.643 22.336 46.127 22.336C48.611 22.336 50.171 24.22 50.171 26.74C50.171 27.916 49.835 28.96 49.211 29.728L50.651 31ZM46.127 30.22C46.823 30.22 47.411 30.016 47.879 29.668L45.971 27.976H47.243L48.467 29.056C48.887 28.444 49.115 27.64 49.115 26.74C49.115 24.772 48.047 23.26 46.127 23.26C44.207 23.26 43.139 24.772 43.139 26.74C43.139 28.708 44.207 30.22 46.127 30.22ZM54.5253 31.144C52.6893 31.144 51.2733 30.196 51.2733 28.144V22.48H52.2933V28.036C52.2933 29.476 53.1693 30.22 54.5253 30.22C55.8813 30.22 56.7573 29.476 56.7573 28.036V22.48H57.7773V28.144C57.7773 30.196 56.3613 31.144 54.5253 31.144ZM60.341 30.076H65.285V31H59.285V22.48H65.225V23.404H60.341V26.116H64.745V27.016H60.341V30.076Z" fill="black"/>
<path d="M137.523 11.48C140.103 11.48 141.339 13.22 141.339 15.74C141.339 18.26 140.103 20 137.523 20H134.379V11.48H137.523ZM137.403 19.076C139.383 19.076 140.283 17.72 140.283 15.74C140.283 13.76 139.383 12.404 137.403 12.404H135.399V19.076H137.403ZM143.573 19.076H148.517V20H142.517V11.48H148.457V12.404H143.573V15.116H147.977V16.016H143.573V19.076Z" fill="black"/>
<path d="M87.6365 75.144C85.2245 75.144 83.7125 73.26 83.7125 70.74C83.7125 68.22 85.2725 66.336 87.7565 66.336C89.7365 66.336 90.9485 67.524 91.3085 69.06H90.2525C89.9765 68.004 89.0765 67.26 87.7565 67.26C85.8365 67.26 84.7685 68.772 84.7685 70.74C84.7685 72.708 85.8365 74.22 87.7565 74.22C89.3525 74.22 90.3005 73.14 90.3005 71.76V71.4H87.5165V70.5H91.3205V75H90.3605V73.536C89.9525 74.508 88.9685 75.144 87.6365 75.144ZM96.2922 66.48C97.9482 66.48 99.0402 67.368 99.0402 68.724C99.0402 69.864 98.3082 70.632 97.1562 70.812C98.2602 70.98 98.6562 71.652 98.7762 72.948C98.8722 74.028 99.1242 74.592 99.3642 75H98.2122C98.0442 74.604 97.8402 74.124 97.7322 72.912C97.6242 71.664 97.1922 71.244 95.8962 71.244H93.7722V75H92.7522V66.48H96.2922ZM96.0162 70.356C97.3122 70.356 97.9962 69.852 97.9962 68.88C97.9962 67.896 97.3122 67.404 96.0162 67.404H93.7722V70.356H96.0162ZM106.039 75L105.211 72.636H101.479L100.639 75H99.5832L102.703 66.48H104.023L107.143 75H106.039ZM101.779 71.76H104.899L103.339 67.344L101.779 71.76ZM111.456 66.48C113.04 66.48 114.048 67.464 114.048 68.904C114.048 70.344 113.04 71.328 111.456 71.328H108.948V75H107.928V66.48H111.456ZM111.276 70.404C112.356 70.404 113.004 69.9 113.004 68.904C113.004 67.908 112.356 67.404 111.276 67.404H108.948V70.404H111.276ZM120.533 66.48H121.553V75H120.533V71.016H116.021V75H115.001V66.48H116.021V70.116H120.533V66.48ZM124.16 66.48V75H123.14V66.48H124.16ZM133.883 75H132.611L131.855 74.328C131.195 74.844 130.355 75.144 129.359 75.144C126.875 75.144 125.315 73.26 125.315 70.74C125.315 68.22 126.875 66.336 129.359 66.336C131.843 66.336 133.403 68.22 133.403 70.74C133.403 71.916 133.067 72.96 132.443 73.728L133.883 75ZM129.359 74.22C130.055 74.22 130.643 74.016 131.111 73.668L129.203 71.976H130.475L131.699 73.056C132.119 72.444 132.347 71.64 132.347 70.74C132.347 68.772 131.279 67.26 129.359 67.26C127.439 67.26 126.371 68.772 126.371 70.74C126.371 72.708 127.439 74.22 129.359 74.22ZM137.758 75.144C135.922 75.144 134.506 74.196 134.506 72.144V66.48H135.526V72.036C135.526 73.476 136.402 74.22 137.758 74.22C139.114 74.22 139.99 73.476 139.99 72.036V66.48H141.01V72.144C141.01 74.196 139.594 75.144 137.758 75.144ZM143.573 74.076H148.517V75H142.517V66.48H148.457V67.404H143.573V70.116H147.977V71.016H143.573V74.076Z" fill="black"/>
<path d="M163.056 11.48C165.636 11.48 166.872 13.22 166.872 15.74C166.872 18.26 165.636 20 163.056 20H159.912V11.48H163.056ZM162.936 19.076C164.916 19.076 165.816 17.72 165.816 15.74C165.816 13.76 164.916 12.404 162.936 12.404H160.932V19.076H162.936ZM169.107 19.076H174.051V20H168.051V11.48H173.991V12.404H169.107V15.116H173.511V16.016H169.107V19.076ZM178.241 20.144C175.925 20.144 174.785 18.908 174.641 17.264H175.685C175.853 18.644 176.741 19.232 178.277 19.232C179.477 19.232 180.329 18.716 180.329 17.66C180.329 16.484 179.297 16.34 177.761 15.896C176.261 15.464 174.941 15.14 174.941 13.568C174.941 12.236 176.201 11.336 177.893 11.336C179.897 11.336 181.001 12.344 181.241 13.808H180.233C180.053 12.716 179.165 12.248 177.893 12.248C176.777 12.248 175.985 12.728 175.985 13.544C175.985 14.456 176.921 14.696 178.205 15.044C179.861 15.5 181.373 15.86 181.373 17.66C181.373 19.208 180.065 20.144 178.241 20.144ZM183.497 11.48V20H182.477V11.48H183.497ZM188.577 20.144C186.165 20.144 184.653 18.26 184.653 15.74C184.653 13.22 186.213 11.336 188.697 11.336C190.677 11.336 191.889 12.524 192.249 14.06H191.193C190.917 13.004 190.017 12.26 188.697 12.26C186.777 12.26 185.709 13.772 185.709 15.74C185.709 17.708 186.777 19.22 188.697 19.22C190.293 19.22 191.241 18.14 191.241 16.76V16.4H188.457V15.5H192.261V20H191.301V18.536C190.893 19.508 189.909 20.144 188.577 20.144ZM199.536 11.48H200.556V20H199.212L194.712 12.728V20H193.692V11.48H195.036L199.536 18.752V11.48Z" fill="black"/>
<path d="M168.384 66.48V75H167.364V67.56L164.652 75H163.644L160.932 67.56V75H159.912V66.48H161.532L164.148 73.74L166.764 66.48H168.384ZM173.585 75.144C171.101 75.144 169.541 73.26 169.541 70.74C169.541 68.22 171.101 66.336 173.585 66.336C176.069 66.336 177.629 68.22 177.629 70.74C177.629 73.26 176.069 75.144 173.585 75.144ZM173.585 74.22C175.505 74.22 176.573 72.708 176.573 70.74C176.573 68.772 175.505 67.26 173.585 67.26C171.665 67.26 170.597 68.772 170.597 70.74C170.597 72.708 171.665 74.22 173.585 74.22ZM184.624 66.48H185.644V75H184.3L179.8 67.728V75H178.78V66.48H180.124L184.624 73.752V66.48ZM193.271 66.48V67.416H190.415V75H189.395V67.416H186.527V66.48H193.271ZM197.695 66.48C199.351 66.48 200.443 67.368 200.443 68.724C200.443 69.864 199.711 70.632 198.559 70.812C199.663 70.98 200.059 71.652 200.179 72.948C200.275 74.028 200.527 74.592 200.767 75H199.615C199.447 74.604 199.243 74.124 199.135 72.912C199.027 71.664 198.595 71.244 197.299 71.244H195.175V75H194.155V66.48H197.695ZM197.419 70.356C198.715 70.356 199.399 69.852 199.399 68.88C199.399 67.896 198.715 67.404 197.419 67.404H195.175V70.356H197.419ZM207.106 64.56L205.306 65.94H204.346L205.606 64.56H207.106ZM202.846 74.076H207.79V75H201.79V66.48H207.73V67.404H202.846V70.116H207.25V71.016H202.846V74.076ZM214.538 75L213.71 72.636H209.978L209.138 75H208.082L211.202 66.48H212.522L215.642 75H214.538ZM210.278 71.76H213.398L211.838 67.344L210.278 71.76ZM217.447 74.064H222.067V75H216.427V66.48H217.447V74.064ZM228.613 75L227.785 72.636H224.053L223.213 75H222.157L225.277 66.48H226.597L229.717 75H228.613ZM224.353 71.76H227.473L225.913 67.344L224.353 71.76ZM231.522 66.48V75H230.502V66.48H231.522ZM236.146 75.144C233.83 75.144 232.69 73.908 232.546 72.264H233.59C233.758 73.644 234.646 74.232 236.182 74.232C237.382 74.232 238.234 73.716 238.234 72.66C238.234 71.484 237.202 71.34 235.666 70.896C234.166 70.464 232.846 70.14 232.846 68.568C232.846 67.236 234.106 66.336 235.798 66.336C237.802 66.336 238.906 67.344 239.146 68.808H238.138C237.958 67.716 237.07 67.248 235.798 67.248C234.682 67.248 233.89 67.728 233.89 68.544C233.89 69.456 234.826 69.696 236.11 70.044C237.766 70.5 239.278 70.86 239.278 72.66C239.278 74.208 237.97 75.144 236.146 75.144Z" fill="black"/>
<path d="M270.41 9.144C268.094 9.144 266.954 7.908 266.81 6.264H267.854C268.022 7.644 268.91 8.232 270.446 8.232C271.646 8.232 272.498 7.716 272.498 6.66C272.498 5.484 271.466 5.34 269.93 4.896C268.43 4.464 267.11 4.14 267.11 2.568C267.11 1.236 268.37 0.335999 270.062 0.335999C272.066 0.335999 273.17 1.344 273.41 2.808H272.402C272.222 1.716 271.334 1.248 270.062 1.248C268.946 1.248 268.154 1.728 268.154 2.544C268.154 3.456 269.09 3.696 270.374 4.044C272.03 4.5 273.542 4.86 273.542 6.66C273.542 8.208 272.234 9.144 270.41 9.144ZM280.295 0.48V1.416H277.439V9H276.419V1.416H273.551V0.48H280.295ZM284.359 9.144C282.523 9.144 281.107 8.196 281.107 6.144V0.48H282.127V6.036C282.127 7.476 283.003 8.22 284.359 8.22C285.715 8.22 286.591 7.476 286.591 6.036V0.48H287.611V6.144C287.611 8.196 286.195 9.144 284.359 9.144ZM292.263 0.48C294.843 0.48 296.079 2.22 296.079 4.74C296.079 7.26 294.843 9 292.263 9H289.119V0.48H292.263ZM292.143 8.076C294.123 8.076 295.023 6.72 295.023 4.74C295.023 2.76 294.123 1.404 292.143 1.404H290.139V8.076H292.143ZM298.277 0.48V9H297.257V0.48H298.277ZM303.477 9.144C300.993 9.144 299.433 7.26 299.433 4.74C299.433 2.22 300.993 0.335999 303.477 0.335999C305.961 0.335999 307.521 2.22 307.521 4.74C307.521 7.26 305.961 9.144 303.477 9.144ZM303.477 8.22C305.397 8.22 306.465 6.708 306.465 4.74C306.465 2.772 305.397 1.26 303.477 1.26C301.557 1.26 300.489 2.772 300.489 4.74C300.489 6.708 301.557 8.22 303.477 8.22Z" fill="black"/>
<path d="M270.41 53.144C268.094 53.144 266.954 51.908 266.81 50.264H267.854C268.022 51.644 268.91 52.232 270.446 52.232C271.646 52.232 272.498 51.716 272.498 50.66C272.498 49.484 271.466 49.34 269.93 48.896C268.43 48.464 267.11 48.14 267.11 46.568C267.11 45.236 268.37 44.336 270.062 44.336C272.066 44.336 273.17 45.344 273.41 46.808H272.402C272.222 45.716 271.334 45.248 270.062 45.248C268.946 45.248 268.154 45.728 268.154 46.544C268.154 47.456 269.09 47.696 270.374 48.044C272.03 48.5 273.542 48.86 273.542 50.66C273.542 52.208 272.234 53.144 270.41 53.144ZM280.295 44.48V45.416H277.439V53H276.419V45.416H273.551V44.48H280.295ZM284.359 53.144C282.523 53.144 281.107 52.196 281.107 50.144V44.48H282.127V50.036C282.127 51.476 283.003 52.22 284.359 52.22C285.715 52.22 286.591 51.476 286.591 50.036V44.48H287.611V50.144C287.611 52.196 286.195 53.144 284.359 53.144ZM292.263 44.48C294.843 44.48 296.079 46.22 296.079 48.74C296.079 51.26 294.843 53 292.263 53H289.119V44.48H292.263ZM292.143 52.076C294.123 52.076 295.023 50.72 295.023 48.74C295.023 46.76 294.123 45.404 292.143 45.404H290.139V52.076H292.143ZM298.277 44.48V53H297.257V44.48H298.277ZM303.477 53.144C300.993 53.144 299.433 51.26 299.433 48.74C299.433 46.22 300.993 44.336 303.477 44.336C305.961 44.336 307.521 46.22 307.521 48.74C307.521 51.26 305.961 53.144 303.477 53.144ZM303.477 52.22C305.397 52.22 306.465 50.708 306.465 48.74C306.465 46.772 305.397 45.26 303.477 45.26C301.557 45.26 300.489 46.772 300.489 48.74C300.489 50.708 301.557 52.22 303.477 52.22Z" fill="black"/>
<path d="M269.592 55.48C272.172 55.48 273.408 57.22 273.408 59.74C273.408 62.26 272.172 64 269.592 64H266.448V55.48H269.592ZM269.472 63.076C271.452 63.076 272.352 61.72 272.352 59.74C272.352 57.76 271.452 56.404 269.472 56.404H267.468V63.076H269.472ZM275.643 63.076H280.587V64H274.587V55.48H280.527V56.404H275.643V59.116H280.047V60.016H275.643V63.076ZM284.777 64.144C282.461 64.144 281.321 62.908 281.177 61.264H282.221C282.389 62.644 283.277 63.232 284.813 63.232C286.013 63.232 286.865 62.716 286.865 61.66C286.865 60.484 285.833 60.34 284.297 59.896C282.797 59.464 281.477 59.14 281.477 57.568C281.477 56.236 282.737 55.336 284.429 55.336C286.433 55.336 287.537 56.344 287.777 57.808H286.769C286.589 56.716 285.701 56.248 284.429 56.248C283.313 56.248 282.521 56.728 282.521 57.544C282.521 58.456 283.457 58.696 284.741 59.044C286.397 59.5 287.909 59.86 287.909 61.66C287.909 63.208 286.601 64.144 284.777 64.144ZM290.033 55.48V64H289.013V55.48H290.033ZM295.113 64.144C292.701 64.144 291.189 62.26 291.189 59.74C291.189 57.22 292.749 55.336 295.233 55.336C297.213 55.336 298.425 56.524 298.785 58.06H297.729C297.453 57.004 296.553 56.26 295.233 56.26C293.313 56.26 292.245 57.772 292.245 59.74C292.245 61.708 293.313 63.22 295.233 63.22C296.829 63.22 297.777 62.14 297.777 60.76V60.4H294.993V59.5H298.797V64H297.837V62.536C297.429 63.508 296.445 64.144 295.113 64.144ZM306.072 55.48H307.092V64H305.748L301.248 56.728V64H300.228V55.48H301.572L306.072 62.752V55.48Z" fill="black"/>
<path d="M236.675 33.48V42H235.655V34.56L232.943 42H231.935L229.223 34.56V42H228.203V33.48H229.823L232.439 40.74L235.055 33.48H236.675ZM241.875 42.144C239.391 42.144 237.831 40.26 237.831 37.74C237.831 35.22 239.391 33.336 241.875 33.336C244.359 33.336 245.919 35.22 245.919 37.74C245.919 40.26 244.359 42.144 241.875 42.144ZM241.875 41.22C243.795 41.22 244.863 39.708 244.863 37.74C244.863 35.772 243.795 34.26 241.875 34.26C239.955 34.26 238.887 35.772 238.887 37.74C238.887 39.708 239.955 41.22 241.875 41.22ZM252.914 33.48H253.934V42H252.59L248.09 34.728V42H247.07V33.48H248.414L252.914 40.752V33.48ZM261.562 33.48V34.416H258.706V42H257.686V34.416H254.818V33.48H261.562ZM265.986 33.48C267.642 33.48 268.734 34.368 268.734 35.724C268.734 36.864 268.002 37.632 266.85 37.812C267.954 37.98 268.35 38.652 268.47 39.948C268.566 41.028 268.818 41.592 269.058 42H267.906C267.738 41.604 267.534 41.124 267.426 39.912C267.318 38.664 266.886 38.244 265.59 38.244H263.466V42H262.446V33.48H265.986ZM265.71 37.356C267.006 37.356 267.69 36.852 267.69 35.88C267.69 34.896 267.006 34.404 265.71 34.404H263.466V37.356H265.71ZM275.397 31.56L273.597 32.94H272.637L273.897 31.56H275.397ZM271.137 41.076H276.081V42H270.081V33.48H276.021V34.404H271.137V37.116H275.541V38.016H271.137V41.076ZM282.829 42L282.001 39.636H278.269L277.429 42H276.373L279.493 33.48H280.813L283.933 42H282.829ZM278.569 38.76H281.689L280.129 34.344L278.569 38.76ZM285.738 41.064H290.358V42H284.718V33.48H285.738V41.064ZM296.903 42L296.075 39.636H292.343L291.503 42H290.447L293.567 33.48H294.887L298.007 42H296.903ZM292.643 38.76H295.763L294.203 34.344L292.643 38.76ZM299.813 33.48V42H298.793V33.48H299.813ZM304.436 42.144C302.12 42.144 300.98 40.908 300.836 39.264H301.88C302.048 40.644 302.936 41.232 304.472 41.232C305.672 41.232 306.524 40.716 306.524 39.66C306.524 38.484 305.492 38.34 303.956 37.896C302.456 37.464 301.136 37.14 301.136 35.568C301.136 34.236 302.396 33.336 304.088 33.336C306.092 33.336 307.196 34.344 307.436 35.808H306.428C306.248 34.716 305.36 34.248 304.088 34.248C302.972 34.248 302.18 34.728 302.18 35.544C302.18 36.456 303.116 36.696 304.4 37.044C306.056 37.5 307.568 37.86 307.568 39.66C307.568 41.208 306.26 42.144 304.436 42.144Z" fill="black"/>
</svg>
