<svg width="308" height="461" viewBox="0 0 308 461" fill="none" xmlns="http://www.w3.org/2000/svg">
<path d="M5.448 4.488C6.66 4.596 7.512 5.328 7.512 6.528C7.512 8.04 6.456 9 4.728 9H0.912V0.48H4.548C6.108 0.48 7.164 1.284 7.164 2.64C7.164 3.696 6.396 4.344 5.448 4.488ZM4.548 1.404H1.932V4.14H4.548C5.58 4.14 6.12 3.588 6.12 2.748C6.12 1.908 5.58 1.404 4.548 1.404ZM4.728 8.076C5.832 8.076 6.456 7.512 6.456 6.528C6.456 5.568 5.796 5.016 4.668 5.016H1.932V8.076H4.728ZM9.21675 8.064H14.5328V9H8.00475V8.064L13.2008 1.416H8.24475V0.48H14.4128V1.416L9.21675 8.064ZM18.962 9.144C16.478 9.144 14.918 7.26 14.918 4.74C14.918 2.22 16.478 0.335999 18.962 0.335999C21.446 0.335999 23.006 2.22 23.006 4.74C23.006 7.26 21.446 9.144 18.962 9.144ZM18.962 8.22C20.882 8.22 21.95 6.708 21.95 4.74C21.95 2.772 20.882 1.26 18.962 1.26C17.042 1.26 15.974 2.772 15.974 4.74C15.974 6.708 17.042 8.22 18.962 8.22ZM25.1768 0.48V9H24.1568V0.48H25.1768ZM32.6085 0.48H33.6285V9H32.2845L27.7845 1.728V9H26.7645V0.48H28.1085L32.6085 7.752V0.48ZM38.7001 9.144C36.2881 9.144 34.7761 7.26 34.7761 4.74C34.7761 2.22 36.3361 0.335999 38.8201 0.335999C40.8001 0.335999 42.0121 1.524 42.3721 3.06H41.3161C41.0401 2.004 40.1401 1.26 38.8201 1.26C36.9001 1.26 35.8321 2.772 35.8321 4.74C35.8321 6.708 36.9001 8.22 38.8201 8.22C40.4161 8.22 41.3641 7.14 41.3641 5.76V5.4H38.5801V4.5H42.3841V9H41.4241V7.536C41.0161 8.508 40.0321 9.144 38.7001 9.144Z" fill="black"/>
<path d="M5.448 48.488C6.66 48.596 7.512 49.328 7.512 50.528C7.512 52.04 6.456 53 4.728 53H0.912V44.48H4.548C6.108 44.48 7.164 45.284 7.164 46.64C7.164 47.696 6.396 48.344 5.448 48.488ZM4.548 45.404H1.932V48.14H4.548C5.58 48.14 6.12 47.588 6.12 46.748C6.12 45.908 5.58 45.404 4.548 45.404ZM4.728 52.076C5.832 52.076 6.456 51.512 6.456 50.528C6.456 49.568 5.796 49.016 4.668 49.016H1.932V52.076H4.728ZM9.21675 52.064H14.5328V53H8.00475V52.064L13.2008 45.416H8.24475V44.48H14.4128V45.416L9.21675 52.064ZM18.962 53.144C16.478 53.144 14.918 51.26 14.918 48.74C14.918 46.22 16.478 44.336 18.962 44.336C21.446 44.336 23.006 46.22 23.006 48.74C23.006 51.26 21.446 53.144 18.962 53.144ZM18.962 52.22C20.882 52.22 21.95 50.708 21.95 48.74C21.95 46.772 20.882 45.26 18.962 45.26C17.042 45.26 15.974 46.772 15.974 48.74C15.974 50.708 17.042 52.22 18.962 52.22ZM25.1768 44.48V53H24.1568V44.48H25.1768ZM32.6085 44.48H33.6285V53H32.2845L27.7845 45.728V53H26.7645V44.48H28.1085L32.6085 51.752V44.48ZM38.7001 53.144C36.2881 53.144 34.7761 51.26 34.7761 48.74C34.7761 46.22 36.3361 44.336 38.8201 44.336C40.8001 44.336 42.0121 45.524 42.3721 47.06H41.3161C41.0401 46.004 40.1401 45.26 38.8201 45.26C36.9001 45.26 35.8321 46.772 35.8321 48.74C35.8321 50.708 36.9001 52.22 38.8201 52.22C40.4161 52.22 41.3641 51.14 41.3641 49.76V49.4H38.5801V48.5H42.3841V53H41.4241V51.536C41.0161 52.508 40.0321 53.144 38.7001 53.144Z" fill="black"/>
<path d="M4.056 55.48C6.636 55.48 7.872 57.22 7.872 59.74C7.872 62.26 6.636 64 4.056 64H0.912V55.48H4.056ZM3.936 63.076C5.916 63.076 6.816 61.72 6.816 59.74C6.816 57.76 5.916 56.404 3.936 56.404H1.932V63.076H3.936ZM10.1069 63.076H15.0509V64H9.05091V55.48H14.9909V56.404H10.1069V59.116H14.5109V60.016H10.1069V63.076Z" fill="black"/>
<path d="M4.404 31.144C1.992 31.144 0.48 29.26 0.48 26.74C0.48 24.22 2.04 22.336 4.524 22.336C6.504 22.336 7.716 23.524 8.076 25.06H7.02C6.744 24.004 5.844 23.26 4.524 23.26C2.604 23.26 1.536 24.772 1.536 26.74C1.536 28.708 2.604 30.22 4.524 30.22C6.12 30.22 7.068 29.14 7.068 27.76V27.4H4.284V26.5H8.088V31H7.128V29.536C6.72 30.508 5.736 31.144 4.404 31.144ZM13.0597 22.48C14.7157 22.48 15.8077 23.368 15.8077 24.724C15.8077 25.864 15.0757 26.632 13.9237 26.812C15.0277 26.98 15.4237 27.652 15.5437 28.948C15.6397 30.028 15.8917 30.592 16.1317 31H14.9797C14.8117 30.604 14.6077 30.124 14.4997 28.912C14.3917 27.664 13.9597 27.244 12.6637 27.244H10.5397V31H9.51966V22.48H13.0597ZM12.7837 26.356C14.0797 26.356 14.7637 25.852 14.7637 24.88C14.7637 23.896 14.0797 23.404 12.7837 23.404H10.5397V26.356H12.7837ZM22.8067 31L21.9787 28.636H18.2467L17.4067 31H16.3507L19.4707 22.48H20.7907L23.9107 31H22.8067ZM18.5467 27.76H21.6667L20.1067 23.344L18.5467 27.76ZM28.2239 22.48C29.8079 22.48 30.8159 23.464 30.8159 24.904C30.8159 26.344 29.8079 27.328 28.2239 27.328H25.7159V31H24.6959V22.48H28.2239ZM28.0439 26.404C29.1239 26.404 29.7719 25.9 29.7719 24.904C29.7719 23.908 29.1239 23.404 28.0439 23.404H25.7159V26.404H28.0439ZM37.3004 22.48H38.3204V31H37.3004V27.016H32.7884V31H31.7684V22.48H32.7884V26.116H37.3004V22.48ZM40.9273 22.48V31H39.9073V22.48H40.9273ZM50.651 31H49.379L48.623 30.328C47.963 30.844 47.123 31.144 46.127 31.144C43.643 31.144 42.083 29.26 42.083 26.74C42.083 24.22 43.643 22.336 46.127 22.336C48.611 22.336 50.171 24.22 50.171 26.74C50.171 27.916 49.835 28.96 49.211 29.728L50.651 31ZM46.127 30.22C46.823 30.22 47.411 30.016 47.879 29.668L45.971 27.976H47.243L48.467 29.056C48.887 28.444 49.115 27.64 49.115 26.74C49.115 24.772 48.047 23.26 46.127 23.26C44.207 23.26 43.139 24.772 43.139 26.74C43.139 28.708 44.207 30.22 46.127 30.22ZM54.5253 31.144C52.6893 31.144 51.2733 30.196 51.2733 28.144V22.48H52.2933V28.036C52.2933 29.476 53.1693 30.22 54.5253 30.22C55.8813 30.22 56.7573 29.476 56.7573 28.036V22.48H57.7773V28.144C57.7773 30.196 56.3613 31.144 54.5253 31.144ZM60.341 30.076H65.285V31H59.285V22.48H65.225V23.404H60.341V26.116H64.745V27.016H60.341V30.076Z" fill="black"/>
<path d="M137.523 11.48C140.103 11.48 141.339 13.22 141.339 15.74C141.339 18.26 140.103 20 137.523 20H134.379V11.48H137.523ZM137.403 19.076C139.383 19.076 140.283 17.72 140.283 15.74C140.283 13.76 139.383 12.404 137.403 12.404H135.399V19.076H137.403ZM143.573 19.076H148.517V20H142.517V11.48H148.457V12.404H143.573V15.116H147.977V16.016H143.573V19.076Z" fill="black"/>
<path d="M87.6365 75.144C85.2245 75.144 83.7125 73.26 83.7125 70.74C83.7125 68.22 85.2725 66.336 87.7565 66.336C89.7365 66.336 90.9485 67.524 91.3085 69.06H90.2525C89.9765 68.004 89.0765 67.26 87.7565 67.26C85.8365 67.26 84.7685 68.772 84.7685 70.74C84.7685 72.708 85.8365 74.22 87.7565 74.22C89.3525 74.22 90.3005 73.14 90.3005 71.76V71.4H87.5165V70.5H91.3205V75H90.3605V73.536C89.9525 74.508 88.9685 75.144 87.6365 75.144ZM96.2922 66.48C97.9482 66.48 99.0402 67.368 99.0402 68.724C99.0402 69.864 98.3082 70.632 97.1562 70.812C98.2602 70.98 98.6562 71.652 98.7762 72.948C98.8722 74.028 99.1242 74.592 99.3642 75H98.2122C98.0442 74.604 97.8402 74.124 97.7322 72.912C97.6242 71.664 97.1922 71.244 95.8962 71.244H93.7722V75H92.7522V66.48H96.2922ZM96.0162 70.356C97.3122 70.356 97.9962 69.852 97.9962 68.88C97.9962 67.896 97.3122 67.404 96.0162 67.404H93.7722V70.356H96.0162ZM106.039 75L105.211 72.636H101.479L100.639 75H99.5832L102.703 66.48H104.023L107.143 75H106.039ZM101.779 71.76H104.899L103.339 67.344L101.779 71.76ZM111.456 66.48C113.04 66.48 114.048 67.464 114.048 68.904C114.048 70.344 113.04 71.328 111.456 71.328H108.948V75H107.928V66.48H111.456ZM111.276 70.404C112.356 70.404 113.004 69.9 113.004 68.904C113.004 67.908 112.356 67.404 111.276 67.404H108.948V70.404H111.276ZM120.533 66.48H121.553V75H120.533V71.016H116.021V75H115.001V66.48H116.021V70.116H120.533V66.48ZM124.16 66.48V75H123.14V66.48H124.16ZM133.883 75H132.611L131.855 74.328C131.195 74.844 130.355 75.144 129.359 75.144C126.875 75.144 125.315 73.26 125.315 70.74C125.315 68.22 126.875 66.336 129.359 66.336C131.843 66.336 133.403 68.22 133.403 70.74C133.403 71.916 133.067 72.96 132.443 73.728L133.883 75ZM129.359 74.22C130.055 74.22 130.643 74.016 131.111 73.668L129.203 71.976H130.475L131.699 73.056C132.119 72.444 132.347 71.64 132.347 70.74C132.347 68.772 131.279 67.26 129.359 67.26C127.439 67.26 126.371 68.772 126.371 70.74C126.371 72.708 127.439 74.22 129.359 74.22ZM137.758 75.144C135.922 75.144 134.506 74.196 134.506 72.144V66.48H135.526V72.036C135.526 73.476 136.402 74.22 137.758 74.22C139.114 74.22 139.99 73.476 139.99 72.036V66.48H141.01V72.144C141.01 74.196 139.594 75.144 137.758 75.144ZM143.573 74.076H148.517V75H142.517V66.48H148.457V67.404H143.573V70.116H147.977V71.016H143.573V74.076Z" fill="black"/>
<path d="M163.056 11.48C165.636 11.48 166.872 13.22 166.872 15.74C166.872 18.26 165.636 20 163.056 20H159.912V11.48H163.056ZM162.936 19.076C164.916 19.076 165.816 17.72 165.816 15.74C165.816 13.76 164.916 12.404 162.936 12.404H160.932V19.076H162.936ZM169.107 19.076H174.051V20H168.051V11.48H173.991V12.404H169.107V15.116H173.511V16.016H169.107V19.076ZM178.241 20.144C175.925 20.144 174.785 18.908 174.641 17.264H175.685C175.853 18.644 176.741 19.232 178.277 19.232C179.477 19.232 180.329 18.716 180.329 17.66C180.329 16.484 179.297 16.34 177.761 15.896C176.261 15.464 174.941 15.14 174.941 13.568C174.941 12.236 176.201 11.336 177.893 11.336C179.897 11.336 181.001 12.344 181.241 13.808H180.233C180.053 12.716 179.165 12.248 177.893 12.248C176.777 12.248 175.985 12.728 175.985 13.544C175.985 14.456 176.921 14.696 178.205 15.044C179.861 15.5 181.373 15.86 181.373 17.66C181.373 19.208 180.065 20.144 178.241 20.144ZM183.497 11.48V20H182.477V11.48H183.497ZM188.577 20.144C186.165 20.144 184.653 18.26 184.653 15.74C184.653 13.22 186.213 11.336 188.697 11.336C190.677 11.336 191.889 12.524 192.249 14.06H191.193C190.917 13.004 190.017 12.26 188.697 12.26C186.777 12.26 185.709 13.772 185.709 15.74C185.709 17.708 186.777 19.22 188.697 19.22C190.293 19.22 191.241 18.14 191.241 16.76V16.4H188.457V15.5H192.261V20H191.301V18.536C190.893 19.508 189.909 20.144 188.577 20.144ZM199.536 11.48H200.556V20H199.212L194.712 12.728V20H193.692V11.48H195.036L199.536 18.752V11.48Z" fill="black"/>
<path d="M168.384 66.48V75H167.364V67.56L164.652 75H163.644L160.932 67.56V75H159.912V66.48H161.532L164.148 73.74L166.764 66.48H168.384ZM173.585 75.144C171.101 75.144 169.541 73.26 169.541 70.74C169.541 68.22 171.101 66.336 173.585 66.336C176.069 66.336 177.629 68.22 177.629 70.74C177.629 73.26 176.069 75.144 173.585 75.144ZM173.585 74.22C175.505 74.22 176.573 72.708 176.573 70.74C176.573 68.772 175.505 67.26 173.585 67.26C171.665 67.26 170.597 68.772 170.597 70.74C170.597 72.708 171.665 74.22 173.585 74.22ZM184.624 66.48H185.644V75H184.3L179.8 67.728V75H178.78V66.48H180.124L184.624 73.752V66.48ZM193.271 66.48V67.416H190.415V75H189.395V67.416H186.527V66.48H193.271ZM197.695 66.48C199.351 66.48 200.443 67.368 200.443 68.724C200.443 69.864 199.711 70.632 198.559 70.812C199.663 70.98 200.059 71.652 200.179 72.948C200.275 74.028 200.527 74.592 200.767 75H199.615C199.447 74.604 199.243 74.124 199.135 72.912C199.027 71.664 198.595 71.244 197.299 71.244H195.175V75H194.155V66.48H197.695ZM197.419 70.356C198.715 70.356 199.399 69.852 199.399 68.88C199.399 67.896 198.715 67.404 197.419 67.404H195.175V70.356H197.419ZM207.106 64.56L205.306 65.94H204.346L205.606 64.56H207.106ZM202.846 74.076H207.79V75H201.79V66.48H207.73V67.404H202.846V70.116H207.25V71.016H202.846V74.076ZM214.538 75L213.71 72.636H209.978L209.138 75H208.082L211.202 66.48H212.522L215.642 75H214.538ZM210.278 71.76H213.398L211.838 67.344L210.278 71.76ZM217.447 74.064H222.067V75H216.427V66.48H217.447V74.064ZM228.613 75L227.785 72.636H224.053L223.213 75H222.157L225.277 66.48H226.597L229.717 75H228.613ZM224.353 71.76H227.473L225.913 67.344L224.353 71.76ZM231.522 66.48V75H230.502V66.48H231.522ZM236.146 75.144C233.83 75.144 232.69 73.908 232.546 72.264H233.59C233.758 73.644 234.646 74.232 236.182 74.232C237.382 74.232 238.234 73.716 238.234 72.66C238.234 71.484 237.202 71.34 235.666 70.896C234.166 70.464 232.846 70.14 232.846 68.568C232.846 67.236 234.106 66.336 235.798 66.336C237.802 66.336 238.906 67.344 239.146 68.808H238.138C237.958 67.716 237.07 67.248 235.798 67.248C234.682 67.248 233.89 67.728 233.89 68.544C233.89 69.456 234.826 69.696 236.11 70.044C237.766 70.5 239.278 70.86 239.278 72.66C239.278 74.208 237.97 75.144 236.146 75.144Z" fill="black"/>
<path d="M270.41 9.144C268.094 9.144 266.954 7.908 266.81 6.264H267.854C268.022 7.644 268.91 8.232 270.446 8.232C271.646 8.232 272.498 7.716 272.498 6.66C272.498 5.484 271.466 5.34 269.93 4.896C268.43 4.464 267.11 4.14 267.11 2.568C267.11 1.236 268.37 0.335999 270.062 0.335999C272.066 0.335999 273.17 1.344 273.41 2.808H272.402C272.222 1.716 271.334 1.248 270.062 1.248C268.946 1.248 268.154 1.728 268.154 2.544C268.154 3.456 269.09 3.696 270.374 4.044C272.03 4.5 273.542 4.86 273.542 6.66C273.542 8.208 272.234 9.144 270.41 9.144ZM280.295 0.48V1.416H277.439V9H276.419V1.416H273.551V0.48H280.295ZM284.359 9.144C282.523 9.144 281.107 8.196 281.107 6.144V0.48H282.127V6.036C282.127 7.476 283.003 8.22 284.359 8.22C285.715 8.22 286.591 7.476 286.591 6.036V0.48H287.611V6.144C287.611 8.196 286.195 9.144 284.359 9.144ZM292.263 0.48C294.843 0.48 296.079 2.22 296.079 4.74C296.079 7.26 294.843 9 292.263 9H289.119V0.48H292.263ZM292.143 8.076C294.123 8.076 295.023 6.72 295.023 4.74C295.023 2.76 294.123 1.404 292.143 1.404H290.139V8.076H292.143ZM298.277 0.48V9H297.257V0.48H298.277ZM303.477 9.144C300.993 9.144 299.433 7.26 299.433 4.74C299.433 2.22 300.993 0.335999 303.477 0.335999C305.961 0.335999 307.521 2.22 307.521 4.74C307.521 7.26 305.961 9.144 303.477 9.144ZM303.477 8.22C305.397 8.22 306.465 6.708 306.465 4.74C306.465 2.772 305.397 1.26 303.477 1.26C301.557 1.26 300.489 2.772 300.489 4.74C300.489 6.708 301.557 8.22 303.477 8.22Z" fill="black"/>
<path d="M270.41 53.144C268.094 53.144 266.954 51.908 266.81 50.264H267.854C268.022 51.644 268.91 52.232 270.446 52.232C271.646 52.232 272.498 51.716 272.498 50.66C272.498 49.484 271.466 49.34 269.93 48.896C268.43 48.464 267.11 48.14 267.11 46.568C267.11 45.236 268.37 44.336 270.062 44.336C272.066 44.336 273.17 45.344 273.41 46.808H272.402C272.222 45.716 271.334 45.248 270.062 45.248C268.946 45.248 268.154 45.728 268.154 46.544C268.154 47.456 269.09 47.696 270.374 48.044C272.03 48.5 273.542 48.86 273.542 50.66C273.542 52.208 272.234 53.144 270.41 53.144ZM280.295 44.48V45.416H277.439V53H276.419V45.416H273.551V44.48H280.295ZM284.359 53.144C282.523 53.144 281.107 52.196 281.107 50.144V44.48H282.127V50.036C282.127 51.476 283.003 52.22 284.359 52.22C285.715 52.22 286.591 51.476 286.591 50.036V44.48H287.611V50.144C287.611 52.196 286.195 53.144 284.359 53.144ZM292.263 44.48C294.843 44.48 296.079 46.22 296.079 48.74C296.079 51.26 294.843 53 292.263 53H289.119V44.48H292.263ZM292.143 52.076C294.123 52.076 295.023 50.72 295.023 48.74C295.023 46.76 294.123 45.404 292.143 45.404H290.139V52.076H292.143ZM298.277 44.48V53H297.257V44.48H298.277ZM303.477 53.144C300.993 53.144 299.433 51.26 299.433 48.74C299.433 46.22 300.993 44.336 303.477 44.336C305.961 44.336 307.521 46.22 307.521 48.74C307.521 51.26 305.961 53.144 303.477 53.144ZM303.477 52.22C305.397 52.22 306.465 50.708 306.465 48.74C306.465 46.772 305.397 45.26 303.477 45.26C301.557 45.26 300.489 46.772 300.489 48.74C300.489 50.708 301.557 52.22 303.477 52.22Z" fill="black"/>
<path d="M269.592 55.48C272.172 55.48 273.408 57.22 273.408 59.74C273.408 62.26 272.172 64 269.592 64H266.448V55.48H269.592ZM269.472 63.076C271.452 63.076 272.352 61.72 272.352 59.74C272.352 57.76 271.452 56.404 269.472 56.404H267.468V63.076H269.472ZM275.643 63.076H280.587V64H274.587V55.48H280.527V56.404H275.643V59.116H280.047V60.016H275.643V63.076ZM284.777 64.144C282.461 64.144 281.321 62.908 281.177 61.264H282.221C282.389 62.644 283.277 63.232 284.813 63.232C286.013 63.232 286.865 62.716 286.865 61.66C286.865 60.484 285.833 60.34 284.297 59.896C282.797 59.464 281.477 59.14 281.477 57.568C281.477 56.236 282.737 55.336 284.429 55.336C286.433 55.336 287.537 56.344 287.777 57.808H286.769C286.589 56.716 285.701 56.248 284.429 56.248C283.313 56.248 282.521 56.728 282.521 57.544C282.521 58.456 283.457 58.696 284.741 59.044C286.397 59.5 287.909 59.86 287.909 61.66C287.909 63.208 286.601 64.144 284.777 64.144ZM290.033 55.48V64H289.013V55.48H290.033ZM295.113 64.144C292.701 64.144 291.189 62.26 291.189 59.74C291.189 57.22 292.749 55.336 295.233 55.336C297.213 55.336 298.425 56.524 298.785 58.06H297.729C297.453 57.004 296.553 56.26 295.233 56.26C293.313 56.26 292.245 57.772 292.245 59.74C292.245 61.708 293.313 63.22 295.233 63.22C296.829 63.22 297.777 62.14 297.777 60.76V60.4H294.993V59.5H298.797V64H297.837V62.536C297.429 63.508 296.445 64.144 295.113 64.144ZM306.072 55.48H307.092V64H305.748L301.248 56.728V64H300.228V55.48H301.572L306.072 62.752V55.48Z" fill="black"/>
<path d="M236.675 33.48V42H235.655V34.56L232.943 42H231.935L229.223 34.56V42H228.203V33.48H229.823L232.439 40.74L235.055 33.48H236.675ZM241.875 42.144C239.391 42.144 237.831 40.26 237.831 37.74C237.831 35.22 239.391 33.336 241.875 33.336C244.359 33.336 245.919 35.22 245.919 37.74C245.919 40.26 244.359 42.144 241.875 42.144ZM241.875 41.22C243.795 41.22 244.863 39.708 244.863 37.74C244.863 35.772 243.795 34.26 241.875 34.26C239.955 34.26 238.887 35.772 238.887 37.74C238.887 39.708 239.955 41.22 241.875 41.22ZM252.914 33.48H253.934V42H252.59L248.09 34.728V42H247.07V33.48H248.414L252.914 40.752V33.48ZM261.562 33.48V34.416H258.706V42H257.686V34.416H254.818V33.48H261.562ZM265.986 33.48C267.642 33.48 268.734 34.368 268.734 35.724C268.734 36.864 268.002 37.632 266.85 37.812C267.954 37.98 268.35 38.652 268.47 39.948C268.566 41.028 268.818 41.592 269.058 42H267.906C267.738 41.604 267.534 41.124 267.426 39.912C267.318 38.664 266.886 38.244 265.59 38.244H263.466V42H262.446V33.48H265.986ZM265.71 37.356C267.006 37.356 267.69 36.852 267.69 35.88C267.69 34.896 267.006 34.404 265.71 34.404H263.466V37.356H265.71ZM275.397 31.56L273.597 32.94H272.637L273.897 31.56H275.397ZM271.137 41.076H276.081V42H270.081V33.48H276.021V34.404H271.137V37.116H275.541V38.016H271.137V41.076ZM282.829 42L282.001 39.636H278.269L277.429 42H276.373L279.493 33.48H280.813L283.933 42H282.829ZM278.569 38.76H281.689L280.129 34.344L278.569 38.76ZM285.738 41.064H290.358V42H284.718V33.48H285.738V41.064ZM296.903 42L296.075 39.636H292.343L291.503 42H290.447L293.567 33.48H294.887L298.007 42H296.903ZM292.643 38.76H295.763L294.203 34.344L292.643 38.76ZM299.813 33.48V42H298.793V33.48H299.813ZM304.436 42.144C302.12 42.144 300.98 40.908 300.836 39.264H301.88C302.048 40.644 302.936 41.232 304.472 41.232C305.672 41.232 306.524 40.716 306.524 39.66C306.524 38.484 305.492 38.34 303.956 37.896C302.456 37.464 301.136 37.14 301.136 35.568C301.136 34.236 302.396 33.336 304.088 33.336C306.092 33.336 307.196 34.344 307.436 35.808H306.428C306.248 34.716 305.36 34.248 304.088 34.248C302.972 34.248 302.18 34.728 302.18 35.544C302.18 36.456 303.116 36.696 304.4 37.044C306.056 37.5 307.568 37.86 307.568 39.66C307.568 41.208 306.26 42.144 304.436 42.144Z" fill="black"/>
<path d="M5.448 389.488C6.66 389.596 7.512 390.328 7.512 391.528C7.512 393.04 6.456 394 4.728 394H0.912V385.48H4.548C6.108 385.48 7.164 386.284 7.164 387.64C7.164 388.696 6.396 389.344 5.448 389.488ZM4.548 386.404H1.932V389.14H4.548C5.58 389.14 6.12 388.588 6.12 387.748C6.12 386.908 5.58 386.404 4.548 386.404ZM4.728 393.076C5.832 393.076 6.456 392.512 6.456 391.528C6.456 390.568 5.796 390.016 4.668 390.016H1.932V393.076H4.728ZM9.21675 393.064H14.5328V394H8.00475V393.064L13.2008 386.416H8.24475V385.48H14.4128V386.416L9.21675 393.064ZM18.962 394.144C16.478 394.144 14.918 392.26 14.918 389.74C14.918 387.22 16.478 385.336 18.962 385.336C21.446 385.336 23.006 387.22 23.006 389.74C23.006 392.26 21.446 394.144 18.962 394.144ZM18.962 393.22C20.882 393.22 21.95 391.708 21.95 389.74C21.95 387.772 20.882 386.26 18.962 386.26C17.042 386.26 15.974 387.772 15.974 389.74C15.974 391.708 17.042 393.22 18.962 393.22ZM25.1768 385.48V394H24.1568V385.48H25.1768ZM32.6085 385.48H33.6285V394H32.2845L27.7845 386.728V394H26.7645V385.48H28.1085L32.6085 392.752V385.48ZM38.7001 394.144C36.2881 394.144 34.7761 392.26 34.7761 389.74C34.7761 387.22 36.3361 385.336 38.8201 385.336C40.8001 385.336 42.0121 386.524 42.3721 388.06H41.3161C41.0401 387.004 40.1401 386.26 38.8201 386.26C36.9001 386.26 35.8321 387.772 35.8321 389.74C35.8321 391.708 36.9001 393.22 38.8201 393.22C40.4161 393.22 41.3641 392.14 41.3641 390.76V390.4H38.5801V389.5H42.3841V394H41.4241V392.536C41.0161 393.508 40.0321 394.144 38.7001 394.144Z" fill="black"/>
<path d="M5.448 433.488C6.66 433.596 7.512 434.328 7.512 435.528C7.512 437.04 6.456 438 4.728 438H0.912V429.48H4.548C6.108 429.48 7.164 430.284 7.164 431.64C7.164 432.696 6.396 433.344 5.448 433.488ZM4.548 430.404H1.932V433.14H4.548C5.58 433.14 6.12 432.588 6.12 431.748C6.12 430.908 5.58 430.404 4.548 430.404ZM4.728 437.076C5.832 437.076 6.456 436.512 6.456 435.528C6.456 434.568 5.796 434.016 4.668 434.016H1.932V437.076H4.728ZM9.21675 437.064H14.5328V438H8.00475V437.064L13.2008 430.416H8.24475V429.48H14.4128V430.416L9.21675 437.064ZM18.962 438.144C16.478 438.144 14.918 436.26 14.918 433.74C14.918 431.22 16.478 429.336 18.962 429.336C21.446 429.336 23.006 431.22 23.006 433.74C23.006 436.26 21.446 438.144 18.962 438.144ZM18.962 437.22C20.882 437.22 21.95 435.708 21.95 433.74C21.95 431.772 20.882 430.26 18.962 430.26C17.042 430.26 15.974 431.772 15.974 433.74C15.974 435.708 17.042 437.22 18.962 437.22ZM25.1768 429.48V438H24.1568V429.48H25.1768ZM32.6085 429.48H33.6285V438H32.2845L27.7845 430.728V438H26.7645V429.48H28.1085L32.6085 436.752V429.48ZM38.7001 438.144C36.2881 438.144 34.7761 436.26 34.7761 433.74C34.7761 431.22 36.3361 429.336 38.8201 429.336C40.8001 429.336 42.0121 430.524 42.3721 432.06H41.3161C41.0401 431.004 40.1401 430.26 38.8201 430.26C36.9001 430.26 35.8321 431.772 35.8321 433.74C35.8321 435.708 36.9001 437.22 38.8201 437.22C40.4161 437.22 41.3641 436.14 41.3641 434.76V434.4H38.5801V433.5H42.3841V438H41.4241V436.536C41.0161 437.508 40.0321 438.144 38.7001 438.144Z" fill="black"/>
<path d="M4.056 440.48C6.636 440.48 7.872 442.22 7.872 444.74C7.872 447.26 6.636 449 4.056 449H0.912V440.48H4.056ZM3.936 448.076C5.916 448.076 6.816 446.72 6.816 444.74C6.816 442.76 5.916 441.404 3.936 441.404H1.932V448.076H3.936ZM10.1069 448.076H15.0509V449H9.05091V440.48H14.9909V441.404H10.1069V444.116H14.5109V445.016H10.1069V448.076Z" fill="black"/>
<path d="M4.404 416.144C1.992 416.144 0.48 414.26 0.48 411.74C0.48 409.22 2.04 407.336 4.524 407.336C6.504 407.336 7.716 408.524 8.076 410.06H7.02C6.744 409.004 5.844 408.26 4.524 408.26C2.604 408.26 1.536 409.772 1.536 411.74C1.536 413.708 2.604 415.22 4.524 415.22C6.12 415.22 7.068 414.14 7.068 412.76V412.4H4.284V411.5H8.088V416H7.128V414.536C6.72 415.508 5.736 416.144 4.404 416.144ZM13.0597 407.48C14.7157 407.48 15.8077 408.368 15.8077 409.724C15.8077 410.864 15.0757 411.632 13.9237 411.812C15.0277 411.98 15.4237 412.652 15.5437 413.948C15.6397 415.028 15.8917 415.592 16.1317 416H14.9797C14.8117 415.604 14.6077 415.124 14.4997 413.912C14.3917 412.664 13.9597 412.244 12.6637 412.244H10.5397V416H9.51966V407.48H13.0597ZM12.7837 411.356C14.0797 411.356 14.7637 410.852 14.7637 409.88C14.7637 408.896 14.0797 408.404 12.7837 408.404H10.5397V411.356H12.7837ZM22.8067 416L21.9787 413.636H18.2467L17.4067 416H16.3507L19.4707 407.48H20.7907L23.9107 416H22.8067ZM18.5467 412.76H21.6667L20.1067 408.344L18.5467 412.76ZM28.2239 407.48C29.8079 407.48 30.8159 408.464 30.8159 409.904C30.8159 411.344 29.8079 412.328 28.2239 412.328H25.7159V416H24.6959V407.48H28.2239ZM28.0439 411.404C29.1239 411.404 29.7719 410.9 29.7719 409.904C29.7719 408.908 29.1239 408.404 28.0439 408.404H25.7159V411.404H28.0439ZM37.3004 407.48H38.3204V416H37.3004V412.016H32.7884V416H31.7684V407.48H32.7884V411.116H37.3004V407.48ZM40.9273 407.48V416H39.9073V407.48H40.9273ZM50.651 416H49.379L48.623 415.328C47.963 415.844 47.123 416.144 46.127 416.144C43.643 416.144 42.083 414.26 42.083 411.74C42.083 409.22 43.643 407.336 46.127 407.336C48.611 407.336 50.171 409.22 50.171 411.74C50.171 412.916 49.835 413.96 49.211 414.728L50.651 416ZM46.127 415.22C46.823 415.22 47.411 415.016 47.879 414.668L45.971 412.976H47.243L48.467 414.056C48.887 413.444 49.115 412.64 49.115 411.74C49.115 409.772 48.047 408.26 46.127 408.26C44.207 408.26 43.139 409.772 43.139 411.74C43.139 413.708 44.207 415.22 46.127 415.22ZM54.5253 416.144C52.6893 416.144 51.2733 415.196 51.2733 413.144V407.48H52.2933V413.036C52.2933 414.476 53.1693 415.22 54.5253 415.22C55.8813 415.22 56.7573 414.476 56.7573 413.036V407.48H57.7773V413.144C57.7773 415.196 56.3613 416.144 54.5253 416.144ZM60.341 415.076H65.285V416H59.285V407.48H65.225V408.404H60.341V411.116H64.745V412.016H60.341V415.076Z" fill="black"/>
<path d="M137.523 396.48C140.103 396.48 141.339 398.22 141.339 400.74C141.339 403.26 140.103 405 137.523 405H134.379V396.48H137.523ZM137.403 404.076C139.383 404.076 140.283 402.72 140.283 400.74C140.283 398.76 139.383 397.404 137.403 397.404H135.399V404.076H137.403ZM143.573 404.076H148.517V405H142.517V396.48H148.457V397.404H143.573V400.116H147.977V401.016H143.573V404.076Z" fill="black"/>
<path d="M87.6365 460.144C85.2245 460.144 83.7125 458.26 83.7125 455.74C83.7125 453.22 85.2725 451.336 87.7565 451.336C89.7365 451.336 90.9485 452.524 91.3085 454.06H90.2525C89.9765 453.004 89.0765 452.26 87.7565 452.26C85.8365 452.26 84.7685 453.772 84.7685 455.74C84.7685 457.708 85.8365 459.22 87.7565 459.22C89.3525 459.22 90.3005 458.14 90.3005 456.76V456.4H87.5165V455.5H91.3205V460H90.3605V458.536C89.9525 459.508 88.9685 460.144 87.6365 460.144ZM96.2922 451.48C97.9482 451.48 99.0402 452.368 99.0402 453.724C99.0402 454.864 98.3082 455.632 97.1562 455.812C98.2602 455.98 98.6562 456.652 98.7762 457.948C98.8722 459.028 99.1242 459.592 99.3642 460H98.2122C98.0442 459.604 97.8402 459.124 97.7322 457.912C97.6242 456.664 97.1922 456.244 95.8962 456.244H93.7722V460H92.7522V451.48H96.2922ZM96.0162 455.356C97.3122 455.356 97.9962 454.852 97.9962 453.88C97.9962 452.896 97.3122 452.404 96.0162 452.404H93.7722V455.356H96.0162ZM106.039 460L105.211 457.636H101.479L100.639 460H99.5832L102.703 451.48H104.023L107.143 460H106.039ZM101.779 456.76H104.899L103.339 452.344L101.779 456.76ZM111.456 451.48C113.04 451.48 114.048 452.464 114.048 453.904C114.048 455.344 113.04 456.328 111.456 456.328H108.948V460H107.928V451.48H111.456ZM111.276 455.404C112.356 455.404 113.004 454.9 113.004 453.904C113.004 452.908 112.356 452.404 111.276 452.404H108.948V455.404H111.276ZM120.533 451.48H121.553V460H120.533V456.016H116.021V460H115.001V451.48H116.021V455.116H120.533V451.48ZM124.16 451.48V460H123.14V451.48H124.16ZM133.883 460H132.611L131.855 459.328C131.195 459.844 130.355 460.144 129.359 460.144C126.875 460.144 125.315 458.26 125.315 455.74C125.315 453.22 126.875 451.336 129.359 451.336C131.843 451.336 133.403 453.22 133.403 455.74C133.403 456.916 133.067 457.96 132.443 458.728L133.883 460ZM129.359 459.22C130.055 459.22 130.643 459.016 131.111 458.668L129.203 456.976H130.475L131.699 458.056C132.119 457.444 132.347 456.64 132.347 455.74C132.347 453.772 131.279 452.26 129.359 452.26C127.439 452.26 126.371 453.772 126.371 455.74C126.371 457.708 127.439 459.22 129.359 459.22ZM137.758 460.144C135.922 460.144 134.506 459.196 134.506 457.144V451.48H135.526V457.036C135.526 458.476 136.402 459.22 137.758 459.22C139.114 459.22 139.99 458.476 139.99 457.036V451.48H141.01V457.144C141.01 459.196 139.594 460.144 137.758 460.144ZM143.573 459.076H148.517V460H142.517V451.48H148.457V452.404H143.573V455.116H147.977V456.016H143.573V459.076Z" fill="black"/>
<path d="M163.056 396.48C165.636 396.48 166.872 398.22 166.872 400.74C166.872 403.26 165.636 405 163.056 405H159.912V396.48H163.056ZM162.936 404.076C164.916 404.076 165.816 402.72 165.816 400.74C165.816 398.76 164.916 397.404 162.936 397.404H160.932V404.076H162.936ZM169.107 404.076H174.051V405H168.051V396.48H173.991V397.404H169.107V400.116H173.511V401.016H169.107V404.076ZM178.241 405.144C175.925 405.144 174.785 403.908 174.641 402.264H175.685C175.853 403.644 176.741 404.232 178.277 404.232C179.477 404.232 180.329 403.716 180.329 402.66C180.329 401.484 179.297 401.34 177.761 400.896C176.261 400.464 174.941 400.14 174.941 398.568C174.941 397.236 176.201 396.336 177.893 396.336C179.897 396.336 181.001 397.344 181.241 398.808H180.233C180.053 397.716 179.165 397.248 177.893 397.248C176.777 397.248 175.985 397.728 175.985 398.544C175.985 399.456 176.921 399.696 178.205 400.044C179.861 400.5 181.373 400.86 181.373 402.66C181.373 404.208 180.065 405.144 178.241 405.144ZM183.497 396.48V405H182.477V396.48H183.497ZM188.577 405.144C186.165 405.144 184.653 403.26 184.653 400.74C184.653 398.22 186.213 396.336 188.697 396.336C190.677 396.336 191.889 397.524 192.249 399.06H191.193C190.917 398.004 190.017 397.26 188.697 397.26C186.777 397.26 185.709 398.772 185.709 400.74C185.709 402.708 186.777 404.22 188.697 404.22C190.293 404.22 191.241 403.14 191.241 401.76V401.4H188.457V400.5H192.261V405H191.301V403.536C190.893 404.508 189.909 405.144 188.577 405.144ZM199.536 396.48H200.556V405H199.212L194.712 397.728V405H193.692V396.48H195.036L199.536 403.752V396.48Z" fill="black"/>
<path d="M168.384 451.48V460H167.364V452.56L164.652 460H163.644L160.932 452.56V460H159.912V451.48H161.532L164.148 458.74L166.764 451.48H168.384ZM173.585 460.144C171.101 460.144 169.541 458.26 169.541 455.74C169.541 453.22 171.101 451.336 173.585 451.336C176.069 451.336 177.629 453.22 177.629 455.74C177.629 458.26 176.069 460.144 173.585 460.144ZM173.585 459.22C175.505 459.22 176.573 457.708 176.573 455.74C176.573 453.772 175.505 452.26 173.585 452.26C171.665 452.26 170.597 453.772 170.597 455.74C170.597 457.708 171.665 459.22 173.585 459.22ZM184.624 451.48H185.644V460H184.3L179.8 452.728V460H178.78V451.48H180.124L184.624 458.752V451.48ZM193.271 451.48V452.416H190.415V460H189.395V452.416H186.527V451.48H193.271ZM197.695 451.48C199.351 451.48 200.443 452.368 200.443 453.724C200.443 454.864 199.711 455.632 198.559 455.812C199.663 455.98 200.059 456.652 200.179 457.948C200.275 459.028 200.527 459.592 200.767 460H199.615C199.447 459.604 199.243 459.124 199.135 457.912C199.027 456.664 198.595 456.244 197.299 456.244H195.175V460H194.155V451.48H197.695ZM197.419 455.356C198.715 455.356 199.399 454.852 199.399 453.88C199.399 452.896 198.715 452.404 197.419 452.404H195.175V455.356H197.419ZM207.106 449.56L205.306 450.94H204.346L205.606 449.56H207.106ZM202.846 459.076H207.79V460H201.79V451.48H207.73V452.404H202.846V455.116H207.25V456.016H202.846V459.076ZM214.538 460L213.71 457.636H209.978L209.138 460H208.082L211.202 451.48H212.522L215.642 460H214.538ZM210.278 456.76H213.398L211.838 452.344L210.278 456.76ZM217.447 459.064H222.067V460H216.427V451.48H217.447V459.064ZM228.613 460L227.785 457.636H224.053L223.213 460H222.157L225.277 451.48H226.597L229.717 460H228.613ZM224.353 456.76H227.473L225.913 452.344L224.353 456.76ZM231.522 451.48V460H230.502V451.48H231.522ZM236.146 460.144C233.83 460.144 232.69 458.908 232.546 457.264H233.59C233.758 458.644 234.646 459.232 236.182 459.232C237.382 459.232 238.234 458.716 238.234 457.66C238.234 456.484 237.202 456.34 235.666 455.896C234.166 455.464 232.846 455.14 232.846 453.568C232.846 452.236 234.106 451.336 235.798 451.336C237.802 451.336 238.906 452.344 239.146 453.808H238.138C237.958 452.716 237.07 452.248 235.798 452.248C234.682 452.248 233.89 452.728 233.89 453.544C233.89 454.456 234.826 454.696 236.11 455.044C237.766 455.5 239.278 455.86 239.278 457.66C239.278 459.208 237.97 460.144 236.146 460.144Z" fill="black"/>
<path d="M270.41 394.144C268.094 394.144 266.954 392.908 266.81 391.264H267.854C268.022 392.644 268.91 393.232 270.446 393.232C271.646 393.232 272.498 392.716 272.498 391.66C272.498 390.484 271.466 390.34 269.93 389.896C268.43 389.464 267.11 389.14 267.11 387.568C267.11 386.236 268.37 385.336 270.062 385.336C272.066 385.336 273.17 386.344 273.41 387.808H272.402C272.222 386.716 271.334 386.248 270.062 386.248C268.946 386.248 268.154 386.728 268.154 387.544C268.154 388.456 269.09 388.696 270.374 389.044C272.03 389.5 273.542 389.86 273.542 391.66C273.542 393.208 272.234 394.144 270.41 394.144ZM280.295 385.48V386.416H277.439V394H276.419V386.416H273.551V385.48H280.295ZM284.359 394.144C282.523 394.144 281.107 393.196 281.107 391.144V385.48H282.127V391.036C282.127 392.476 283.003 393.22 284.359 393.22C285.715 393.22 286.591 392.476 286.591 391.036V385.48H287.611V391.144C287.611 393.196 286.195 394.144 284.359 394.144ZM292.263 385.48C294.843 385.48 296.079 387.22 296.079 389.74C296.079 392.26 294.843 394 292.263 394H289.119V385.48H292.263ZM292.143 393.076C294.123 393.076 295.023 391.72 295.023 389.74C295.023 387.76 294.123 386.404 292.143 386.404H290.139V393.076H292.143ZM298.277 385.48V394H297.257V385.48H298.277ZM303.477 394.144C300.993 394.144 299.433 392.26 299.433 389.74C299.433 387.22 300.993 385.336 303.477 385.336C305.961 385.336 307.521 387.22 307.521 389.74C307.521 392.26 305.961 394.144 303.477 394.144ZM303.477 393.22C305.397 393.22 306.465 391.708 306.465 389.74C306.465 387.772 305.397 386.26 303.477 386.26C301.557 386.26 300.489 387.772 300.489 389.74C300.489 391.708 301.557 393.22 303.477 393.22Z" fill="black"/>
<path d="M270.41 438.144C268.094 438.144 266.954 436.908 266.81 435.264H267.854C268.022 436.644 268.91 437.232 270.446 437.232C271.646 437.232 272.498 436.716 272.498 435.66C272.498 434.484 271.466 434.34 269.93 433.896C268.43 433.464 267.11 433.14 267.11 431.568C267.11 430.236 268.37 429.336 270.062 429.336C272.066 429.336 273.17 430.344 273.41 431.808H272.402C272.222 430.716 271.334 430.248 270.062 430.248C268.946 430.248 268.154 430.728 268.154 431.544C268.154 432.456 269.09 432.696 270.374 433.044C272.03 433.5 273.542 433.86 273.542 435.66C273.542 437.208 272.234 438.144 270.41 438.144ZM280.295 429.48V430.416H277.439V438H276.419V430.416H273.551V429.48H280.295ZM284.359 438.144C282.523 438.144 281.107 437.196 281.107 435.144V429.48H282.127V435.036C282.127 436.476 283.003 437.22 284.359 437.22C285.715 437.22 286.591 436.476 286.591 435.036V429.48H287.611V435.144C287.611 437.196 286.195 438.144 284.359 438.144ZM292.263 429.48C294.843 429.48 296.079 431.22 296.079 433.74C296.079 436.26 294.843 438 292.263 438H289.119V429.48H292.263ZM292.143 437.076C294.123 437.076 295.023 435.72 295.023 433.74C295.023 431.76 294.123 430.404 292.143 430.404H290.139V437.076H292.143ZM298.277 429.48V438H297.257V429.48H298.277ZM303.477 438.144C300.993 438.144 299.433 436.26 299.433 433.74C299.433 431.22 300.993 429.336 303.477 429.336C305.961 429.336 307.521 431.22 307.521 433.74C307.521 436.26 305.961 438.144 303.477 438.144ZM303.477 437.22C305.397 437.22 306.465 435.708 306.465 433.74C306.465 431.772 305.397 430.26 303.477 430.26C301.557 430.26 300.489 431.772 300.489 433.74C300.489 435.708 301.557 437.22 303.477 437.22Z" fill="black"/>
<path d="M269.592 440.48C272.172 440.48 273.408 442.22 273.408 444.74C273.408 447.26 272.172 449 269.592 449H266.448V440.48H269.592ZM269.472 448.076C271.452 448.076 272.352 446.72 272.352 444.74C272.352 442.76 271.452 441.404 269.472 441.404H267.468V448.076H269.472ZM275.643 448.076H280.587V449H274.587V440.48H280.527V441.404H275.643V444.116H280.047V445.016H275.643V448.076ZM284.777 449.144C282.461 449.144 281.321 447.908 281.177 446.264H282.221C282.389 447.644 283.277 448.232 284.813 448.232C286.013 448.232 286.865 447.716 286.865 446.66C286.865 445.484 285.833 445.34 284.297 444.896C282.797 444.464 281.477 444.14 281.477 442.568C281.477 441.236 282.737 440.336 284.429 440.336C286.433 440.336 287.537 441.344 287.777 442.808H286.769C286.589 441.716 285.701 441.248 284.429 441.248C283.313 441.248 282.521 441.728 282.521 442.544C282.521 443.456 283.457 443.696 284.741 444.044C286.397 444.5 287.909 444.86 287.909 446.66C287.909 448.208 286.601 449.144 284.777 449.144ZM290.033 440.48V449H289.013V440.48H290.033ZM295.113 449.144C292.701 449.144 291.189 447.26 291.189 444.74C291.189 442.22 292.749 440.336 295.233 440.336C297.213 440.336 298.425 441.524 298.785 443.06H297.729C297.453 442.004 296.553 441.26 295.233 441.26C293.313 441.26 292.245 442.772 292.245 444.74C292.245 446.708 293.313 448.22 295.233 448.22C296.829 448.22 297.777 447.14 297.777 445.76V445.4H294.993V444.5H298.797V449H297.837V447.536C297.429 448.508 296.445 449.144 295.113 449.144ZM306.072 440.48H307.092V449H305.748L301.248 441.728V449H300.228V440.48H301.572L306.072 447.752V440.48Z" fill="black"/>
<path d="M236.675 418.48V427H235.655V419.56L232.943 427H231.935L229.223 419.56V427H228.203V418.48H229.823L232.439 425.74L235.055 418.48H236.675ZM241.875 427.144C239.391 427.144 237.831 425.26 237.831 422.74C237.831 420.22 239.391 418.336 241.875 418.336C244.359 418.336 245.919 420.22 245.919 422.74C245.919 425.26 244.359 427.144 241.875 427.144ZM241.875 426.22C243.795 426.22 244.863 424.708 244.863 422.74C244.863 420.772 243.795 419.26 241.875 419.26C239.955 419.26 238.887 420.772 238.887 422.74C238.887 424.708 239.955 426.22 241.875 426.22ZM252.914 418.48H253.934V427H252.59L248.09 419.728V427H247.07V418.48H248.414L252.914 425.752V418.48ZM261.562 418.48V419.416H258.706V427H257.686V419.416H254.818V418.48H261.562ZM265.986 418.48C267.642 418.48 268.734 419.368 268.734 420.724C268.734 421.864 268.002 422.632 266.85 422.812C267.954 422.98 268.35 423.652 268.47 424.948C268.566 426.028 268.818 426.592 269.058 427H267.906C267.738 426.604 267.534 426.124 267.426 424.912C267.318 423.664 266.886 423.244 265.59 423.244H263.466V427H262.446V418.48H265.986ZM265.71 422.356C267.006 422.356 267.69 421.852 267.69 420.88C267.69 419.896 267.006 419.404 265.71 419.404H263.466V422.356H265.71ZM275.397 416.56L273.597 417.94H272.637L273.897 416.56H275.397ZM271.137 426.076H276.081V427H270.081V418.48H276.021V419.404H271.137V422.116H275.541V423.016H271.137V426.076ZM282.829 427L282.001 424.636H278.269L277.429 427H276.373L279.493 418.48H280.813L283.933 427H282.829ZM278.569 423.76H281.689L280.129 419.344L278.569 423.76ZM285.738 426.064H290.358V427H284.718V418.48H285.738V426.064ZM296.903 427L296.075 424.636H292.343L291.503 427H290.447L293.567 418.48H294.887L298.007 427H296.903ZM292.643 423.76H295.763L294.203 419.344L292.643 423.76ZM299.813 418.48V427H298.793V418.48H299.813ZM304.436 427.144C302.12 427.144 300.98 425.908 300.836 424.264H301.88C302.048 425.644 302.936 426.232 304.472 426.232C305.672 426.232 306.524 425.716 306.524 424.66C306.524 423.484 305.492 423.34 303.956 422.896C302.456 422.464 301.136 422.14 301.136 420.568C301.136 419.236 302.396 418.336 304.088 418.336C306.092 418.336 307.196 419.344 307.436 420.808H306.428C306.248 419.716 305.36 419.248 304.088 419.248C302.972 419.248 302.18 419.728 302.18 420.544C302.18 421.456 303.116 421.696 304.4 422.044C306.056 422.5 307.568 422.86 307.568 424.66C307.568 426.208 306.26 427.144 304.436 427.144Z" fill="black"/>
</svg>
