<?xml version="1.0" encoding="UTF-8"?>
<svg id="Calque_1" xmlns="http://www.w3.org/2000/svg" version="1.1" viewBox="0 0 1000 1000">
  <!-- Generator: Adobe Illustrator 29.8.1, SVG Export Plug-In . SVG Version: 2.1.1 Build 2)  -->
  <defs>
    <style>
      .st0 {
        fill: #fff;
      }
    </style>
  </defs>
  <path class="st0" d="M552.9,150.5c-.4-.3-1.7.7-2.9.3-3.8-1.3-18.6-14-23.7-17.5-27.6-18.9-56.9-36.7-86.3-52.4-2.1-1.1-13-8.9-14-8.5-5.2,4.4-9.6,10.6-14.3,15.2-30.8,30.1-60.7,61.2-89.1,93.7-2.6,3-10,8.2-9.7,11.9.1,1.8,3.5,9.2,3.1,9.8-2,.4-1.4-.4-1.9-1.5-.6-1.3-2.2-9.1-3.5-8.2-8.8,10.8-19.7,19.5-29.5,29.4-25.6,26-49.7,53.8-74.8,80.2-3.3,3.4-3.4,6.6-8.9,7.3l-103.4,108.9c-.6,1.1-.4,2.2-.3,3.4.5,6.4,4.2,17.7,5.7,24.5,6.4,27.7,14.1,55.1,19.8,82.9l1.5-.8c2.9,9.6,3.7,19.7,5.8,29.5,5.7,26.2,12.3,52.7,20.1,78.3.8,2.6,1.3,8.4,2.3,10.1s3-2.3,4.3-2.3c.3,2.4-3.6,3.4-3.5,5.5.2,3.4,2.6,9.2,3.3,12.9,5.9,32.1,13.4,64.4,22.9,95.7s2.1,11,3.3,13c1.1,1.9,3-2.3,4.3-2.3l-3.1,4.3c0,.8,11.9,5.9,13.9,7,34,18.7,69.6,34.8,105.4,49.6,1.9.8,14.6,6.7,15.1,7.4s.4,1.6.4,2.3c7.4-1.2,15.6,6.1,21.9,9.4,30.2,15.6,61.6,29.7,92.9,42.7,1.9.8,14.2,6.2,14.8,6.7.7.7.5,1.6.5,2.4h1.1s62-56.6,62-56.6c11.1,2.9,22.7,1.8,33.9,4.1,28.4,5.8,56.6,12.8,85.5,16.8,6.9.9,14,.4,21.4,1.9,33.8,6.7,66.6,15.1,100.9,17.6,4.1.3,8.6,2,12.8,2.3l-9.3-5.4,10.9,4.3c3.2-10.8,8.3-20.8,12.2-31.2,16.4-43.6,30.3-88.2,45.2-132.2l-2.4-2,4.6,1.5,112.2-323.5c-10.5-6.4-19.9-14.1-30.1-20.8-26.5-17.6-54.2-33.1-81.2-49.7-1.7-1.1-5.7-4.9-6-5-2.5-.7-20.2-.7-24.6-.8-27.2-.7-54.6.9-81.8-.3l-39.9-94.9c-30.6-19.4-60.6-40.5-91.9-59.2-8.5-5.1-17.9-8.5-25.8-14.5-1.4-1.1-2-2.8-2.2-2.9Z"/>
  <path d="M552.9,150.5c.2.1.8,1.9,2.2,2.9,7.9,6,17.3,9.4,25.8,14.5,31.2,18.7,61.2,39.8,91.9,59.2l39.9,94.9c27.2,1.2,54.6-.3,81.8.3s22.1.1,24.6.8,4.3,3.9,6,5c27,16.7,54.7,32.2,81.2,49.7,10.2,6.8,19.6,14.5,30.1,20.8l-112.2,323.5-4.6-1.5,2.4,2c-14.9,44.1-28.8,88.7-45.2,132.2-3.9,10.4-9,20.5-12.2,31.2l-10.9-4.3,9.3,5.4c-4.2-.4-8.7-2-12.8-2.3-34.3-2.5-67.1-10.9-100.9-17.6-7.4-1.5-14.5-.9-21.4-1.9-28.9-3.9-57.1-11-85.5-16.8s-22.8-1.1-33.9-4.1l-62,56.6h-1.1c0-.8.2-1.7-.5-2.4-.6-.5-12.9-5.9-14.8-6.7-31.3-12.9-62.8-27-92.9-42.7s-14.5-10.6-21.9-9.4c0-.7,0-1.7-.4-2.3s-13.2-6.6-15.1-7.4c-35.8-14.8-71.3-30.9-105.4-49.6-2-1.1-13.9-6.2-13.9-7l3.1-4.3c-1.2,0-3.2,4.2-4.3,2.3-1.2-2.1-2.3-9.9-3.3-13-9.5-31.2-17-63.5-22.9-95.7-.7-3.8-3.2-9.6-3.3-12.9s3.8-3.1,3.5-5.5c-1.2,0-3.2,4.2-4.3,2.3s-1.5-7.5-2.3-10.1c-7.8-25.6-14.4-52.1-20.1-78.3-2.1-9.8-2.9-19.8-5.8-29.5l-1.5.8c-5.7-27.8-13.4-55.2-19.8-82.9-1.6-6.9-5.2-18.2-5.7-24.5,0-1.2-.3-2.3.3-3.4l103.4-108.9c5.5-.7,5.6-3.9,8.9-7.3,25.1-26.4,49.1-54.2,74.8-80.2s20.6-18.6,29.5-29.4c1.3-1,2.9,6.9,3.5,8.2.5,1.1-.1,1.9,1.9,1.5.4-.5-2.9-8-3.1-9.8-.3-3.7,7.1-8.9,9.7-11.9,28.4-32.6,58.3-63.6,89.1-93.7,4.7-4.6,9-10.8,14.3-15.2,1-.5,11.9,7.3,14,8.5,29.4,15.7,58.7,33.5,86.3,52.4s19.8,16.2,23.7,17.5,2.5-.6,2.9-.3ZM447.4,91.7c-2.2.6-2.5,3.5-1.8,5.4,8.7,20.2,14.3,42.9,23.1,62.9,4.7,10.7,11.4,16.9,20.8,23.4,24.8,17.1,52.9,31.3,77.9,48.4,2.8,1.4,8.7,3.7,8.8-1s-6.4-18.1-8-22.3c-9-23.7-15.4-50.8-36.6-65.7-26.1-18.4-54.9-33.8-81.7-50.8-.8-.3-1.7-.4-2.6-.2ZM414.9,97.2c-2.9.4-5.8,2.6-8,4.5-22,25.2-48.9,48.4-70.5,73.6-5.9,6.8-11.8,16.2-10.1,25.6,3.8,20.8,16.8,45,21.3,66.3,2,4,4.4,5,8.8,4,6.6-1.4,18-16.1,23-21.1,18.4-18.6,42.3-40.2,58.5-60s9.5-15.5,7.8-24.1c-8.1-20.1-13.9-41.6-22.1-61.6-2-4.8-2.3-8.1-8.7-7.2ZM572.1,171.5c-1.7.6-1.4,2.6-1.1,4,14.3,27.4,18.1,67.3,44.4,85.8,20.2,14.2,46.3,29.5,67.9,42.1,3,1.8,11.4,7.8,14.7,5.5,2.3-1.6-1.2-8.3-2-10.5-6.7-17.8-15.3-39.3-23.5-56.3-4.6-9.7-10.6-16.3-19.3-22.6-24-17.3-52.5-32-77.4-48.1h-3.7ZM486.1,198.6c-2.1.7-1.3,5-.7,6.7,14.8,29.7,16.2,70.1,45.3,89.6,27,18.1,56.9,33.7,84.9,50,6.7,1,3.9-5,2.6-8.9-6-19-16.9-46.5-25.2-64.7-4.7-10.2-11.5-16.6-20.6-22.8-21.2-14.5-46.7-29.5-69-42.6s-12.7-8.8-17.3-7.3ZM452.1,204.1c-1.7.3-4.6,2.2-6,3.3-19.6,19.2-38.4,39.2-57.3,58.9-11.7,12.2-31.5,25.9-26.7,45.3,5.5,22.5,16.2,45.8,22.2,68.4,2.7,7.4,11.3,5.1,15.7.6,23.3-26,52.8-49.4,75.6-75.5,6.5-7.5,12.8-17.8,10.3-28.2l-24.9-68.9c-1.9-3.5-5-4.7-8.9-3.9ZM301.7,217.3c-3.9,0-8.7,3.6-11.4,6.3-20.4,19.9-42.3,43.6-61.6,64.7-7.9,8.6-16,17.7-14.1,30.4,7.7,20.7,10.7,45.6,18.6,65.8,5.3,13.6,18.2-1.9,23.8-7.5,18.8-22.8,44.6-42.9,63.1-65.5,5.6-6.8,9.6-15.9,7.8-24.8l-21-65.8c-.7-2.3-2.9-3.7-5.3-3.6ZM744.3,420l-.6-6.5c-15.4-29-19.9-69.7-48.1-89-23.6-16.1-50.1-29.5-73.8-45.5-4.2-2.3-10.1-3.7-8.6,3.1,14.5,27.6,19.5,72.1,46.1,90.4,24.1,16.6,52.4,29.9,76.9,46.3,2.5,1.2,5.4,2.7,8.2,1.3ZM528,311.7c-2.2.7-1.3,5.7-.7,7.5,14.5,28.2,18.2,74.9,45.3,93.4,27,18.5,60,33.6,88.1,50.6l4.1-.2c3-1.8,0-7.6-.8-10.1-6.9-20.6-17.7-48.9-26.8-68.5-4.8-10.3-11.3-16.6-20.6-22.8-22.4-15-54.7-34.9-78.4-47.1-2.9-1.5-6.7-4-10.1-2.9ZM491.6,318c-2.2.5-5.4,3-7.2,4.5-27.2,22.5-51.1,55-77.9,78.6-7.2,9.2-9.4,16.9-6.6,28.3,5.9,23.4,16.7,47.3,23,70.7,3.8,9.2,12.6,4.9,18.4.2,23.2-27.3,56.5-51.2,79-78.3s9.8-16.1,8.3-25.4c-9.3-22.9-15.8-48-25.4-70.7-2.7-6.3-3.6-9.7-11.8-7.9ZM339.7,327.3c-3.4-2.7-10-.2-13,2.5-21.8,24.6-48.7,47.1-70.1,71.7-6.7,7.7-12.6,16.6-11,27.3,3.3,22.1,16,48.1,19.9,70.7,3.4,8.7,10.3,5.8,15.9,1.1,26-21.1,48.6-53,74.4-75.2,5.9-7.4,9.5-15.3,7.9-25-8.6-21.7-12.9-47.6-21.7-68.9-.4-1-1.6-3.7-2.3-4.2ZM186.3,333.5c-3.8.9-12.9,10.9-16.1,14.1-17.1,20.9-40,39.4-56.9,60.1-5.8,7.1-9.4,15.7-7.9,25l17.6,69.2c1.8,1.9,3.9,2.2,6.4,1.7,6.3-1.1,17.5-15.5,22.3-20.4,16.9-17.1,39.1-37.1,53.9-55.4,4.7-5.9,8.9-15,7.9-22.7-7.5-20.8-10.4-46.7-18.4-66.9-1.8-4.5-3.8-6-8.8-4.8ZM831,351.3c-6.7,1.4-9.7,8.8-12,14.4-12.9,31.4-21.9,65.6-34.5,97.2-3.1,12.3-.8,20.2,9.6,27.3,21.8,15,47.8,26.7,69.9,41.7,10.1,4.5,16-2.2,19.7-10.8,13.7-31.1,21.7-67.7,34.7-99.3,2-9,.1-18.5-7.5-24.4-23.4-12.5-46.1-31.6-69.5-43.7-3.8-2-5.9-3.3-10.5-2.3ZM659.8,390c-2.8.8-2.4,4.5-1.4,6.5,13.4,24.6,21.1,72.4,42.3,90.2,22.9,19.2,60.3,32.5,85.1,50.5,5.3,2.8,8.5,1.4,7.3-5-1.3-6.7-9.6-23.3-12.6-30.8-9.8-23.9-16.3-49.9-38.4-64.7-25.4-17-53.3-31.3-79.6-46.8-.9-.2-1.8-.3-2.7,0ZM552.9,435c-6,.6-11.9,3.7-16.5,7.5l-79,77.5c-5.5,7.5-6.3,14.8,1.7,20.8,27.7,12.8,55.5,33.6,83.1,45.5,9.1,3.9,18.7,1.7,26.8-3.5l81.4-78.2c5.5-7.1,5-14.7-2.5-20-27.4-13-54.4-34.7-81.6-47-4.6-2.1-8.2-3-13.4-2.5ZM368.4,442c-2.2.5-5.4,3-7.2,4.5-26.2,21.7-49.6,53-75.2,75.9-5.3,7-8.7,15.2-7.2,24.2,5.9,20.3,11,40.9,17.1,61.2,2.6,8.7,3.7,24.4,16.3,18.3,3.1-1.5,10.3-8.7,13.3-11.5,23.1-21.4,43.9-45.6,67.4-66.6,6.7-8,10.8-17.4,8.6-27.9-5.2-23.9-17.8-49.4-23.3-73.6-2.1-4.5-5.2-5.5-9.9-4.5ZM218.1,444.3c-2.2.4-5.4,3-7.2,4.5-19.7,21.8-41.7,41.6-61.6,63.1-9.2,10-17.2,18.3-15.3,33.1,2.8,22.5,13.8,48.1,17.4,70.9,3.3,8,10.6,5,15.7.5,20.7-24.6,48.8-45.8,69.4-70,6.2-7.3,11-16.6,9.5-26.5-7.5-22.2-11.2-47.6-19-69.4-1.7-4.9-3.1-7.4-9-6.2ZM688.5,513.3c-10.4.6-16.7,6.8-23.9,13.3-25.7,23.3-50.7,48.5-74.9,73-2.9,6.5-1.3,12.8,5,16.3,25.8,11.5,51.7,31.2,77.2,42.1,13,5.6,22.7.1,32.3-8.3,25.4-22.1,49.3-47.2,74.4-69.7,6.4-7.9,6.5-14.5-2.1-20.4-24.4-16.7-55.2-30.4-80.7-45.6-2.6-.7-4.5-1-7.3-.8ZM749.8,620.8l-24.4,22.5c.5,8.4,8.3,11.9,14.6,15.6,21.9,12.9,45,24,67,36.9,8.2,3.6,15.6-2.1,18.8-9.5,10.1-32.5,24.6-64.9,34.3-97.4,4.1-13.9,4.4-23-8.5-31.4-14.3-9.4-34.1-21-49.3-28.9s-2.2-1.6-3.6-1.4l7.4,19.3c37.5,16.3,33.9,66,16.2,96.1-12.4,21.2-34.2,32.7-55.8,15.5-11.4-9.1-15.6-23.2-16.7-37.2ZM769.1,536.4l-9.2-4.7c-1.5,2,6.8,6.6,8.2,7s1.5-1.6,1-2.2ZM427.4,559.8c-6.1.4-11.9,2.9-16.9,6.3l-76.7,75.2c-6.3,7.1-6.6,15.2,1.8,20.7l87.1,43.8c8.3,1.5,16.8-.3,23.4-5.6,26.5-21.2,50.7-51.3,76.7-73.6,8.6-10.6,4.4-16.1-5.7-22.2-26.3-15.8-56.1-29.4-83.3-43.8-2.2-.3-4.3-.9-6.5-.7ZM249.9,561.3c-2.2.5-5.4,3-7.2,4.5-25.4,21-48.6,51.5-73.2,74-6.3,9.1-7.8,15.9-5.8,26.7,4.4,23.7,13.1,47.8,17.5,71.6,1.5,6.2,6,8.2,11.8,5.7s15.3-13.6,18.7-16.9c18.8-17.9,40-38.2,57.7-56.9,5.9-6.3,11.7-17.4,10.6-26.2-7.9-24.2-12.2-50.9-20.5-74.8-1.8-5.3-2.8-9.2-9.7-7.8ZM793.2,609.9l-19.8-10.8c-1.7,1.5-14.3,11.8-14.3,12.8s1.9,1.4,2.1,2.4-.8,6.6-.6,9.2c1.7,22.5,24.9,39.6,44.2,22.5,17.4-15.5,25.9-55,13-75-5-7.8-5.7-8.1-12.3-2.5-7.6,6.5-14.5,14.7-22.4,21-.4,1.5.4,1,1,1.3,2.3,1.6,11.9,6.1,12.6,7.6l-3.5,11.6ZM558.3,634.2c-8.2,1.2-14.9,8-20.7,13.3-23.3,21.3-45.2,44.3-68.6,65.5-5.7,7.8-5.5,14.3,3,19.5,23.9,14.7,53.1,25,77.5,39.5,9,4.3,20.1,1.6,27.7-4.4,25.9-20.6,49.3-48.6,75.2-69.7,6.3-7.1,7.3-14.9-1.3-20.4-19.7-12.6-47.2-26.2-68.4-37-9.2-4.7-13.1-8-24.2-6.4ZM301,680.6c-13,1.8-26.5,19.5-35.8,28.5-17,16.5-34,33.1-51.2,49.6-5.8,6.5-6.3,14.4,1.4,19.5,28,11.2,56.5,29.9,84.5,40.3s22,0,31.5-8.3c24.1-20.9,46.4-46.3,70.1-67.8,5.1-6.2,4.7-13.4-2.2-18l-85.2-42.6c-4.1-1.6-8.7-1.8-13.1-1.2ZM716.9,681.6c-6.9-.3-12.5,4.8-15.1,10.8-9.9,34.4-28.4,70.2-37.2,104.6-2.6,10-2.2,19.2,6.7,25.8l76.4,39c10.3,2.9,16.1-3.7,19.7-12.4,14.3-33.8,24.3-72.8,36.6-107.5.4-6.7-1.8-14-7.5-18.1-24.5-12-48.5-28.5-73.1-40.1-2.2-1-4-2.2-6.6-2.3ZM436.6,748.8c-10.4,1.4-18.7,11.1-26.2,18-20.9,19.3-40.9,39.7-61.6,59.3-4.5,5-3.8,13.7,2.7,16.7,25.7,11,51.2,26.5,77,36.9,11.2,4.5,20.3,4,30-3.6l74-69.3c4.3-5.3,3.7-13.5-2.7-16.7-26.4-11-52.7-29.1-78.9-39.7-4.8-1.9-9.2-2.3-14.3-1.6ZM622.8,861l-2-2.3-82.9-41.6c-.7.5-3.5,2.4-1.9,3.3l62.8,30.6-7.6-1.3-65-20.9-4.9,3.3,13.2,7.4c-5.5-.2-9.8-3-14.5-5.3l-2.6,1.8c10.2,5.2,20.7,10.3,31.9,13,19.6,4.8,48.5,9.8,68.5,12.1,1.6.2,3.3.1,4.9,0ZM735.9,880.4l-1.3-2.2c-34.7-15.2-71.4-42.7-108.6-50.3s-46.8-8.9-67.3-11c-1.4-.1-2.8-.2-4.2,0-1.5,1.3,6.1,5.3,7,5.8,24.1,13.8,74.7,40.3,100.6,45.9s48.1,9.8,68.1,11.8,3.8.1,5.7,0ZM576.3,841.6l-42.4-20.8c-1.6-.1-4.9,4.6-6.4,5.7l46.4,15.5,2.4-.4Z"/>
  <path class="st0" d="M427.4,559.8c2.2-.1,4.3.4,6.5.7,27.1,14.4,57,28,83.3,43.8,10.1,6.1,14.3,11.6,5.7,22.2-26.1,22.3-50.2,52.4-76.7,73.6-6.7,5.3-15.2,7.1-23.4,5.6l-87.1-43.8c-8.4-5.5-8.1-13.6-1.8-20.7l76.7-75.2c5-3.4,10.8-5.9,16.9-6.3ZM464.5,596.9l-79.2,77.4,10.5,5.1,79.1-77.5-10.3-5Z"/>
  <path class="st0" d="M688.5,513.3c2.7-.2,4.7.1,7.3.8,25.5,15.3,56.3,28.9,80.7,45.6,8.6,5.9,8.5,12.5,2.1,20.4-25.1,22.5-49,47.7-74.4,69.7s-19.3,13.8-32.3,8.3c-25.5-10.9-51.4-30.7-77.2-42.1-6.2-3.5-7.9-9.8-5-16.3,24.3-24.6,49.3-49.7,74.9-73,7.2-6.5,13.5-12.7,23.9-13.3ZM740.4,592.7c.4-.3,4.1-7.7,4.6-9,11.2-29.7-21.2-44-45.8-41.9s-84.6,39.9-68.8,73.3c8.7,18.4,37.1,23,54.4,15l-11.6,11.3c-.3,1.3,8.1,6,9.2,5.4,13.1-12.5,26.9-24.3,39.9-36.8.9-.9,3.3-2.5,2.3-3.9l-36.3-20-8.2,8,26.3,15.5c-13.6,15.5-42.9,22.8-58.5,6.6-21.3-22.1,20.2-55.4,40.1-61.5,13.6-4.1,36.7-3,43.9,11.6,3.7,7.6,1.2,14.4-2.1,21.5,1.7,1.4,9,6,10.7,5Z"/>
  <path class="st0" d="M491.6,318c8.2-1.7,9.2,1.6,11.8,7.9,9.6,22.7,16.1,47.8,25.4,70.7,1.5,9.3-2.5,18.4-8.3,25.4-22.6,27.1-55.8,51-79,78.3-5.8,4.7-14.6,9-18.4-.2-6.4-23.5-17.1-47.3-23-70.7s-.6-19.1,6.6-28.3c26.7-23.6,50.7-56.1,77.9-78.6,1.8-1.5,5-4,7.2-4.5ZM467,453.4l9.9-10.3-27.4-78c-2.2,3.1-9.3,7.1-8.8,11l26.2,77.3Z"/>
  <path class="st0" d="M301,680.6c4.4-.6,9-.4,13.1,1.2l85.2,42.6c6.9,4.6,7.3,11.8,2.2,18-23.8,21.5-46.1,46.9-70.1,67.8-9.5,8.3-18.8,13-31.5,8.3-28-10.4-56.4-29-84.5-40.3-7.8-5.1-7.2-13-1.4-19.5,17.2-16.4,34.1-33.1,51.2-49.6,9.4-9,22.9-26.7,35.8-28.5ZM305.9,788.9l18.6-84.9c0-1-.6-1.3-1.3-1.8s-11-5.8-11.9-6-1-.4-1.5,0l-75.6,74c-.9.8-.4,1.3.4,1.9,1.2.9,9.5,4.9,10.8,3.1l64.4-62.4-18.5,84.9c-.1,1,.5,1.3,1.2,1.8,1.7,1.2,11.3,5.8,12.9,5.4l76.5-73.1c-3.9-2.1-9.2-7.3-13.1-3l-59.7,58.1-3.1,1.9Z"/>
  <path class="st0" d="M831,351.3c4.7-1,6.7.3,10.5,2.3,23.4,12.1,46,31.1,69.5,43.7,7.6,5.8,9.4,15.4,7.5,24.4-13,31.7-21,68.3-34.7,99.3-3.8,8.5-9.6,15.3-19.7,10.8-22.1-14.9-48.1-26.6-69.9-41.7-10.3-7.1-12.7-14.9-9.6-27.3,12.6-31.6,21.7-65.8,34.5-97.2,2.3-5.6,5.3-12.9,12-14.4ZM839.7,389.9l5.2-15.9-9-5.8-19.1,54.2.4,2.8,34.1,20.5c.2-2.8,4.2-9.3,2.7-11.6s-19.9-11.5-23.5-14.1c2-19,19.6-34,37.4-20,20.5,16,14.7,51.5,3.1,71.2-7.7,13.1-20.1,22.9-35.4,14.6-14.1-7.6-16.9-22.2-16.4-37l-9.7-5.4c-3.8,22.2,5,50.1,28.5,57.1,41.2,12.4,58.4-53.4,52.6-82.9-4.5-22.7-28.8-47.2-50.9-27.7Z"/>
  <path class="st0" d="M558.3,634.2c11.2-1.6,15,1.7,24.2,6.4,21.2,10.8,48.7,24.4,68.4,37,8.6,5.5,7.6,13.3,1.3,20.4-25.9,21.1-49.3,49.2-75.2,69.7-7.6,6-18.6,8.7-27.7,4.4-24.4-14.5-53.5-24.8-77.5-39.5-8.5-5.2-8.7-11.7-3-19.5,23.4-21.2,45.3-44.2,68.6-65.5,5.9-5.4,12.5-12.2,20.7-13.3ZM543,747.1c22.5,5.7,47.6-3.6,63.2-20.1,22.6-23.9,12.6-49-16.5-59.5-21.1-7.6-44.1-4.8-62.9,7.2-12.9,8.3-27.6,23.1-21,39.8-4.9-1.2-10.8-8-15.4-5s-7.3,6.5-6.2,8.1l44.9,21.4,34.8-32.6c-2.1-1.5-7.2-4.8-9.5-4.2s-19.6,19.5-23.4,22.4c-3.6,2.5-10.9-3.4-13.2-6.3-12.4-16.1,10-34.9,23.8-40.4,15.2-6,32.4-4.8,46.8,3.1,41.1,22.7-4,64.2-35.6,56.8l-9.9,9.2Z"/>
  <path class="st0" d="M436.6,748.8c5.1-.7,9.5-.4,14.3,1.6,26.1,10.6,52.5,28.7,78.9,39.7,6.4,3.2,7,11.4,2.7,16.7l-74,69.3c-9.7,7.6-18.8,8.1-30,3.6-25.7-10.4-51.3-25.9-77-36.9-6.5-3-7.2-11.7-2.7-16.7,20.7-19.5,40.7-40,61.6-59.3,7.4-6.9,15.8-16.6,26.2-18ZM438.4,852.5l20.2-81c0-1.5-.2-1.7-1.3-2.6s-9.6-5-10.4-5.2-1.5-.6-2.3,0l-75.9,72.1c0,.6,9.8,6.3,11.2,4.3l63.9-60.5-20.1,81.8c.2,2.7,10.4,5.3,12.7,7l76.3-71.4-8.5-4.7-3.1,1.7-62.8,58.4Z"/>
  <path class="st0" d="M249.9,561.3c6.9-1.4,7.9,2.5,9.7,7.8,8.3,23.9,12.6,50.6,20.5,74.8,1.1,8.8-4.7,19.9-10.6,26.2-17.7,18.7-38.9,39.1-57.7,56.9-3.5,3.3-15.7,15.6-18.7,16.9-5.8,2.5-10.4.4-11.8-5.7-4.4-23.8-13.1-47.9-17.5-71.6-2-10.8-.5-17.7,5.8-26.7,24.6-22.5,47.8-53,73.2-74,1.8-1.5,5-4,7.2-4.5ZM212.1,700.6l29.1-107.7-2-9.3-57.9,57.8,2.5,8,46.1-45.7-29.3,107.5,1.4,9.5,56.4-54.7-2.5-8.8-43.8,43.4Z"/>
  <path class="st0" d="M339.7,327.3c.7.6,1.9,3.2,2.3,4.2,8.8,21.4,13.1,47.2,21.7,68.9,1.5,9.7-2.1,17.6-7.9,25-25.8,22.1-48.4,54-74.4,75.2-5.7,4.6-12.6,7.6-15.9-1.1-3.9-22.6-16.7-48.6-19.9-70.7s4.4-19.7,11-27.3c21.4-24.6,48.3-47.1,70.1-71.7,3-2.6,9.6-5.2,13-2.5ZM269.4,428.6l71.9-14.5,9.1-8.8.2-1.7-18.1-55.6c-1.4,3.2-7.4,6.5-7.3,9.6l12.8,41.5.3,3.8-71.1,14.6c-2.5.9-9.5,8.1-8.5,11.3l14.9,51.7,8.1-8.9-12.4-43Z"/>
  <path class="st0" d="M218.1,444.3c5.9-1.2,7.2,1.3,9,6.2,7.8,21.8,11.5,47.2,19,69.4,1.5,10-3.2,19.2-9.5,26.5-20.6,24.3-48.7,45.4-69.4,70-5.1,4.5-12.4,7.6-15.7-.5-3.6-22.9-14.5-48.5-17.4-70.9-1.9-14.8,6.1-23.1,15.3-33.1,19.9-21.6,41.9-41.4,61.6-63.1,1.8-1.5,5-4,7.2-4.5ZM181.1,577.4l28.1-102.4-1.8-9.2-55.7,57.1,1.8,8,45.3-45.7-29,103.2c-.2,1.8.6,6.9,1.4,8.4s1,.8,1.6,0l52.2-53.3-1.8-8-42.2,41.8Z"/>
  <path class="st0" d="M716.9,681.6c2.6,0,4.4,1.2,6.6,2.3,24.6,11.5,48.5,28.1,73.1,40.1,5.6,4.1,7.9,11.4,7.5,18.1-12.3,34.7-22.3,73.7-36.6,107.5-3.6,8.6-9.4,15.3-19.7,12.4l-76.4-39c-8.9-6.7-9.3-15.8-6.7-25.8,8.8-34.4,27.3-70.2,37.2-104.6,2.6-6.1,8.2-11.1,15.1-10.8ZM744.4,841.6l37.8-108.1-38.6-20.9c-30.7-12.6-49,36.3-26.4,54.2l-10.8,2.3c-17.4,10.4-18.8,37.7-3.5,50.7,5.6,4.8,31.4,18.5,38.6,21.1s1.8.9,2.8.6Z"/>
  <path class="st0" d="M552.9,435c5.1-.5,8.8.4,13.4,2.5,27.2,12.3,54.2,34,81.6,47,7.4,5.4,7.9,13,2.5,20l-81.4,78.2c-8.1,5.3-17.6,7.5-26.8,3.5-27.6-11.9-55.5-32.7-83.1-45.5-8-6-7.2-13.3-1.7-20.8l79-77.5c4.6-3.8,10.5-6.9,16.5-7.5ZM556,466.8c-44.3,3.2-93.9,57.5-39.9,85.9,29.2,15.3,66.3,7.2,87.7-17.2,33.5-38.1-8.5-71.6-47.8-68.7Z"/>
  <path class="st0" d="M186.3,333.5c5-1.2,7,.4,8.8,4.8,8,20.2,10.8,46.1,18.4,66.9.9,7.6-3.2,16.8-7.9,22.7-14.8,18.3-37,38.3-53.9,55.4-4.8,4.8-15.9,19.3-22.3,20.4s-4.6.2-6.4-1.7l-17.6-69.2c-1.5-9.3,2.1-17.9,7.9-25,17-20.7,39.8-39.2,56.9-60.1,3.2-3.2,12.3-13.3,16.1-14.1ZM183.4,400c3.9,13.2-1.5,27-9.1,37.7-7.4,10.4-26.4,29.4-36.5,11.3-9.5-17.2-1.1-43.7,10.7-58,6.1-7.4,19.9-21.3,29-11.3,2.8-3.9,11.3-7.5,6.2-12.4-12.2-11.5-32.2,9.5-39.4,18.7-14.5,18.5-25.6,48-16.1,71,7.2,17.4,22.7,13.3,34.6,3.4,12.2-10.1,22.9-25.9,25.2-41.9,1-.2.9.8,1.1,1.6.9,2.6,1.5,5.8,2,8.5.8.7,7.7-6.1,8.1-7s.6-2.1.2-3.2l-10.3-35.5-31,32.6,1.2,7.7,24-23.2Z"/>
  <path class="st0" d="M368.4,442c4.7-1,7.8,0,9.9,4.5,5.5,24.2,18.1,49.7,23.3,73.6,2.3,10.5-1.8,20-8.6,27.9-23.5,21.1-44.3,45.2-67.4,66.6-3,2.8-10.2,10-13.3,11.5-12.6,6.1-13.7-9.6-16.3-18.3-6-20.3-11.1-40.9-17.1-61.2-1.5-9,1.8-17.2,7.2-24.2,25.6-22.9,49-54.3,75.2-75.9,1.8-1.5,5-4,7.2-4.5ZM359.8,479.2c-5.8-5.5-15.4.2-20.6,4.1l-39.5,39.6,22.4,79.3c1.2.3,1.3-.3,1.9-.8,3.8-2.6,12.3-11.6,16.3-15.5,13.6-13.1,32.4-30.2,37-49,4.7-18.9-3-36.3-22.7-20.8,1.4-3.9,4.2-7,5.8-10.9,3-7.3,5.8-19.9-.6-26.1Z"/>
  <path class="st0" d="M486.1,198.6c4.5-1.5,13.2,4.9,17.3,7.3,22.3,13.1,47.8,28.1,69,42.6,9.1,6.2,15.9,12.6,20.6,22.8,8.3,18.2,19.2,45.7,25.2,64.7,1.2,3.9,4,9.8-2.6,8.9-28-16.3-57.9-31.9-84.9-50-29-19.5-30.5-59.9-45.3-89.6-.6-1.8-1.4-6,.7-6.7ZM598.8,296.9l-3.9-8.9-82.9-50,3.6,8.4,83.2,50.5Z"/>
  <path class="st0" d="M528,311.7c3.4-1.1,7.2,1.4,10.1,2.9,23.8,12.1,56.1,32.1,78.4,47.1,9.3,6.2,15.8,12.5,20.6,22.8,9.1,19.6,19.9,47.9,26.8,68.5.8,2.5,3.7,8.3.8,10.1l-4.1.2c-28.1-17-61.1-32.1-88.1-50.6-27.1-18.6-30.8-65.3-45.3-93.4-.6-1.8-1.4-6.8.7-7.5ZM630.1,418.2c-25.3-27.2-52.5-52.7-77.8-79.9l-10.1-5.8,21.7,59.3c2.6,1.2,4.9,2.9,7.3,4.3.6.3,1.3,1.6,2,.4l-16.7-46.9,83.3,85.6,9.7,5.8c1-.4,0-1.5-.2-2.2-5.5-17.9-15.2-36.3-21.4-54.2l-7.9-4.9c-.6-.1-.5.7-.4,1.2,1.7,11.4,13.2,29.7,16.3,41.9.1.4.2,1.3-.4,1.1-1.9-1.8-3.7-3.8-5.5-5.7Z"/>
  <path class="st0" d="M744.3,420c-2.7,1.4-5.7-.1-8.2-1.3-24.5-16.4-52.8-29.7-76.9-46.3-26.5-18.3-31.6-62.8-46.1-90.4-1.6-6.8,4.4-5.4,8.6-3.1,23.7,16.1,50.2,29.4,73.8,45.5,28.2,19.3,32.7,60,48.1,89l.6,6.5ZM723.5,372.8c-1.1-3.3-2-7.2-5.2-9.2l-77.7-47.4,3.9,8.9,79,47.7Z"/>
  <path class="st0" d="M414.9,97.2c6.4-.9,6.7,2.4,8.7,7.2,8.2,19.9,14,41.5,22.1,61.6,1.7,8.5-2.5,17.6-7.8,24.1-16.2,19.8-40.1,41.4-58.5,60s-16.4,19.8-23,21.1-6.8,0-8.8-4c-4.5-21.3-17.5-45.4-21.3-66.3-1.7-9.4,4.2-18.8,10.1-25.6,21.6-25.3,48.5-48.4,70.5-73.6,2.2-1.8,5.1-4,8-4.5ZM370.2,202.4c-16,22-8.9,50.3,19.4,24.4l34.7-36.6-24.3-69.2c-15.9,20.5-53.9,46.1-52.3,74.8s4.5,14.6,13.7,11.4c3.2-1.1,5.7-3.6,8.8-4.8Z"/>
  <path class="st0" d="M452.1,204.1c3.9-.8,7,.4,8.9,3.9l24.9,68.9c2.5,10.4-3.8,20.7-10.3,28.2-22.8,26.2-52.2,49.5-75.6,75.5-4.5,4.5-13.1,6.9-15.7-.6-6.1-22.6-16.7-45.9-22.2-68.4-4.7-19.4,15-33.1,26.7-45.3,18.9-19.7,37.7-39.7,57.3-58.9,1.4-1.1,4.3-2.9,6-3.3ZM456.7,242.1c-16-14.2-42.1,10-52.4,21.8-15.7,17.8-33,50.5-22.3,74.2,7.3,16.1,23.3,11.5,35.4,4,25.1-15.6,54.2-58.2,45.6-88.8-1-3.4-3.6-8.9-6.2-11.2Z"/>
  <path class="st0" d="M301.7,217.3c2.4,0,4.6,1.3,5.3,3.6l21,65.8c1.8,8.9-2.2,18.1-7.8,24.8-18.5,22.6-44.4,42.7-63.1,65.5-5.6,5.6-18.5,21.1-23.8,7.5-7.9-20.3-11-45.1-18.6-65.8-1.9-12.8,6.3-21.8,14.1-30.4,19.3-21.1,41.2-44.8,61.6-64.7,2.7-2.7,7.5-6.2,11.4-6.3ZM276.4,314.7c10.2,11,23.5-5.8,28.3-14.7,11.9-22.1.4-38-5.1-59.7l-72.7,75.7c-.4,1.5.5,3.5.9,5,1.8,7.7,6,24.4,9.3,31,9.3,18.5,30.2-4.7,35.3-15.4,3.4-7.1,4.5-14.1,4-22Z"/>
  <path class="st0" d="M659.8,390c.9-.3,1.8-.2,2.7,0,26.3,15.5,54.1,29.8,79.6,46.8,22.1,14.8,28.6,40.7,38.4,64.7,3.1,7.5,11.4,24.1,12.6,30.8,1.2,6.4-2,7.8-7.3,5-24.7-18-62.2-31.4-85.1-50.5-21.2-17.8-28.8-65.6-42.3-90.2-1-2-1.4-5.7,1.4-6.5ZM758.4,502.2l-65.9-85.6c-.8-2.2-14.8-11.1-15.5-10.5l31,77.1c2.7,1.7,5.4,3.5,8.1,5,.6.3,1.3,1.6,2,.4l-24.4-62.4,69.4,89.4,10.8,5.9-31.8-77.1-8.1-5.1,24.4,62.8Z"/>
  <path class="st0" d="M749.8,620.8c1.1,14,5.3,28.1,16.7,37.2,21.6,17.2,43.4,5.7,55.8-15.5,17.6-30.1,21.3-79.8-16.2-96.1l-7.4-19.3c1.4-.1,2.4.8,3.6,1.4,15.2,8,35,19.5,49.3,28.9,12.9,8.5,12.6,17.6,8.5,31.4-9.7,32.5-24.2,64.9-34.3,97.4-3.2,7.3-10.6,13-18.8,9.5-22-12.9-45.1-23.9-67-36.9-6.3-3.7-14.2-7.2-14.6-15.6l24.4-22.5Z"/>
  <path class="st0" d="M572.1,171.5h3.7c24.9,16.1,53.4,30.8,77.4,48.1,8.7,6.2,14.7,12.9,19.3,22.6,8.1,17.1,16.7,38.5,23.5,56.3.8,2.2,4.3,8.9,2,10.5-3.3,2.3-11.7-3.8-14.7-5.5-21.6-12.6-47.7-27.9-67.9-42.1-26.3-18.6-30.1-58.4-44.4-85.8-.3-1.4-.6-3.4,1.1-4ZM626.7,254.3l25.2-21.7c1.2-2.4-1.5-5.6-2.1-8.1l-56.5-35.3c-.3.3,1.6,4.7,2,5.4,3.5,5.3,34.1,21.6,41.8,27.2,1.2.9,2.6,1.5,3.4,2.8l-25.2,22.8,3.2,8.5,59.6,37.2c-.3-4.9-2.3-7-5.9-9.6-13.4-9.8-30.9-17.3-44-27.2-.4-.3-1.9-1.5-1.6-1.9Z"/>
  <path class="st0" d="M447.4,91.7c.9-.2,1.7,0,2.6.2,26.8,17.1,55.7,32.4,81.7,50.8,21.2,14.9,27.6,42,36.6,65.7,1.6,4.2,8.1,19.2,8,22.3-.2,4.8-6,2.4-8.8,1-25-17.1-53.1-31.2-77.9-48.4-9.4-6.5-16.1-12.7-20.8-23.4-8.8-20-14.4-42.7-23.1-62.9-.8-1.9-.5-4.7,1.8-5.4ZM476.8,117.4c-13.9.7-2.6,24.1.9,30.5,10.3,19,30.8,39.6,49.5,50.5s23.3,12.9,26.2,3.3c4.1-13.3-15.4-39.9-24.1-49.6-9.6-10.7-37.9-35.3-52.6-34.6Z"/>
  <path class="st0" d="M793.2,609.9l3.5-11.6c-.7-1.4-10.4-5.9-12.6-7.6s-1.3.2-1-1.3c7.9-6.3,14.8-14.5,22.4-21,6.6-5.6,7.3-5.3,12.3,2.5,12.9,20.1,4.3,59.6-13,75-19.2,17.1-42.4,0-44.2-22.5-.2-2.6.8-8,.6-9.2s-2.1-2-2.1-2.4c0-1,12.6-11.3,14.3-12.8l19.8,10.8Z"/>
  <path class="st0" d="M735.9,880.4c-1.9,0-3.8,0-5.7,0-19.9-1.9-48.1-7.5-68.1-11.8s-76.5-32-100.6-45.9c-.8-.5-8.5-4.5-7-5.8,1.4,0,2.8,0,4.2,0,20.5,2.1,46.9,6.8,67.3,11,37.2,7.6,73.9,35,108.6,50.3l1.3,2.2ZM687.1,863.3l-103-38.4-7.8-1.1,78.6,39.6c1.6.5,3.4.9,5.1,1.2s2.5,1,2.3-.4l-57-29.4,96.6,36.7c2.8.7,6.1,1.6,9,1.9s2.8.7,2.6-.7l-77.7-38.9-7.1-1.4,58.5,31Z"/>
  <path class="st0" d="M622.8,861c-1.6,0-3.3,0-4.9,0-20-2.3-49-7.3-68.5-12.1-11.2-2.7-21.7-7.9-31.9-13l2.6-1.8c4.7,2.3,9,5.1,14.5,5.3l-13.2-7.4,4.9-3.3,65,20.9,7.6,1.3-62.8-30.6c-1.6-.8,1.2-2.8,1.9-3.3l82.9,41.6,2,2.3Z"/>
  <path class="st0" d="M576.3,841.6l-2.4.4-46.4-15.5c1.5-1.1,4.8-5.8,6.4-5.7l42.4,20.8Z"/>
  <path class="st0" d="M769.1,536.4c.4.6.6,2.7-1,2.2s-9.7-5-8.2-7l9.2,4.7Z"/>
  <polygon points="464.5 596.9 474.8 601.8 395.7 679.3 385.3 674.3 464.5 596.9"/>
  <path d="M740.4,592.7c-1.7,1-8.9-3.6-10.7-5,3.3-7.1,5.9-13.8,2.1-21.5-7.2-14.6-30.3-15.7-43.9-11.6-19.9,6.1-61.4,39.4-40.1,61.5,15.6,16.1,45,8.8,58.5-6.6l-26.3-15.5,8.2-8,36.3,20c1,1.4-1.4,3-2.3,3.9-13.1,12.5-26.9,24.3-39.9,36.8-1.2.6-9.5-4.1-9.2-5.4l11.6-11.3c-17.3,8-45.6,3.5-54.4-15-15.8-33.4,39.7-70.8,68.8-73.3s57,12.3,45.8,41.9c-.5,1.2-4.2,8.7-4.6,9Z"/>
  <path d="M467,453.4l-26.2-77.3c-.5-3.9,6.6-7.9,8.8-11l27.4,78-9.9,10.3Z"/>
  <path d="M305.9,788.9l3.1-1.9,59.7-58.1c3.9-4.3,9.2.9,13.1,3l-76.5,73.1c-1.6.4-11.3-4.2-12.9-5.4-.7-.5-1.3-.8-1.2-1.8l18.5-84.9-64.4,62.4c-1.3,1.8-9.5-2.2-10.8-3.1s-1.3-1.1-.4-1.9l75.6-74c.5-.4,1-.2,1.5,0,.9.2,11.1,5.3,11.9,6s1.3.8,1.3,1.8l-18.6,84.9Z"/>
  <path d="M839.7,389.9c22.1-19.4,46.5,5,50.9,27.7,5.8,29.4-11.5,95.3-52.6,82.9-23.5-7.1-32.3-34.9-28.5-57.1l9.7,5.4c-.5,14.9,2.3,29.4,16.4,37,15.3,8.3,27.7-1.5,35.4-14.6,11.6-19.7,17.4-55.2-3.1-71.2-17.9-14-35.5,1.1-37.4,20,3.6,2.5,22,11.6,23.5,14.1s-2.6,8.8-2.7,11.6l-34.1-20.5-.4-2.8,19.1-54.2,9,5.8-5.2,15.9Z"/>
  <path d="M543,747.1l9.9-9.2c31.6,7.4,76.7-34.1,35.6-56.8-14.3-7.9-31.5-9.1-46.8-3.1-13.8,5.5-36.3,24.2-23.8,40.4,2.2,2.9,9.6,8.8,13.2,6.3,3.8-2.9,20.7-21.7,23.4-22.4s7.4,2.7,9.5,4.2l-34.8,32.6-44.9-21.4c-1.1-1.6,4.8-7.2,6.2-8.1,4.7-3,10.6,3.8,15.4,5-6.6-16.7,8.1-31.5,21-39.8,18.7-12,41.8-14.8,62.9-7.2,29.1,10.5,39.1,35.5,16.5,59.5s-40.7,25.8-63.2,20.1Z"/>
  <path d="M438.4,852.5l62.8-58.4,3.1-1.7,8.5,4.7-76.3,71.4c-2.3-1.8-12.5-4.3-12.7-7l20.1-81.8-63.9,60.5c-1.5,1.9-11.2-3.7-11.2-4.3l75.9-72.1c.8-.6,1.5-.2,2.3,0s9.6,4.6,10.4,5.2c1.1.9,1.3,1.1,1.3,2.6l-20.2,81Z"/>
  <polygon points="212.1 700.6 255.9 657.2 258.4 666 202 720.7 200.6 711.3 229.9 603.7 183.8 649.4 181.3 641.4 239.2 583.6 241.2 592.9 212.1 700.6"/>
  <path d="M269.4,428.6l12.4,43-8.1,8.9-14.9-51.7c-1-3.2,6-10.4,8.5-11.3l71.1-14.6-.3-3.8-12.8-41.5c0-3.1,6-6.4,7.3-9.6l18.1,55.6-.2,1.7-9.1,8.8-71.9,14.5Z"/>
  <path d="M181.1,577.4l42.2-41.8,1.8,8-52.2,53.3c-.6.9-1,1-1.6,0-.9-1.5-1.7-6.6-1.4-8.4l29-103.2-45.3,45.7-1.8-8,55.7-57.1,1.8,9.2-28.1,102.4Z"/>
  <path d="M744.4,841.6c-1.1.3-1.9-.2-2.8-.6-7.1-2.6-33-16.4-38.6-21.1-15.4-13.1-13.9-40.4,3.5-50.7l10.8-2.3c-22.6-17.9-4.4-66.9,26.4-54.2l38.6,20.9-37.8,108.1ZM755.3,778.9l13.1-38.3c-.2-.7-5.9-3.8-7.1-4.5-4.7-2.6-18.8-10.9-23-11.9-9.9-2.3-15.6,3.7-18.6,12.4-4.6,13.3-1.5,22.1,10.3,29.2,7.9,4.7,17.2,8.5,25.3,13ZM750.6,789.8c-9.2-3.2-18-10.4-27.1-13.6-15.8-5.5-25.3,19.7-15.8,31.3,3.2,3.9,23.1,14.6,28.4,16.5s1.8.8,2.8.6l11.6-34.8Z"/>
  <path d="M556,466.8c39.3-2.8,81.4,30.6,47.8,68.7-21.4,24.4-58.5,32.5-87.7,17.2-54-28.4-4.5-82.7,39.9-85.9ZM552.1,478.4c-34,2.9-66.5,41.8-26.4,63.9,20.7,11.4,46.3,8.8,63.8-7.2,32.3-29.7-5.1-59.4-37.4-56.7Z"/>
  <path d="M183.4,400l-24,23.2-1.2-7.7,31-32.6,10.3,35.5c.3,1.2.3,2.1-.2,3.2s-7.4,7.7-8.1,7c-.5-2.8-1-5.9-2-8.5-.3-.7,0-1.8-1.1-1.6-2.2,15.9-13,31.7-25.2,41.9-11.9,9.9-27.4,14-34.6-3.4-9.5-23,1.6-52.4,16.1-71,7.2-9.2,27.3-30.2,39.4-18.7,5.1,4.8-3.4,8.5-6.2,12.4-9.1-10-22.9,3.9-29,11.3-11.8,14.3-20.2,40.8-10.7,58,10,18.1,29-.9,36.5-11.3,7.6-10.7,13-24.6,9.1-37.7Z"/>
  <path d="M359.8,479.2c6.5,6.2,3.7,18.8.6,26.1-1.6,3.8-4.4,7-5.8,10.9,19.6-15.5,27.4,1.8,22.7,20.8-4.6,18.8-23.4,35.9-37,49-4,3.8-12.5,12.8-16.3,15.5s-.8,1.1-1.9.8l-22.4-79.3,39.5-39.6c5.2-3.9,14.8-9.6,20.6-4.1ZM318.3,546.4c1.2.3,1.3-.3,1.9-.8,5.1-3.5,28.1-27.6,30.7-32.8,6.4-12.5,3.3-30.5-12.9-17.6-9.1,7.3-17.3,18.6-26.4,26.4l6.6,24.8ZM329.1,583.6c1.2.3,1.3-.3,1.9-.8,4.9-3.4,21.6-20.1,26-25.2,7.1-8.2,14.6-20.3,9.7-31.4-4.2-9.5-15.3-.4-20.2,3.9-8.6,7.5-16.3,17.2-24.8,24.8l7.4,28.6Z"/>
  <polygon points="598.8 296.9 515.6 246.4 512 238 594.9 288 598.8 296.9"/>
  <path d="M630.1,418.2c1.8,1.9,3.6,3.9,5.5,5.7.6.1.5-.7.4-1.1-3-12.2-14.6-30.4-16.3-41.9,0-.5-.2-1.3.4-1.2l7.9,4.9c6.2,17.8,15.9,36.3,21.4,54.2.2.6,1.2,1.8.2,2.2l-9.7-5.8-83.3-85.6,16.7,46.9c-.6,1.2-1.4,0-2-.4-2.5-1.4-4.8-3.1-7.3-4.3l-21.7-59.3,10.1,5.8c25.3,27.2,52.5,52.7,77.8,79.9Z"/>
  <path d="M723.5,372.8l-79-47.7-3.9-8.9,77.7,47.4c3.2,1.9,4.1,5.8,5.2,9.2Z"/>
  <path d="M370.2,202.4c-3,1.2-5.6,3.7-8.8,4.8-9.3,3.3-13.2-2.5-13.7-11.4-1.6-28.6,36.4-54.3,52.3-74.8l24.3,69.2-34.7,36.6c-28.2,25.8-35.4-2.5-19.4-24.4ZM394.2,138c-7.6,8-16.3,15.7-23.6,24s-12.2,14.3-12.8,22.8c-.3,4.5.3,12.2,6.5,12,10.2-.4,28.7-27,37.3-33.3,1.9-4-6.8-20.3-7.4-25.6ZM404.7,169.8c-9.3,12.9-38.7,31.8-33,50,1.3,4,3.1,4.9,7.2,4,8.5-1.8,26.1-25.5,33.5-31.6l-7.8-22.4Z"/>
  <path d="M456.7,242.1c2.6,2.3,5.3,7.8,6.2,11.2,8.6,30.6-20.5,73.2-45.6,88.8s-28.1,12.1-35.4-4c-10.7-23.7,6.6-56.4,22.3-74.2,10.4-11.8,36.4-36,52.4-21.8ZM439,250.6c-19.1,2.3-44.3,35.5-49.2,53.1-3.9,13.8-2.6,37.5,17.6,31.6,19.7-5.8,43.7-37.7,47.1-57.5,1.9-11.1-.5-28.9-15.5-27.1Z"/>
  <path d="M276.4,314.7c.6,7.9-.5,14.9-4,22-5.1,10.6-26.1,33.8-35.3,15.4-3.3-6.6-7.5-23.3-9.3-31-.4-1.5-1.3-3.5-.9-5l72.7-75.7c5.5,21.7,16.9,37.6,5.1,59.7-4.8,8.9-18.1,25.7-28.3,14.7ZM294.2,257.4c-1.5-1.1-6.6,6.2-7.7,7.4-2.5,2.6-15.2,14.3-15.5,16.3-.2,1,0,1.9.2,2.9.4,3.1,5,18,6.4,20.7,5.3,10.6,16.2-1,19.9-7.2,8.5-14.2.2-25.8-3.3-40.1ZM263.2,289.9l-26.2,26.1c4.7,14.1,6.1,45.6,25.9,21.9,13.8-16.6,4.7-30,.4-48Z"/>
  <path d="M758.4,502.2l-24.4-62.8,8.1,5.1,31.8,77.1-10.8-5.9-69.4-89.4,24.4,62.4c-.6,1.2-1.4,0-2-.4-2.8-1.6-5.5-3.3-8.1-5l-31-77.1c.7-.6,14.6,8.2,15.5,10.5l65.9,85.6Z"/>
  <path d="M626.7,254.3c-.3.4,1.2,1.6,1.6,1.9,13.2,9.9,30.6,17.5,44,27.2,3.6,2.6,5.6,4.7,5.9,9.6l-59.6-37.2-3.2-8.5,25.2-22.8c-.8-1.3-2.2-1.9-3.4-2.8-7.7-5.5-38.3-21.9-41.8-27.2-.4-.6-2.3-5.1-2-5.4l56.5,35.3c.6,2.4,3.3,5.7,2.1,8.1l-25.2,21.7Z"/>
  <path d="M476.8,117.4c14.7-.7,43,23.8,52.6,34.6,8.7,9.7,28.1,36.3,24.1,49.6-2.9,9.6-21-.2-26.2-3.3-18.6-10.9-39.2-31.5-49.5-50.5-3.5-6.4-14.9-29.8-.9-30.5ZM482,128.9c-2.9,3.1.5,13,2,16.6,6.6,16.6,25.1,36.7,40.7,45.3,26.8,14.9,19.6-7.5,10.9-22.5-7.7-13.2-23.1-28.9-36.5-36.3-4-2.2-13.3-7.1-17.1-3.1Z"/>
  <path d="M687.1,863.3l-58.5-31,7.1,1.4,77.7,38.9c.2,1.4-1.7.8-2.6.7-2.9-.3-6.2-1.1-9-1.9l-96.6-36.7,57,29.4c.2,1.5-1.5.5-2.3.4-1.7-.3-3.4-.7-5.1-1.2l-78.6-39.6,7.8,1.1,103,38.4Z"/>
  <path class="st0" d="M755.3,778.9c-8.1-4.5-17.4-8.3-25.3-13-11.9-7.1-15-15.9-10.3-29.2,3-8.7,8.7-14.7,18.6-12.4s18.3,9.2,23,11.9c1.2.7,7,3.8,7.1,4.5l-13.1,38.3Z"/>
  <path class="st0" d="M750.6,789.8l-11.6,34.8c-1.1.3-1.9-.2-2.8-.6-5.3-2-25.2-12.6-28.4-16.5-9.5-11.6,0-36.8,15.8-31.3,9.1,3.2,17.9,10.4,27.1,13.6Z"/>
  <path class="st0" d="M552.1,478.4c32.3-2.7,69.7,27.1,37.4,56.7-17.5,16-43.1,18.6-63.8,7.2-40.1-22.1-7.6-61.1,26.4-63.9Z"/>
  <path class="st0" d="M329.1,583.6l-7.4-28.6c8.5-7.7,16.2-17.4,24.8-24.8s15.9-13.4,20.2-3.9c4.9,11.1-2.6,23.2-9.7,31.4-4.4,5-21,21.8-26,25.2-.7.5-.8,1.1-1.9.8Z"/>
  <path class="st0" d="M318.3,546.4l-6.6-24.8c9.1-7.7,17.3-19.1,26.4-26.4,16.2-12.9,19.3,5,12.9,17.6-2.7,5.2-25.7,29.3-30.7,32.8-.7.5-.8,1.1-1.9.8Z"/>
  <path class="st0" d="M394.2,138c.6,5.2,9.2,21.5,7.4,25.6-8.6,6.3-27.1,32.9-37.3,33.3s-6.8-7.5-6.5-12c.6-8.6,7.3-16.7,12.8-22.8s16-16,23.6-24Z"/>
  <path class="st0" d="M404.7,169.8l7.8,22.4c-7.5,6.1-25,29.8-33.5,31.6s-6,0-7.2-4c-5.7-18.2,23.6-37.1,33-50Z"/>
  <path class="st0" d="M439,250.6c15-1.8,17.4,16,15.5,27.1-3.4,19.9-27.3,51.8-47.1,57.5-20.2,5.9-21.5-17.7-17.6-31.6,4.9-17.6,30.1-50.8,49.2-53.1Z"/>
  <path class="st0" d="M263.2,289.9c4.3,18.1,13.5,31.4-.4,48-19.7,23.7-21.1-7.8-25.9-21.9l26.2-26.1Z"/>
  <path class="st0" d="M294.2,257.4c3.4,14.2,11.8,25.8,3.3,40.1s-14.6,17.8-19.9,7.2c-1.4-2.7-6-17.7-6.4-20.7-.1-1-.4-1.9-.2-2.9.3-2,13-13.7,15.5-16.3,1.1-1.2,6.2-8.5,7.7-7.4Z"/>
  <path class="st0" d="M482,128.9c3.8-4,13,.8,17.1,3.1,13.4,7.4,28.8,23.1,36.5,36.3,8.7,15,15.9,37.4-10.9,22.5-15.6-8.6-34.1-28.7-40.7-45.3-1.4-3.6-4.9-13.5-2-16.6Z"/>
</svg>