<svg width="356" height="457" viewBox="0 0 356 457" fill="none" xmlns="http://www.w3.org/2000/svg">
<g clip-path="url(#clip0_46_232)">
<path d="M187.761 364.633C187.171 363.083 186.559 361.48 187.534 359.57L188.473 357.728L190.471 357.192C194.147 356.207 195.832 359.505 196.261 360.54L196.432 360.952L196.656 362.044L187.761 364.633Z" fill="black"/>
<path d="M191.675 361.687C191.691 361.683 191.778 361.861 191.969 362.321L192.103 362.977C191.86 362.34 191.645 361.695 191.675 361.687ZM189.266 352.696L185.275 353.766L183.395 357.45C181.481 361.202 182.741 364.511 183.418 366.289L201.209 361.115L201.075 360.459L200.896 359.583L200.553 358.758C200.383 358.348 200.257 358.066 200.172 357.885C198.186 353.642 193.701 351.508 189.266 352.696Z" fill="black"/>
<path d="M284.946 403.806L272.874 406.116L229.372 414.395L198.715 420.028L189.156 371.998L129.152 391.987L101.269 401.265L92.0182 373.611L89.0504 364.703L79.1079 334.97L76.8479 328.234L67.5998 300.531L95.4801 291.252L173.285 265.325L175.22 256.508C170.013 259.749 164.217 262.288 157.881 264.097C157.491 264.209 157.098 264.318 156.704 264.424C141.78 268.423 126.508 267.262 113.703 261.155C99.1973 254.22 88.6783 241.568 84.0791 225.528C83.6917 224.143 83.3637 222.844 83.0964 221.638C79.7526 206.176 82.734 190.689 91.4845 178.006C94.2528 173.985 97.4843 170.365 101.154 167.169L91.0815 170.084L62.8658 178.268L30.0691 65.1623L82.8601 49.8836C83.2472 49.7716 83.6343 49.6636 84.0225 49.5596C99.7993 45.3323 115.345 48.1311 126.675 57.2396C133.562 62.7789 138.541 70.3333 141.071 79.0872C141.986 82.26 142.535 85.49 142.71 88.7157C146.343 93.0977 149.121 98.3108 150.806 103.916L206.436 56.9931L229.666 84.1306L236.201 91.7977L236.554 100.86L241.49 96.7051L260.457 118.867L264.71 123.848L283.709 146.069L261.265 165.035L229.911 191.46L237.805 194.535L244.462 197.12L271.822 207.774L235.074 299.976C236.068 299.744 237.074 299.531 238.084 299.338C271.599 292.953 300.884 311.232 307.719 342.802L308.048 344.418C312.492 367.919 303.932 391.487 286.747 403.063L286.104 403.496L284.946 403.806Z" fill="black"/>
<path d="M85.2251 54.0551C99.5702 50.2119 113.579 52.677 123.767 60.867C129.895 65.7964 134.339 72.5334 136.607 80.3791C137.585 83.7693 138.08 87.1648 138.121 90.5155C141.969 94.7695 144.836 99.9506 146.492 105.719C147.145 107.951 147.611 110.206 147.892 112.441L153.937 107.363L187.032 79.4439L205.908 63.5254L221.877 82.1853L226.139 87.1583L231.62 93.5894L231.949 102.037L232.28 110.54L240.96 103.234L256.929 121.893L261.178 126.87L277.134 145.533L258.265 161.478L223.226 191.01L220.929 192.954L236.122 198.872L242.784 201.458L265.767 210.408L256.664 233.254L234.606 288.598L227.144 307.309C229.374 306.424 231.676 305.666 234.042 305.032C235.652 304.601 237.291 304.227 238.957 303.909C269.873 298.019 296.898 314.782 303.177 343.785C303.28 344.27 303.376 344.783 303.481 345.281C307.359 365.783 300.453 388.22 284.15 399.202L283.905 399.267L271.999 401.545L251.112 405.522L245.236 406.641L228.501 409.824L202.377 414.624L192.685 365.921L184.515 368.635L127.681 387.571L104.202 395.385L96.4253 372.136L93.4594 363.233L90.0642 353.088L83.5155 333.495L81.2538 326.755L73.4828 303.478L96.9491 295.668L153.783 276.732L177.259 268.906L182.54 244.842C175.652 251.669 166.845 256.699 156.604 259.623C156.236 259.728 155.87 259.829 155.502 259.928C141.627 263.646 127.534 262.598 115.699 256.955C102.404 250.598 92.7718 238.984 88.5467 224.247C88.2122 223.05 87.8999 221.833 87.6334 220.632C84.5706 206.469 87.2988 192.263 95.3095 180.653C100.679 172.85 108.06 166.625 116.989 162.31L115.916 158.045C115.803 158.089 115.674 158.124 115.558 158.155L89.7877 165.614L66.0336 172.504L35.8294 68.3396L59.5869 61.4617L84.1528 54.3539C84.5112 54.25 84.8671 54.151 85.2251 54.0551ZM192.103 362.977L191.969 362.321C191.778 361.861 191.691 361.683 191.675 361.687C191.645 361.695 191.86 362.34 192.103 362.977ZM82.8166 45.0646L82.8064 45.0673C82.3914 45.1785 81.979 45.2935 81.5638 45.4136L57.0006 52.5207L33.2416 59.3989L24.3096 61.9849L26.9029 70.9285L57.1071 175.093L59.6993 184.033L68.6261 181.444L87.1842 176.06C78.066 189.672 74.996 206.167 78.5486 222.595C78.8438 223.926 79.1923 225.307 79.5954 226.75L79.6037 226.78L79.6125 226.809C84.5833 244.148 95.9783 257.836 111.698 265.353C120.454 269.528 130.252 271.564 140.327 271.404L94.0084 286.837L70.5452 294.646L61.7165 297.584L64.667 306.423L72.438 329.7L74.7044 336.454L81.2495 356.036L84.6459 366.184L87.6077 375.075L95.3884 398.335L98.3359 407.146L107.14 404.217L130.618 396.403L185.627 378.075L193.261 416.436L195.052 425.433L204.061 423.778L230.185 418.978L230.214 418.972L230.242 418.967L246.977 415.784L252.853 414.666L273.742 410.687L285.656 408.409L285.988 408.345L288.057 407.791L289.343 406.924C308.048 394.325 317.4 368.859 312.615 343.556L312.595 343.453L312.573 343.351C312.527 343.134 312.483 342.913 312.439 342.693C312.384 342.413 312.328 342.135 312.271 341.865C308.686 325.305 299.075 311.466 285.2 302.853C272.901 295.219 257.904 292.124 242.482 293.953L243.239 292.054L265.298 236.709L274.401 213.862L277.877 205.141L269.132 201.735L246.148 192.785L239.478 190.195L238.9 189.97L264.255 168.599L283.133 152.647L290.283 146.605L284.194 139.484L268.238 120.821L263.993 115.849L248.017 97.1814L242.022 90.1772L240.828 91.1822L240.783 90.0077L238.689 87.5514L233.208 81.1203L228.93 76.1279L212.965 57.4728L206.965 50.4619L199.917 56.4056L181.041 72.3241L152.815 96.1346C151.3 92.8559 149.426 89.7607 147.243 86.9407C146.976 83.8729 146.405 80.812 145.537 77.8035C142.738 68.1191 137.223 59.7562 129.585 53.6133C117.087 43.5653 100.041 40.4502 82.8166 45.0646Z" fill="black"/>
<path d="M187.761 364.633C187.171 363.083 186.559 361.48 187.534 359.57L188.473 357.728L190.471 357.192C194.147 356.207 195.832 359.505 196.261 360.54L196.432 360.952L196.656 362.044L187.761 364.633Z" fill="black"/>
<path d="M191.675 361.687C191.691 361.683 191.778 361.861 191.969 362.321L192.103 362.977C191.86 362.34 191.645 361.695 191.675 361.687ZM189.266 352.696L185.275 353.766L183.395 357.45C181.481 361.202 182.741 364.511 183.418 366.289L201.209 361.115L201.075 360.459L200.896 359.583L200.553 358.758C200.383 358.348 200.257 358.066 200.172 357.885C198.186 353.642 193.701 351.508 189.266 352.696Z" fill="black"/>
<path d="M250.106 353.74L255.039 379.806L223.957 385.728L222.706 379.148L232.814 377.225C225.768 375.744 220.224 370.122 218.34 361.417C218.276 361.177 218.227 360.934 218.188 360.671C215.059 344.149 226.106 331.322 243.514 328.005C260.62 324.753 275.435 332.625 279.001 349.045C279.063 349.334 279.124 349.622 279.17 349.915C281.745 363.472 275.112 373.337 264.969 377.819L263.591 370.583C270.533 367.311 274.499 360.167 272.797 351.125C272.756 350.911 272.715 350.698 272.659 350.488C269.914 337.794 258.259 332.686 244.892 335.241C231.293 337.826 222.236 347.136 224.718 360.285C224.759 360.499 224.796 360.698 224.853 360.907C227.12 371.403 235.662 376.254 245.006 374.472L247.491 373.999L243.886 354.925L250.106 353.74Z" fill="#6E746D"/>
<path d="M116.932 355.424L155.498 309.503L106.987 325.663L104.735 318.934L161.571 299.998L164.528 308.881L125.977 354.798L174.484 338.623L176.74 345.367L119.904 364.303L116.932 355.424Z" fill="#6E746D"/>
<path d="M172.411 202.51C172.261 201.828 172.091 201.135 171.892 200.451C167.127 183.805 151.407 176.979 134.367 181.85C118.036 186.498 108.402 199.637 111.819 215.376C111.969 216.058 112.139 216.75 112.342 217.45C117.092 234.099 132.827 240.922 149.867 236.051C166.194 231.387 175.828 218.249 172.411 202.51ZM118.593 215.663C118.437 215.143 118.316 214.63 118.199 214.132C115.573 202 123.622 192.575 136.392 188.928C149.696 185.123 161.966 189.36 165.637 202.223C165.793 202.743 165.914 203.256 166.032 203.754C168.662 215.901 160.612 225.326 147.842 228.972C134.538 232.778 122.264 228.526 118.593 215.663Z" fill="#6E746D"/>
<path d="M203.02 167.369L200.738 108.567L174.144 130.999L169.899 126.04L203.003 98.1246L207.248 103.084L209.514 161.89L238.044 137.832L242.289 142.792L207.269 172.344L203.02 167.369Z" fill="#6E746D"/>
<path d="M211.601 279.645L204.945 277.048L227.003 221.72L233.674 224.313L211.601 279.645Z" fill="#6E746D"/>
<path d="M108.729 134.6C120.399 131.217 125.671 122.728 122.734 112.605C121.856 109.567 120.284 107.228 118.221 105.567C114.81 102.823 110.061 101.961 104.841 102.991C110.958 100.165 114.89 94.3299 112.835 87.2592C111.937 84.1466 110.322 81.7072 108.16 79.9762C104.033 76.6536 97.9042 75.9051 90.9741 77.9064L66.4259 85.0136L82.9628 142.066L108.729 134.6ZM75.0994 89.2198L92.7773 84.0978C97.1482 82.8304 100.613 83.2657 102.966 85.1703C104.375 86.3011 105.39 87.9383 105.997 90.0221C107.633 95.6488 105.06 100.397 98.0848 102.411L80.4069 107.533L75.0994 89.2198ZM82.1219 113.395L100.588 108.046C105.463 106.627 109.485 107.106 112.241 109.319C113.79 110.557 114.929 112.354 115.599 114.677C117.507 121.258 114.394 126.263 106.945 128.42L88.0598 133.881L82.1219 113.395Z" fill="#6E746D"/>
</g>
<defs>
<clipPath id="clip0_46_232">
<rect width="259.854" height="403.487" fill="white" transform="translate(0 67.2552) rotate(-15)"/>
</clipPath>
</defs>
</svg>
