<?xml version="1.0" encoding="UTF-8"?>
<svg id="Calque_1" xmlns="http://www.w3.org/2000/svg" version="1.1" viewBox="0 0 858 1327.1">
  <!-- Generator: Adobe Illustrator 29.8.1, SVG Export Plug-In . SVG Version: 2.1.1 Build 2)  -->
  <defs>
    <style>
      .st0 {
        fill: #fff;
      }
    </style>
  </defs>
  <g id="Stickers_x5F_4">
    <path class="st0" d="M851.2,758.7c-1.1,4.3-142.9,406.7-142.9,406.7-27.3,93.3-101.3,182.6-192.5,157.4-83-22.9-125-114.2-97.7-207.5l8.5-22.9,36.7-99.3c-84.7,77.6-176.1,160.9-176.1,160.9-68.1,69.3-175.5,113.1-243.9,47.8-62.3-59.4-56.2-159.6,11.9-229l18.2-16.2,316.2-280-4.6-319.5L244.6,104.5l135.6-68.1-.5-36.3,69.3,1.8,47.9,1.2h0l152.9,4v281.3l125.5,234.1c65.2,79.1,97.7,143.6,75.8,236.1Z"/>
  </g>
  <g>
    <path d="M504.4,1174.7l-11.6,34.8,92.3,30.9-4.2,12.4-92.3-30.9-11.7,34.9-11.4-3.8,27.5-82.1,11.4,3.8Z"/>
    <path d="M544.3,1190c-30.7-10.3-47.3-36.9-37.1-67.1,10.1-30.2,39.4-41.6,70.1-31.3,30.7,10.3,47.3,36.9,37.1,67.2-10.1,30.2-39.4,41.6-70.1,31.3ZM572.9,1104.4c-24-8-46.7-1.2-54.5,22.2-7.8,23.4,6.2,42.5,30.2,50.5,24,8,46.7,1.2,54.5-22.2,7.8-23.4-6.2-42.5-30.2-50.5Z"/>
    <path d="M598,1086.1l-68.9-23.1,4.2-12.4,67.6,22.6c17.5,5.9,30.1-1.8,35.7-18.3,5.5-16.5,0-30.2-17.5-36.1l-67.6-22.6,4.2-12.4,68.9,23.1c25,8.4,30.8,29.4,23.3,51.8-7.5,22.3-24.8,35.7-49.8,27.4Z"/>
    <path d="M649.2,1010.8l5.7-16.9c3.7-11,0-19.3-12.4-23.5l-74.1-24.8,4.2-12.4,74.1,24.8c19,6.4,26.3,20,19.7,39.7l-5.7,16.9-11.4-3.8Z"/>
    <path d="M628.2,939.2c-30.7-10.3-47.3-36.9-37.1-67.1,10.1-30.2,39.4-41.6,70.1-31.3,30.7,10.3,47.3,36.9,37.1,67.2-10.1,30.2-39.4,41.6-70.1,31.3ZM656.8,853.6c-24-8-46.7-1.2-54.5,22.2-7.8,23.4,6.2,42.5,30.2,50.5,24,8,46.7,1.2,54.5-22.2,7.8-23.4-6.2-42.5-30.2-50.5Z"/>
    <path d="M681.9,835.3l-68.9-23.1,4.2-12.4,67.6,22.6c17.5,5.9,30.1-1.8,35.7-18.3,5.5-16.5,0-30.2-17.5-36.1l-67.6-22.6,4.2-12.4,68.9,23.1c25,8.4,30.8,29.4,23.3,51.8-7.5,22.3-24.8,35.7-49.8,27.4Z"/>
    <path d="M698,648.8c13.9,4.6,20.2,16.7,17.7,31.4,6.5-12.8,16.3-14.8,32.6-11,13.5,3.2,21.4,2.5,27.4,1.2l-4.7,14c-5.5.4-12.2,1-27.4-2.7-15.6-3.8-22.5-.2-27.8,15.6l-8.6,25.9,45.7,15.3-4.2,12.4-103.7-34.7,14.4-43.1c6.7-20.2,22-29.8,38.5-24.3ZM695.6,662.2c-12-4-20.7,2.3-26,18.1l-9.1,27.3,35.9,12,9.1-27.3c5.3-15.8,1.9-26.2-9.9-30.1Z"/>
    <path d="M743.4,656.3l4.3-12.7c17.5,3.6,28.3-4.8,34.5-23.5,4.9-14.6,2.1-27.1-10.8-31.4-14.3-4.8-20.3,7.2-31.9,24.1-11.4,16.5-20.7,31.2-39.8,24.8-16.2-5.4-22-24.4-15.1-45,8.2-24.4,24.9-33.7,43.7-30.7l-4.1,12.3c-14-2.3-23.3,6.6-28.5,22.1-4.5,13.6-1.9,25.2,8,28.5,11.1,3.7,17.8-6.7,27.3-20.9,12.3-18.3,22.8-35.2,44.7-27.9,18.8,6.3,24.9,26,17.5,48.2-9.4,28.2-29.1,37-49.7,32.1Z"/>
  </g>
  <g>
    <path d="M535.6,478.5l114.5-17.3,7.3,13.9-79,84.6-6.4-12.1,70.7-73.6-100.7,16.6-6.4-12.1Z"/>
    <path d="M622.6,409.2l6.1,11.6-96.8,50.9-6.1-11.6,96.8-50.9Z"/>
    <path d="M479.6,372.2l114.5-17.3,7.3,13.9-79,84.6-6.4-12.1,70.7-73.6-100.7,16.6-6.4-12.1Z"/>
    <path d="M521.4,282.1l22.3,42.4,31.9-4.6,6.3,12-115.4,15.5-7.9-15,78.1-86.4,6.6,12.5-21.9,23.5ZM513.4,290.9l-40.8,44.1,59.5-8.7-18.7-35.4Z"/>
    <path d="M395.4,212.3l96.8-50.9,8,15.3-55.7,94.6,82.6-43.5,6.1,11.6-96.8,50.9-8-15.3,55.7-94.6-82.6,43.5-6.1-11.6Z"/>
    <path d="M361.9,122.9l17.1,32.4,86.1-45.3,6.1,11.6-86.1,45.3,17.1,32.6-10.6,5.6-40.3-76.6,10.6-5.6Z"/>
  </g>
</svg>