<svg width="292" height="439" viewBox="0 0 292 439" fill="none" xmlns="http://www.w3.org/2000/svg">
<g clip-path="url(#clip0_46_202)">
<path d="M182.57 432.472C178.798 432.472 174.971 431.943 171.196 430.899C158.266 427.315 147.484 418.749 140.832 406.778C133.087 392.837 131.469 375.158 136.395 358.272L136.458 358.054L141.231 345.102C123.254 361.581 108.093 375.455 106.55 376.866C90.1438 393.555 69.6451 403.514 51.6843 403.514C40.2645 403.514 29.9727 399.441 21.9208 391.738C12.2168 382.47 6.74457 369.82 6.51712 356.123C6.25223 340.167 13.1548 323.814 25.4562 311.258L25.613 311.098L31.4271 305.928L127.207 220.859L125.833 126.168L79.869 43.1065L124.309 20.7145L124.103 6.70581L152.358 7.45376L167.24 7.83199L220.99 9.25567V101.429L258.823 172.189C279.404 197.35 290.627 219.342 283.229 250.746C283.108 251.232 282.805 252.45 238.798 377.672C234.611 391.935 227.402 405.127 218.488 414.834C207.892 426.373 195.472 432.472 182.57 432.472Z" fill="white"/>
<path d="M130.712 13.4098L152.186 13.9782L167.045 14.3571H167.068L214.481 15.6126V103.069L253.388 175.837C273.586 200.425 283.674 220.466 276.894 249.246C276.563 250.573 232.6 375.668 232.6 375.668C225.127 401.287 206.348 425.945 182.57 425.945C179.437 425.945 176.218 425.517 172.927 424.607C147.202 417.477 134.185 389.099 142.642 360.105L145.264 352.998L156.627 322.133C130.358 346.248 102.034 372.162 102.034 372.162C88.2012 386.281 69.1452 396.987 51.6849 396.987C42.487 396.987 33.7351 394.019 26.4157 387.014C7.09132 368.561 8.98119 337.388 30.1005 315.832L35.7468 310.811L133.76 223.758L132.319 124.435L88.8518 45.8858L130.878 24.7089L130.712 13.4098ZM117.495 0L117.694 13.6017L117.74 16.7182L83.0055 34.2206L70.8861 40.3275L77.4673 52.2201L119.348 127.903L120.655 217.958L27.114 301.038L21.4613 306.065L21.1265 306.363L20.8128 306.683C7.29723 320.478 -0.285607 338.538 0.00823401 356.232C0.265345 371.692 6.45489 385.982 17.4371 396.469C26.7128 405.345 38.5589 410.042 51.6849 410.042C71.3053 410.042 93.4795 399.405 111.065 381.573C112.409 380.343 118.926 374.379 127.993 366.075C125.562 381.583 128.035 397.156 135.145 409.954C142.652 423.466 154.838 433.138 169.458 437.191C173.805 438.392 178.213 439 182.57 439C213.618 439 236.255 409.269 244.993 379.684C289.047 254.331 289.334 253.177 289.525 252.414L289.545 252.33L289.565 252.247C297.5 218.564 285.255 194.333 264.262 168.545L227.5 99.7895V2.89764L214.824 2.5619L167.412 1.30644L167.24 1.30184H167.212L152.517 0.927157L131.056 0.359107L117.495 0Z" fill="white"/>
<path d="M39.488 349.685C42.7401 346.724 44.3828 344.194 41.9344 340.279L44.0551 338.348L66.8445 363.513L64.017 366.088L46.5561 346.807L40.3701 352.439L38.6045 350.49L39.488 349.685Z" fill="black"/>
<path d="M58.5662 348.093C52.3389 341.217 49.6846 332.446 56.4007 326.331C63.1164 320.216 71.5675 323.708 77.7946 330.584C84.0215 337.46 86.6762 346.231 79.9605 352.346C73.2448 358.462 64.7929 354.969 58.5662 348.093ZM74.7901 333.32C70.0076 328.039 63.4676 324.164 58.519 328.67C53.6057 333.144 56.7879 340.076 61.5703 345.357C66.3528 350.638 72.9286 354.481 77.8418 350.007C82.7904 345.501 79.5725 338.601 74.7901 333.32Z" fill="black"/>
<path d="M107.318 313.919L96.3248 323.929L100.174 333.164L97.0634 335.997L83.4639 302.464L87.3522 298.924L119.332 315.72L116.08 318.681L107.318 313.919ZM104.055 312.169L87.6479 303.31L94.8651 320.537L104.055 312.169Z" fill="black"/>
<path d="M118.493 270.567L141.282 295.731L137.324 299.336L104.617 289.927L124.069 311.406L121.064 314.141L98.2744 288.977L102.233 285.372L134.94 294.781L115.488 273.303L118.493 270.567Z" fill="black"/>
<path d="M136.572 285.275L139.647 282.475C143.833 286.1 148.021 285.455 152.546 281.336C156.08 278.117 157.21 274.308 154.385 271.189C151.239 267.716 147.815 270.058 142.103 272.867C136.529 275.614 131.774 278.197 127.569 273.554C124.007 269.62 125.31 263.582 130.294 259.044C136.197 253.669 142.145 253.685 146.768 257.366L143.799 260.069C140.348 257.327 136.481 258.326 132.734 261.738C129.447 264.731 128.398 268.273 130.58 270.683C133.019 273.377 136.419 271.575 141.131 269.159C147.229 266.064 152.646 263.072 157.46 268.389C161.601 272.961 160.252 279.234 154.879 284.126C148.057 290.338 141.393 289.745 136.572 285.275Z" fill="black"/>
<path d="M169.394 378.558L165.789 389.365L194.406 398.962L193.118 402.821L164.502 393.224L160.883 404.075L157.351 402.891L165.862 377.374L169.394 378.558Z" fill="black"/>
<path d="M181.745 383.336C172.237 380.147 167.097 371.86 170.232 362.462C173.367 353.063 182.444 349.545 191.953 352.734C201.461 355.923 206.602 364.21 203.467 373.608C200.332 383.007 191.254 386.525 181.745 383.336ZM190.62 356.729C183.195 354.239 176.141 356.366 173.718 363.631C171.295 370.895 175.652 376.85 183.078 379.34C190.504 381.831 197.557 379.703 199.98 372.439C202.403 365.174 198.046 359.22 190.62 356.729Z" fill="black"/>
<path d="M198.41 351.036L177.038 343.868L178.325 340.009L199.289 347.04C204.723 348.863 208.636 346.49 210.347 341.359C212.059 336.228 210.357 331.973 204.923 330.15L183.959 323.119L185.246 319.26L206.618 326.428C214.361 329.025 216.152 335.582 213.834 342.529C211.517 349.475 206.153 353.633 198.41 351.036Z" fill="black"/>
<path d="M214.27 327.636L216.027 322.369C217.163 318.964 216.018 316.359 212.17 315.068L189.213 307.369L190.5 303.509L213.457 311.209C219.343 313.183 221.603 317.424 219.559 323.554L217.802 328.82L214.27 327.636Z" fill="black"/>
<path d="M207.755 305.358C198.246 302.169 193.107 293.883 196.241 284.484C199.377 275.086 208.454 271.567 217.963 274.756C227.471 277.946 232.612 286.232 229.477 295.631C226.342 305.029 217.264 308.547 207.755 305.358ZM216.63 278.752C209.204 276.262 202.151 278.389 199.728 285.653C197.304 292.918 201.662 298.872 209.087 301.362C216.514 303.853 223.567 301.726 225.99 294.461C228.413 287.197 224.056 281.243 216.63 278.752Z" fill="black"/>
<path d="M224.421 273.055L203.049 265.887L204.336 262.027L225.301 269.059C230.734 270.881 234.647 268.508 236.358 263.377C238.069 258.247 236.368 253.991 230.935 252.169L209.97 245.137L211.257 241.278L232.629 248.446C240.372 251.043 242.162 257.6 239.845 264.547C237.528 271.494 232.164 275.651 224.421 273.055Z" fill="black"/>
<path d="M229.403 215.104C233.705 216.547 235.679 220.288 234.904 224.875C236.932 220.91 239.967 220.262 245.009 221.448C249.205 222.452 251.651 222.212 253.493 221.82L252.04 226.179C250.333 226.313 248.265 226.478 243.555 225.353C238.71 224.182 236.58 225.285 234.944 230.188L232.263 238.225L246.436 242.978L245.148 246.837L213 236.055L217.468 222.661C219.558 216.396 224.286 213.388 229.403 215.104ZM228.674 219.251C224.961 218.006 222.242 219.971 220.606 224.875L217.774 233.365L228.912 237.101L231.744 228.611C233.38 223.707 232.342 220.482 228.674 219.251Z" fill="black"/>
<path d="M243.482 217.42L244.8 213.47C250.219 214.581 253.559 211.966 255.497 206.154C257.012 201.613 256.14 197.737 252.155 196.4C247.718 194.912 245.872 198.634 242.258 203.884C238.735 209.013 235.846 213.597 229.915 211.608C224.889 209.922 223.083 204.016 225.219 197.614C227.748 190.032 232.944 187.13 238.771 188.075L237.499 191.889C233.152 191.188 230.265 193.956 228.66 198.768C227.251 202.991 228.063 206.595 231.142 207.627C234.583 208.782 236.67 205.544 239.604 201.126C243.414 195.437 246.681 190.172 253.472 192.45C259.314 194.409 261.195 200.543 258.893 207.444C255.97 216.207 249.867 218.956 243.482 217.42Z" fill="black"/>
<path d="M179.051 162.167L214.541 156.799L216.809 161.12L192.305 187.417L190.325 183.646L212.253 160.766L181.03 165.937L179.051 162.167Z" fill="black"/>
<path d="M206.043 140.609L207.933 144.21L177.935 160.043L176.045 156.442L206.043 140.609Z" fill="black"/>
<path d="M161.704 129.122L197.195 123.753L199.463 128.075L174.958 154.372L172.979 150.601L194.906 127.72L163.683 132.892L161.704 129.122Z" fill="black"/>
<path d="M174.671 101.094L181.587 114.27L191.467 112.843L193.424 116.571L157.644 121.388L155.198 116.728L179.414 89.8803L181.46 93.7782L174.671 101.094ZM172.165 103.824L159.508 117.538L177.947 114.839L172.165 103.824Z" fill="black"/>
<path d="M135.605 79.4029L165.603 63.5706L168.094 68.3152L150.829 97.7162L176.433 84.2027L178.324 87.8038L148.326 103.636L145.835 98.8911L163.099 69.4907L137.496 83.0042L135.605 79.4029Z" fill="black"/>
<path d="M125.224 51.6089L130.517 61.6914L157.219 47.5983L159.11 51.1996L132.407 65.2927L137.722 75.4182L134.427 77.1573L121.929 53.3477L125.224 51.6089Z" fill="black"/>
</g>
<defs>
<clipPath id="clip0_46_202">
<rect width="292" height="439" fill="white"/>
</clipPath>
</defs>
</svg>
